<!-- Generator: Adobe Illustrator 13.0.0, SVG Export Plug-In . SVG Version: 6.00 Build 14948)  -->
<svg xmlns:rdf="http://www.w3.org/1999/02/22-rdf-syntax-ns#" xmlns="http://www.w3.org/2000/svg" enable-background="new 0 0 200.312 200.311" xml:space="preserve" height="200.31px" viewBox="0 0 200.312 200.311" width="200.31px" version="1.1" y="0px" x="0px" xmlns:cc="http://creativecommons.org/ns#" xmlns:xlink="http://www.w3.org/1999/xlink" xmlns:dc="http://purl.org/dc/elements/1.1/"><metadata><rdf:RDF><cc:Work rdf:about=""><dc:format>image/svg+xml</dc:format><dc:type rdf:resource="http://purl.org/dc/dcmitype/StillImage"/><dc:title/></cc:Work></rdf:RDF></metadata><defs><linearGradient id="linearGradient6339" y2="496.66" gradientUnits="userSpaceOnUse" x2="-204.76" gradientTransform="matrix(0, 118.336, -118.336, 0, 58872.7, 24399.8)" y1="496.66" x1="-205.32"><stop stop-color="#ED2E2C" offset="0"/><stop stop-color="#ED2E2C" offset="0.0056"/><stop stop-color="#EE3F3B" offset="0.5"/><stop stop-color="#BE2628" offset="0.9944"/><stop stop-color="#BE2628" offset="1"/></linearGradient></defs>
			<linearGradient id="SVGID_1_" y2="15.179" gradientUnits="userSpaceOnUse" x2="100.16" y1="310.26" x1="100.16">
				<stop stop-color="#A3A3A3" offset="0"/>
				<stop stop-color="#F9F9F9" offset="1"/>
			</linearGradient>
			<path fill="url(#SVGID_1_)" d="M179.88,0.5h-159.45c-11.004,0-19.932,8.922-19.932,19.932v159.45c0,11.003,8.928,19.931,19.932,19.931h159.45c11.004,0,19.932-8.928,19.932-19.931v-159.45c0-11.01-8.93-19.932-19.93-19.932"/>
			<path stroke="#D3D3D3" fill="none" d="M179.88,0.5h-159.45c-11.004,0-19.932,8.922-19.932,19.932v159.45c0,11.003,8.928,19.931,19.932,19.931h159.45c11.004,0,19.932-8.928,19.932-19.931v-159.45c0-11.01-8.93-19.932-19.93-19.932"/>
		<defs>
		</defs>
		<mask id="SVGID_2_" height="200.311" width="200.312" y="0" x="0" maskUnits="userSpaceOnUse">
		</mask>
		<g opacity="0.75" mask="url(#SVGID_2_)">
			<path fill="#FFF" d="M179.88,0.5h-159.45c-11.004,0-19.932,8.922-19.932,19.932v159.45c0,11.003,8.928,19.931,19.932,19.931h159.45c11.004,0,19.932-8.928,19.932-19.931v-159.45c0-11.01-8.93-19.932-19.93-19.932"/>
			<path stroke="#FFF" fill="none" d="M179.88,0.5h-159.45c-11.004,0-19.932,8.922-19.932,19.932v159.45c0,11.003,8.928,19.931,19.932,19.931h159.45c11.004,0,19.932-8.928,19.932-19.931v-159.45c0-11.01-8.93-19.932-19.93-19.932"/>
		</g>
			<linearGradient id="SVGID_3_" y2="94.532" gradientUnits="userSpaceOnUse" x2="69.875" y1="32.366" x1="69.875">
				<stop stop-color="#4D4D4D" offset="0"/>
				<stop stop-color="#020202" offset="0.9944"/>
				<stop stop-color="#020202" offset="1"/>
			</linearGradient>
			<polygon points="86.629,30.424,76.475,30.424,70.299,56.281,69.665,56.281,63.184,30.424,53.121,30.424,53.121,30.428,65.007,69.479,65.007,95.117,74.999,95.117,74.999,68.274" fill="url(#SVGID_3_)"/>
			<linearGradient id="SVGID_4_" y2="95.593" gradientUnits="userSpaceOnUse" x2="99.052" y1="48.846" x1="99.052">
				<stop stop-color="#4D4D4D" offset="0"/>
				<stop stop-color="#020202" offset="0.9944"/>
				<stop stop-color="#020202" offset="1"/>
			</linearGradient>
			<path fill="url(#SVGID_4_)" d="M89.67,92.724c2.319,2.39,5.414,3.589,9.275,3.599h0.085c4.012-0.01,7.163-1.174,9.458-3.485,2.291-2.322,3.439-5.523,3.441-9.606v-24.667c-0.002-3.635-1.17-6.607-3.51-8.913-2.346-2.312-5.352-3.463-9.028-3.463-4.034,0-7.246,1.091-9.629,3.285-2.391,2.191-3.587,5.136-3.587,8.829l0.003,24.741c-0.001,4.056,1.165,7.283,3.491,9.68zm5.64-34.777c0-1.044,0.34-1.887,1.016-2.531,0.678-0.638,1.554-0.955,2.636-0.955,1.172,0,2.122,0.317,2.843,0.955,0.721,0.645,1.086,1.487,1.086,2.531v25.99c0,1.284-0.354,2.284-1.063,3.017-0.706,0.733-1.66,1.1-2.867,1.1-1.172,0-2.071-0.357-2.707-1.071-0.631-0.721-0.944-1.733-0.944-3.045v-25.991z"/>
			<linearGradient id="SVGID_5_" y2="96.653" gradientUnits="userSpaceOnUse" x2="132.13" y1="48.438" x1="132.13">
				<stop stop-color="#4D4D4D" offset="0"/>
				<stop stop-color="#020202" offset="0.9944"/>
				<stop stop-color="#020202" offset="1"/>
			</linearGradient>
			<path fill="url(#SVGID_5_)" d="M135.92,47.395v36.227c-0.838,1.036-1.748,1.895-2.748,2.565-0.994,0.673-1.816,1.004-2.471,1.004-0.832,0-1.434-0.252-1.803-0.76-0.369-0.506-0.555-1.321-0.555-2.454v-36.582h-8.877v39.906c0.002,2.833,0.521,4.957,1.559,6.376,1.039,1.418,2.586,2.124,4.637,2.124,1.66,0,3.379-0.506,5.154-1.517,1.764-1.014,3.465-2.495,5.104-4.433v5.266h8.869v-47.722h-8.861z"/>
				<defs>
					<path id="SVGID_6_" d="M100.15,102.56c-0.587-0.001-1.177-0.001-1.764-0.001-11.26,0-22.313,0.214-33.126,0.665-7.972,0-14.439,6.394-14.439,14.273-0.479,6.242-0.685,12.482-0.667,18.723-0.018,6.244,0.188,12.482,0.667,18.729,0,7.878,6.468,14.273,14.439,14.273,11.375,0.477,23.018,0.684,34.89,0.663,11.871,0.021,23.511-0.187,34.89-0.663,7.973,0,14.441-6.396,14.441-14.273,0.479-6.246,0.686-12.484,0.672-18.729,0.014-6.24-0.193-12.48-0.672-18.723,0-7.88-6.469-14.273-14.441-14.273-10.813-0.451-21.861-0.665-33.125-0.665h-1.77"/>
				</defs>
				<clipPath id="SVGID_7_">
					<use overflow="visible" xlink:href="#SVGID_6_"/>
				</clipPath>
					<linearGradient id="SVGID_8_" y2="496.66" gradientUnits="userSpaceOnUse" x2="-204.76" gradientTransform="matrix(0, 118.336, -118.336, 0, 58872.7, 24399.8)" y1="496.66" x1="-205.33">
					<stop stop-color="#ED2E2C" offset="0"/>
					<stop stop-color="#ED2E2C" offset="0.0056"/>
					<stop stop-color="#EE3F3B" offset="0.5"/>
					<stop stop-color="#BE2628" offset="0.9944"/>
					<stop stop-color="#BE2628" offset="1"/>
				</linearGradient>
				<path fill="url(#SVGID_8_)" d="M100.15,104.44c0.535,0,1.069-0.002,1.604-0.002,3.906,0,7.775,0.027,11.6,0.078,7.412,0.101,14.641,0.296,21.609,0.586l0.039,0.001h0.037c6.926,0,12.559,5.56,12.559,12.391v0.071l0.004,0.074c0.414,5.406,0.637,11.036,0.662,16.762v3.625c-0.025,5.733-0.248,11.368-0.662,16.771l-0.004,0.072v0.075,0.02,0.013,0.007c-0.021,6.812-5.646,12.351-12.559,12.351h-0.076c-10.125,0.421-20.795,0.644-31.766,0.662h-6.092c-10.974-0.019-21.642-0.241-31.765-0.662h-0.081c-6.922,0-12.555-5.561-12.555-12.39v-0.075l-0.004-0.072c-0.43-5.604-0.652-11.452-0.667-17.397v-2.357c0.015-5.952,0.237-11.798,0.667-17.404l0.004-0.074v-0.071c0-6.831,5.631-12.391,12.555-12.391h0.039l0.042-0.001c10.56-0.438,21.725-0.664,33.201-0.664h0.001c0.535,0,1.069,0.002,1.604,0.002h0.02m1.77-1.88c-0.59,0-1.176,0-1.765,0.001-0.587-0.001-1.177-0.001-1.764-0.001-11.26,0-22.313,0.214-33.126,0.665-7.972,0-14.439,6.394-14.439,14.273-0.479,6.242-0.685,12.482-0.667,18.723-0.018,6.244,0.188,12.482,0.667,18.729,0,7.878,6.468,14.273,14.439,14.273,10.861,0.454,21.968,0.664,33.281,0.664,0.536,0,1.071,0,1.608-0.001,0.536,0.001,1.07,0.001,1.607,0.001,11.316,0,22.42-0.21,33.283-0.664,7.973,0,14.441-6.396,14.441-14.273,0.479-6.246,0.686-12.484,0.672-18.729,0.014-6.24-0.193-12.48-0.672-18.723,0-7.88-6.469-14.273-14.441-14.273-10.82-0.45-21.87-0.66-33.13-0.66" clip-path="url(#SVGID_7_)"/>
				<defs>
					<polyline id="SVGID_9_" points="52.039,104.44,148.27,104.44,148.27,168,52.039,168,52.039,104.44"/>
				</defs>
				<clipPath id="SVGID_10_">
					<use overflow="visible" xlink:href="#SVGID_9_"/>
				</clipPath>
					<linearGradient id="SVGID_11_" y2="496.66" gradientUnits="userSpaceOnUse" x2="-204.77" gradientTransform="matrix(0, 118.336, -118.336, 0, 58872.7, 24399.8)" y1="496.66" x1="-204.77">
					<stop stop-color="#ED2E2C" offset="0"/>
					<stop stop-color="#ED2E2C" offset="0.0056"/>
					<stop stop-color="#EE3F3B" offset="0.5"/>
					<stop stop-color="#BE2628" offset="0.9944"/>
					<stop stop-color="#BE2628" offset="1"/>
				</linearGradient>
				<polyline points="103.2,168,97.11,168,97.11,168,100.16,168,100.16,168,100.16,168,103.2,168,103.2,168" fill="url(#SVGID_11_)" clip-path="url(#SVGID_10_)"/>
				<g clip-path="url(#SVGID_10_)">
					<defs>
						<polyline id="SVGID_12_" points="52.039,168,148.27,168,148.27,104.44,52.039,104.44,52.039,168"/>
					</defs>
					<clipPath id="SVGID_13_">
						<use overflow="visible" xlink:href="#SVGID_12_"/>
					</clipPath>
					<path d="m147.6,154.97v0.013-0.013m0.668-17.053c-0.13221,18.939,2.594,21.373,0,0.115v-0.115m-0.662-20.272c0.416,5.443,0.639,11.114,0.662,16.877v-0.115c-0.025-5.726-0.248-11.356-0.662-16.762m-0.006-0.075,0,0.002,0.006,0.072-0.006-0.074m-12.633-12.462,0.039,0.004,0.037,0c6.924,0,12.557,5.558,12.557,12.388,0-6.831-5.631-12.391-12.557-12.391h-0.57477m-34.32-0.68h-0.003,0.001,0.002m34.889,62.895-0.037,0-0.039,0m-36.424-62.9c-11.477,0-22.641,0.226-33.201,0.664l-0.041,0.001h-0.039c-6.924,0-12.556,5.56-12.556,12.391v0.071l-0.003,0.074c-0.43,5.606-0.652,11.452-0.667,17.404v2.356c0.015,5.945,0.237,11.794,0.667,17.397l0.003,0.072v0.075c0,6.829,5.633,12.39,12.556,12.39h0.039,0.041c10.124,0.421,27.111,1.7195,37.009,1.3342l1.2521,0.26889c12.584-0.019,21.238-1.1821,31.363-1.6031l-3.1876,0.40333,7.028-0.00001c11.281,0,13.075-34.309,10.003-36.685-0.004,1.634,4.6384-26.783-13.297-26.297l-33.097-0.62747c-4.546-3.29-39.041,1-37.134,1h0.039l0.041-0.004c10.559-0.436,21.722-0.662,33.2-0.662" clip-path="url(#SVGID_13_)" fill="url(#linearGradient6339)"/>
					<g clip-path="url(#SVGID_13_)">
						<defs>
							<polyline id="SVGID_15_" points="52.039,168,148.27,168,148.27,104.44,52.039,104.44,52.039,168"/>
						</defs>
						<clipPath id="SVGID_16_">
							<use overflow="visible" xlink:href="#SVGID_15_"/>
						</clipPath>
						<g clip-path="url(#SVGID_16_)">
							<defs>
								<path id="SVGID_17_" d="M113.78,167.92c7.26-0.1,14.348-0.293,21.189-0.578h0.076c2.012,0,3.908-0.473,5.59-1.303l-26.86,1.88m-13.63-63.48c-12.043-0.021-23.756,0.203-34.809,0.662l-0.041,0.004h-0.039c-1.907,0-3.711,0.422-5.332,1.174l86.74,53.329c0.598-1.438,0.928-3.017,0.928-4.664v-0.075l0.006-0.072c0.457-5.977,0.678-12.228,0.664-18.586,0.014-6.345-0.207-12.595-0.664-18.572l-0.006-0.072v-0.073c0-6.83-5.633-12.388-12.557-12.388h-0.037l-0.039-0.004c-10.561-0.438-21.725-0.664-33.205-0.664h-1.61"/>
							</defs>
							<clipPath id="SVGID_18_">
								<use overflow="visible" xlink:href="#SVGID_17_"/>
							</clipPath>
							<g clip-path="url(#SVGID_18_)">
								<defs>
									<path id="SVGID_19_" d="M140.63,166.04l-26.855,1.881c7.26-0.1,14.348-0.293,21.189-0.578h0.076c2.01,0,3.9-0.47,5.58-1.3m-38.87-61.6c-0.533,0-1.069,0.002-1.604,0.002h-0.002-0.001c-0.536,0-1.07-0.002-1.605-0.002-11.479,0-22.642,0.226-33.202,0.664l-0.041,0.004h-0.039c-1.907,0-3.711,0.422-5.332,1.174l86.74,53.329c0.592-1.427,0.924-2.991,0.928-4.625v-0.007-0.013-0.02-0.075l0.006-0.072c0.416-5.443,0.639-11.114,0.662-16.886v-3.396c-0.023-5.763-0.246-11.434-0.662-16.877l-0.006-0.072v-0.073c0-6.83-5.633-12.388-12.557-12.388h-0.037l-0.039-0.004c-6.969-0.289-14.199-0.485-21.611-0.586-3.82-0.03-7.69-0.06-11.6-0.06"/>
								</defs>
								<clipPath id="SVGID_20_">
									<use overflow="visible" xlink:href="#SVGID_19_"/>
								</clipPath>
								<g transform="matrix(1, 0, 0, 1, -3.48742e-06, -4.29549e-06)" clip-path="url(#SVGID_20_)">
								</g>
							</g>
						</g>
					</g>
				</g>
			<path fill="#020202" d="M79.136,113h-20.97v6.416h7.067v37.816h6.832v-37.816h7.071v-6.419zm11.166,36.37c-0.569,0.712-1.192,1.297-1.874,1.756-0.684,0.456-1.247,0.686-1.691,0.686-0.569,0-0.981-0.174-1.234-0.519-0.256-0.348-0.384-0.907-0.384-1.68v-25.015h-6.066v27.274c0,1.943,0.357,3.402,1.069,4.373,0.708,0.971,1.768,1.456,3.169,1.456,1.137,0,2.312-0.351,3.521-1.041,1.209-0.692,2.373-1.708,3.49-3.034v3.603h6.067v-32.631h-6.067v24.774zm23.508-25.18c-0.941,0-1.871,0.262-2.793,0.78-0.918,0.521-1.787,1.272-2.607,2.271v-14.238h-6.121v44.232h6.121v-2.51c0.803,0.995,1.664,1.732,2.592,2.21,0.93,0.474,1.986,0.712,3.174,0.712,1.801,0,3.17-0.613,4.123-1.845,0.951-1.23,1.424-3.007,1.424-5.329v-18.104c0-2.667-0.504-4.693-1.518-6.086-0.99-1.39-2.46-2.09-4.38-2.09m-0.33,25.39c0,1.04-0.176,1.79-0.525,2.251-0.35,0.457-0.895,0.686-1.639,0.686-0.514,0-1-0.118-1.463-0.351-0.467-0.233-0.943-0.617-1.441-1.146v-20.335c0.416-0.447,0.832-0.779,1.258-0.997,0.42-0.211,0.846-0.317,1.279-0.317,0.822,0,1.447,0.286,1.881,0.854,0.434,0.573,0.65,1.41,0.65,2.509v16.865zm28.66-7.9v-8.308c0-3.098-0.744-5.471-2.229-7.124-1.494-1.65-3.627-2.476-6.402-2.476-2.713,0-4.928,0.892-6.645,2.676-1.715,1.782-2.568,4.09-2.568,6.924v14.645c0,3.142,0.779,5.609,2.338,7.404,1.564,1.795,3.701,2.69,6.416,2.69,3.021,0,5.291-0.846,6.811-2.535,1.523-1.692,2.279-4.213,2.279-7.56v-2.451h-6.242v2.27c0,1.917-0.199,3.16-0.6,3.723-0.398,0.562-1.105,0.841-2.111,0.841-0.963,0-1.645-0.329-2.045-0.993-0.402-0.667-0.605-1.855-0.605-3.57v-6.155h11.604zm-11.6-8.36c0-1.364,0.215-2.343,0.635-2.937,0.42-0.591,1.113-0.887,2.08-0.887,0.922,0,1.596,0.296,2.016,0.887,0.42,0.594,0.631,1.572,0.631,2.937v3.305h-5.361v-3.305z"/>
			<path fill="#FFF" d="M79.136,113.47h-20.97v6.42h7.067v37.815h6.832v-37.815h7.071v-6.409zm11.166,36.37c-0.569,0.712-1.192,1.296-1.874,1.756-0.684,0.458-1.247,0.684-1.691,0.684-0.569,0-0.981-0.171-1.234-0.519-0.256-0.343-0.384-0.904-0.384-1.68v-25.011h-6.066v27.273c0,1.943,0.357,3.399,1.069,4.372,0.708,0.97,1.768,1.455,3.169,1.455,1.137,0,2.312-0.346,3.521-1.04,1.209-0.693,2.373-1.702,3.49-3.034v3.604h6.067v-32.631h-6.067v24.785zm23.508-25.18c-0.941,0-1.871,0.261-2.793,0.779-0.918,0.519-1.787,1.273-2.607,2.271v-14.24h-6.121v44.235h6.121v-2.508c0.803,0.992,1.664,1.729,2.592,2.201,0.93,0.48,1.986,0.721,3.174,0.721,1.801,0,3.17-0.617,4.123-1.848,0.951-1.233,1.424-3.008,1.424-5.328v-18.102c0-2.666-0.504-4.695-1.518-6.092-0.99-1.38-2.46-2.08-4.38-2.08m-0.33,25.4c0,1.042-0.176,1.792-0.525,2.25s-0.895,0.688-1.639,0.688c-0.514,0-1-0.114-1.463-0.353-0.467-0.232-0.943-0.615-1.441-1.146v-20.34c0.416-0.448,0.832-0.778,1.258-0.995,0.42-0.212,0.846-0.319,1.279-0.319,0.822,0,1.447,0.286,1.881,0.855,0.434,0.571,0.65,1.407,0.65,2.51v16.846zm28.66-7.91v-8.306c0-3.098-0.744-5.47-2.229-7.12-1.494-1.652-3.627-2.478-6.402-2.478-2.713,0-4.928,0.891-6.645,2.672-1.715,1.783-2.568,4.093-2.568,6.926v14.648c0,3.139,0.779,5.605,2.338,7.404,1.564,1.79,3.701,2.688,6.416,2.688,3.021,0,5.291-0.844,6.811-2.537,1.523-1.694,2.279-4.214,2.279-7.556v-2.452h-6.242v2.267c0,1.923-0.199,3.16-0.6,3.724-0.398,0.558-1.105,0.841-2.111,0.841-0.963,0-1.645-0.33-2.045-0.995-0.402-0.662-0.605-1.856-0.605-3.569v-6.157h11.604zm-11.6-8.36c0-1.366,0.215-2.347,0.635-2.937,0.42-0.592,1.113-0.887,2.08-0.887,0.922,0,1.596,0.295,2.016,0.887,0.42,0.59,0.631,1.57,0.631,2.937v3.306h-5.361v-3.314z"/>
</svg>
