<?xml version="1.0" encoding="utf-8"?>
<!DOCTYPE svg PUBLIC "-//W3C//DTD SVG 1.0//EN" "http://www.w3.org/TR/2001/REC-SVG-20010904/DTD/svg10.dtd">
<svg version="1.0" id="Layer_1" xmlns="http://www.w3.org/2000/svg" xmlns:xlink="http://www.w3.org/1999/xlink" x="0px" y="0px"
	 width="193.5px" height="17px" viewBox="0 0 193.5 17" enable-background="new 0 0 193.5 17" xml:space="preserve">
<g>
	<path d="M1.547,3.336h1.881c1.031,0,1.831,0.038,2.399,0.114c1.447,0.193,2.575,0.867,3.384,2.021
		c0.762,1.078,1.143,2.364,1.143,3.858c0,1.635-0.428,2.994-1.283,4.078c-0.844,1.066-1.963,1.676-3.357,1.828
		c-0.551,0.064-1.359,0.097-2.426,0.097h-1.74V3.336z M2.892,14.165h0.879c0.826,0,1.436-0.026,1.828-0.079
		c0.738-0.105,1.38-0.401,1.925-0.888s0.935-1.16,1.169-2.021C8.851,10.614,8.93,9.999,8.93,9.331c0-1.441-0.352-2.599-1.055-3.472
		C7.307,5.15,6.554,4.728,5.616,4.593c-0.434-0.059-1.16-0.088-2.18-0.088H2.892V14.165z"/>
	<path d="M13.667,9.041H12.41c0.082-0.727,0.34-1.292,0.773-1.696c0.563-0.521,1.371-0.782,2.426-0.782
		c0.896,0,1.608,0.205,2.136,0.615c0.422,0.328,0.668,0.841,0.738,1.538c0.029,0.275,0.044,0.668,0.044,1.178v3.199
		c-0.006,1.043,0.073,1.79,0.237,2.241h-1.204c-0.094-0.34-0.155-0.724-0.185-1.151c-0.498,0.92-1.333,1.38-2.505,1.38
		c-0.762,0-1.386-0.19-1.872-0.571c-0.586-0.451-0.879-1.081-0.879-1.89c0-1.219,0.662-2.074,1.986-2.566
		c0.732-0.275,1.796-0.527,3.19-0.756v-0.36c0-0.592-0.097-1.008-0.29-1.248c-0.287-0.357-0.768-0.536-1.441-0.536
		C14.476,7.634,13.843,8.103,13.667,9.041z M17.297,10.71c-1.236,0.223-2.133,0.463-2.689,0.721
		c-0.791,0.369-1.187,0.894-1.187,1.573c0,0.445,0.158,0.812,0.475,1.099c0.299,0.264,0.688,0.396,1.169,0.396
		c0.855,0,1.482-0.34,1.881-1.02c0.234-0.393,0.352-1.031,0.352-1.916V10.71z"/>
	<path d="M21.85,3.169c0.234,0,0.434,0.07,0.598,0.211c0.199,0.176,0.299,0.416,0.299,0.721c0,0.246-0.076,0.451-0.229,0.615
		c-0.176,0.193-0.404,0.29-0.686,0.29c-0.27,0-0.489-0.085-0.659-0.255c-0.176-0.164-0.264-0.378-0.264-0.642
		c0-0.287,0.094-0.519,0.281-0.694C21.372,3.251,21.592,3.169,21.85,3.169z M21.164,6.799h1.327v8.534h-1.327V6.799z"/>
	<path d="M24.926,6.799h1.23c0.117,0.311,0.176,0.703,0.176,1.178c0.521-0.949,1.348-1.424,2.479-1.424
		c1.143,0,1.925,0.501,2.347,1.503c0.568-0.996,1.444-1.494,2.628-1.494c1.061,0,1.793,0.366,2.197,1.099
		c0.176,0.311,0.278,0.741,0.308,1.292c0.012,0.17,0.018,0.554,0.018,1.151v5.229H35.06v-5.221c0-0.545-0.015-0.908-0.044-1.09
		c-0.129-0.891-0.668-1.336-1.617-1.336c-0.762,0-1.327,0.302-1.696,0.905c-0.229,0.381-0.343,0.943-0.343,1.688v5.054h-1.257
		v-5.027c-0.006-0.961-0.064-1.567-0.176-1.819c-0.252-0.539-0.735-0.809-1.45-0.809c-0.463,0-0.873,0.126-1.23,0.378
		c-0.563,0.398-0.844,1.166-0.844,2.303v4.975h-1.257V9.436c-0.006-0.961-0.021-1.556-0.044-1.784
		C25.066,7.347,25.008,7.063,24.926,6.799z"/>
	<path d="M38.9,3.275h1.327v12.059H38.9V3.275z"/>
	<path d="M49.482,11.282h-5.827c0.029,0.92,0.202,1.638,0.519,2.153c0.434,0.697,1.081,1.046,1.942,1.046
		c0.645,0,1.157-0.202,1.538-0.606c0.141-0.152,0.29-0.384,0.448-0.694l1.178,0.141c-0.521,1.494-1.579,2.241-3.173,2.241
		c-1.037,0-1.896-0.34-2.575-1.02c-0.779-0.791-1.169-1.916-1.169-3.375c0-1.611,0.434-2.842,1.301-3.691
		c0.627-0.615,1.415-0.923,2.364-0.923c1.184,0,2.095,0.495,2.733,1.485c0.48,0.756,0.721,1.729,0.721,2.918
		C49.482,11.033,49.482,11.141,49.482,11.282z M48.173,10.289c-0.053-0.627-0.188-1.146-0.404-1.556
		c-0.387-0.744-0.981-1.116-1.784-1.116c-0.779,0-1.38,0.366-1.802,1.099c-0.234,0.398-0.398,0.923-0.492,1.573H48.173z"/>
	<path d="M51.495,6.799h1.195c0.111,0.434,0.167,0.867,0.167,1.301c0,0.111-0.009,0.29-0.026,0.536
		c0.58-1.383,1.315-2.074,2.206-2.074c0.322,0,0.668,0.091,1.037,0.272v1.257c-0.48-0.223-0.864-0.334-1.151-0.334
		c-0.697,0-1.245,0.439-1.644,1.318c-0.246,0.557-0.369,1.368-0.369,2.435v3.823h-1.274v-5.59c-0.006-0.967-0.012-1.553-0.018-1.758
		C51.601,7.599,51.56,7.204,51.495,6.799z"/>
	<path d="M63.58,8.531h4.869V9.7H63.58v5.634h-1.345V3.336h6.601v1.169H63.58V8.531z"/>
	<path d="M71.473,3.169c0.234,0,0.434,0.07,0.598,0.211c0.199,0.176,0.299,0.416,0.299,0.721c0,0.246-0.076,0.451-0.229,0.615
		c-0.176,0.193-0.404,0.29-0.686,0.29c-0.27,0-0.489-0.085-0.659-0.255c-0.176-0.164-0.264-0.378-0.264-0.642
		c0-0.287,0.094-0.519,0.281-0.694C70.995,3.251,71.215,3.169,71.473,3.169z M70.787,6.799h1.327v8.534h-1.327V6.799z"/>
	<path d="M74.54,6.799h1.195c0.117,0.328,0.173,0.741,0.167,1.239c0.58-0.984,1.45-1.477,2.61-1.477
		c0.762,0,1.383,0.202,1.863,0.606c0.463,0.393,0.732,0.94,0.809,1.644c0.029,0.281,0.044,0.82,0.044,1.617v4.904h-1.257v-4.825
		c0-0.99-0.073-1.649-0.22-1.978c-0.264-0.563-0.762-0.844-1.494-0.844c-0.814,0-1.436,0.337-1.863,1.011
		c-0.275,0.439-0.413,1.063-0.413,1.872v4.764h-1.248V9.708c0-1.137-0.015-1.84-0.044-2.109C74.66,7.365,74.61,7.098,74.54,6.799z"
		/>
	<path d="M84.885,9.041h-1.257c0.082-0.727,0.34-1.292,0.773-1.696c0.563-0.521,1.371-0.782,2.426-0.782
		c0.896,0,1.608,0.205,2.136,0.615c0.422,0.328,0.668,0.841,0.738,1.538c0.029,0.275,0.044,0.668,0.044,1.178v3.199
		c-0.006,1.043,0.073,1.79,0.237,2.241h-1.204c-0.094-0.34-0.155-0.724-0.185-1.151c-0.498,0.92-1.333,1.38-2.505,1.38
		c-0.762,0-1.386-0.19-1.872-0.571c-0.586-0.451-0.879-1.081-0.879-1.89c0-1.219,0.662-2.074,1.986-2.566
		c0.732-0.275,1.796-0.527,3.19-0.756v-0.36c0-0.592-0.097-1.008-0.29-1.248c-0.287-0.357-0.768-0.536-1.441-0.536
		C85.693,7.634,85.061,8.103,84.885,9.041z M88.515,10.71c-1.236,0.223-2.133,0.463-2.689,0.721
		c-0.791,0.369-1.187,0.894-1.187,1.573c0,0.445,0.158,0.812,0.475,1.099c0.299,0.264,0.688,0.396,1.169,0.396
		c0.855,0,1.482-0.34,1.881-1.02c0.234-0.393,0.352-1.031,0.352-1.916V10.71z"/>
	<path d="M92.162,6.799h1.195c0.117,0.328,0.173,0.741,0.167,1.239c0.58-0.984,1.45-1.477,2.61-1.477
		c0.762,0,1.383,0.202,1.863,0.606c0.463,0.393,0.732,0.94,0.809,1.644c0.029,0.281,0.044,0.82,0.044,1.617v4.904h-1.257v-4.825
		c0-0.99-0.073-1.649-0.22-1.978c-0.264-0.563-0.762-0.844-1.494-0.844c-0.814,0-1.436,0.337-1.863,1.011
		c-0.275,0.439-0.413,1.063-0.413,1.872v4.764h-1.248V9.708c0-1.137-0.015-1.84-0.044-2.109C92.282,7.365,92.232,7.098,92.162,6.799
		z"/>
	<path d="M107.604,9.577h-1.248c-0.094-0.551-0.229-0.958-0.404-1.222c-0.305-0.475-0.785-0.712-1.441-0.712
		c-0.68,0-1.204,0.261-1.573,0.782c-0.475,0.674-0.712,1.559-0.712,2.654c0,1.318,0.322,2.291,0.967,2.918
		c0.334,0.322,0.785,0.483,1.354,0.483c1.107,0,1.731-0.694,1.872-2.083h1.257c-0.07,0.891-0.319,1.605-0.747,2.145
		c-0.539,0.68-1.336,1.02-2.391,1.02c-0.943,0-1.731-0.313-2.364-0.94c-0.832-0.826-1.248-2.004-1.248-3.533
		c0-1.582,0.437-2.801,1.31-3.656c0.598-0.58,1.368-0.87,2.312-0.87c1.131,0,1.972,0.425,2.522,1.274
		C107.361,8.288,107.54,8.868,107.604,9.577z"/>
	<path d="M110.505,3.169c0.234,0,0.434,0.07,0.598,0.211c0.199,0.176,0.299,0.416,0.299,0.721c0,0.246-0.076,0.451-0.229,0.615
		c-0.176,0.193-0.404,0.29-0.686,0.29c-0.27,0-0.489-0.085-0.659-0.255c-0.176-0.164-0.264-0.378-0.264-0.642
		c0-0.287,0.094-0.519,0.281-0.694C110.027,3.251,110.247,3.169,110.505,3.169z M109.819,6.799h1.327v8.534h-1.327V6.799z"/>
	<path d="M114.855,9.041h-1.257c0.082-0.727,0.34-1.292,0.773-1.696c0.563-0.521,1.371-0.782,2.426-0.782
		c0.896,0,1.608,0.205,2.136,0.615c0.422,0.328,0.668,0.841,0.738,1.538c0.029,0.275,0.044,0.668,0.044,1.178v3.199
		c-0.006,1.043,0.073,1.79,0.237,2.241h-1.204c-0.094-0.34-0.155-0.724-0.185-1.151c-0.498,0.92-1.333,1.38-2.505,1.38
		c-0.762,0-1.386-0.19-1.872-0.571c-0.586-0.451-0.879-1.081-0.879-1.89c0-1.219,0.662-2.074,1.986-2.566
		c0.732-0.275,1.796-0.527,3.19-0.756v-0.36c0-0.592-0.097-1.008-0.29-1.248c-0.287-0.357-0.768-0.536-1.441-0.536
		C115.664,7.634,115.031,8.103,114.855,9.041z M118.485,10.71c-1.236,0.223-2.133,0.463-2.689,0.721
		c-0.791,0.369-1.187,0.894-1.187,1.573c0,0.445,0.158,0.812,0.475,1.099c0.299,0.264,0.688,0.396,1.169,0.396
		c0.855,0,1.482-0.34,1.881-1.02c0.234-0.393,0.352-1.031,0.352-1.916V10.71z"/>
	<path d="M122.344,3.275h1.327v12.059h-1.327V3.275z"/>
	<path d="M137.997,6.439h-1.31c-0.053-0.598-0.234-1.069-0.545-1.415c-0.428-0.475-1.022-0.712-1.784-0.712
		c-0.592,0-1.084,0.149-1.477,0.448c-0.48,0.357-0.721,0.814-0.721,1.371c0,0.521,0.24,0.946,0.721,1.274
		c0.258,0.176,0.539,0.331,0.844,0.466l1.292,0.589c0.861,0.387,1.479,0.7,1.854,0.94c0.984,0.645,1.477,1.553,1.477,2.725
		c0,1.131-0.437,2.016-1.31,2.654c-0.691,0.51-1.562,0.765-2.61,0.765c-1.447,0-2.528-0.466-3.243-1.397
		c-0.457-0.592-0.715-1.415-0.773-2.47h1.318c0.053,0.779,0.258,1.38,0.615,1.802c0.492,0.586,1.204,0.879,2.136,0.879
		c0.715,0,1.307-0.193,1.775-0.58c0.469-0.381,0.703-0.879,0.703-1.494c0-0.58-0.24-1.072-0.721-1.477
		c-0.305-0.252-0.926-0.589-1.863-1.011c-1.23-0.551-2.051-0.984-2.461-1.301c-0.738-0.58-1.107-1.327-1.107-2.241
		c0-0.99,0.39-1.781,1.169-2.373c0.662-0.504,1.477-0.756,2.443-0.756c1.336,0,2.329,0.454,2.979,1.362
		C137.757,4.986,137.956,5.636,137.997,6.439z"/>
	<path d="M147.278,11.282h-5.827c0.029,0.92,0.202,1.638,0.519,2.153c0.434,0.697,1.081,1.046,1.942,1.046
		c0.645,0,1.157-0.202,1.538-0.606c0.141-0.152,0.29-0.384,0.448-0.694l1.178,0.141c-0.521,1.494-1.579,2.241-3.173,2.241
		c-1.037,0-1.896-0.34-2.575-1.02c-0.779-0.791-1.169-1.916-1.169-3.375c0-1.611,0.434-2.842,1.301-3.691
		c0.627-0.615,1.415-0.923,2.364-0.923c1.184,0,2.095,0.495,2.733,1.485c0.48,0.756,0.721,1.729,0.721,2.918
		C147.278,11.033,147.278,11.141,147.278,11.282z M145.969,10.289c-0.053-0.627-0.188-1.146-0.404-1.556
		c-0.387-0.744-0.981-1.116-1.784-1.116c-0.779,0-1.38,0.366-1.802,1.099c-0.234,0.398-0.398,0.923-0.492,1.573H145.969z"/>
	<path d="M149.291,6.799h1.195c0.111,0.434,0.167,0.867,0.167,1.301c0,0.111-0.009,0.29-0.026,0.536
		c0.58-1.383,1.315-2.074,2.206-2.074c0.322,0,0.668,0.091,1.037,0.272v1.257c-0.48-0.223-0.864-0.334-1.151-0.334
		c-0.697,0-1.245,0.439-1.644,1.318c-0.246,0.557-0.369,1.368-0.369,2.435v3.823h-1.274v-5.59c-0.006-0.967-0.012-1.553-0.018-1.758
		C149.396,7.599,149.355,7.204,149.291,6.799z"/>
	<path d="M154.775,6.799h1.318l2.382,7.163l2.382-7.163h1.301l-3.015,8.64h-1.345L154.775,6.799z"/>
	<path d="M164.364,3.169c0.234,0,0.434,0.07,0.598,0.211c0.199,0.176,0.299,0.416,0.299,0.721c0,0.246-0.076,0.451-0.229,0.615
		c-0.176,0.193-0.404,0.29-0.686,0.29c-0.27,0-0.489-0.085-0.659-0.255c-0.176-0.164-0.264-0.378-0.264-0.642
		c0-0.287,0.094-0.519,0.281-0.694C163.887,3.251,164.106,3.169,164.364,3.169z M163.679,6.799h1.327v8.534h-1.327V6.799z"/>
	<path d="M173.813,9.577h-1.248c-0.094-0.551-0.229-0.958-0.404-1.222c-0.305-0.475-0.785-0.712-1.441-0.712
		c-0.68,0-1.204,0.261-1.573,0.782c-0.475,0.674-0.712,1.559-0.712,2.654c0,1.318,0.322,2.291,0.967,2.918
		c0.334,0.322,0.785,0.483,1.354,0.483c1.107,0,1.731-0.694,1.872-2.083h1.257c-0.07,0.891-0.319,1.605-0.747,2.145
		c-0.539,0.68-1.336,1.02-2.391,1.02c-0.943,0-1.731-0.313-2.364-0.94c-0.832-0.826-1.248-2.004-1.248-3.533
		c0-1.582,0.437-2.801,1.31-3.656c0.598-0.58,1.368-0.87,2.312-0.87c1.131,0,1.972,0.425,2.522,1.274
		C173.569,8.288,173.748,8.868,173.813,9.577z"/>
	<path d="M182.628,11.282h-5.827c0.029,0.92,0.202,1.638,0.519,2.153c0.434,0.697,1.081,1.046,1.942,1.046
		c0.645,0,1.157-0.202,1.538-0.606c0.141-0.152,0.29-0.384,0.448-0.694l1.178,0.141c-0.521,1.494-1.579,2.241-3.173,2.241
		c-1.037,0-1.896-0.34-2.575-1.02c-0.779-0.791-1.169-1.916-1.169-3.375c0-1.611,0.434-2.842,1.301-3.691
		c0.627-0.615,1.415-0.923,2.364-0.923c1.184,0,2.095,0.495,2.733,1.485c0.48,0.756,0.721,1.729,0.721,2.918
		C182.628,11.033,182.628,11.141,182.628,11.282z M181.318,10.289c-0.053-0.627-0.188-1.146-0.404-1.556
		c-0.387-0.744-0.981-1.116-1.784-1.116c-0.779,0-1.38,0.366-1.802,1.099c-0.234,0.398-0.398,0.923-0.492,1.573H181.318z"/>
	<path d="M190.415,9.146h-1.222c-0.059-0.486-0.199-0.844-0.422-1.072c-0.299-0.305-0.738-0.457-1.318-0.457
		c-0.492,0-0.899,0.129-1.222,0.387c-0.275,0.223-0.413,0.521-0.413,0.896c0,0.346,0.129,0.615,0.387,0.809
		c0.24,0.176,0.771,0.387,1.591,0.633c0.85,0.252,1.427,0.466,1.731,0.642c0.686,0.398,1.028,1.034,1.028,1.907
		c0,0.773-0.255,1.4-0.765,1.881c-0.545,0.521-1.318,0.782-2.32,0.782c-0.979,0-1.752-0.226-2.32-0.677
		c-0.604-0.48-0.905-1.21-0.905-2.188h1.213c0.111,1.207,0.773,1.811,1.986,1.811c0.516,0,0.935-0.12,1.257-0.36
		c0.369-0.27,0.554-0.65,0.554-1.143c0-0.434-0.179-0.765-0.536-0.993c-0.211-0.129-0.847-0.357-1.907-0.686
		c-0.861-0.264-1.447-0.565-1.758-0.905c-0.346-0.381-0.519-0.858-0.519-1.433c0-0.773,0.299-1.377,0.896-1.811
		c0.551-0.404,1.228-0.606,2.03-0.606c0.674,0,1.26,0.141,1.758,0.422C189.964,7.4,190.362,8.121,190.415,9.146z"/>
</g>
</svg>
