<?xml version="1.0" encoding="UTF-8"?>
<!-- Generator: Adobe Illustrator 18.0.0, SVG Export Plug-In . SVG Version: 6.00 Build 0)  -->
<!DOCTYPE svg PUBLIC "-//W3C//DTD SVG 1.1//EN" "http://www.w3.org/Graphics/SVG/1.1/DTD/svg11.dtd">
<svg version="1.1" xmlns="http://www.w3.org/2000/svg" xmlns:xlink="http://www.w3.org/1999/xlink" x="0px" y="0px" width="400px" height="780px" viewBox="0 0 400 780" enable-background="new 0 0 400 780" xml:space="preserve">
<g id="Layer_2_1_" display="none">
	<rect x="-9" y="-11.2" display="inline" fill="#D38C8C" width="415" height="803"/>
</g>
<g id="Ebene_1">
	<g id="Layer_2" display="none">
		<rect x="-23.5" y="-16.5" display="inline" fill="#F7BD8D" stroke="#000000" stroke-miterlimit="10" width="439" height="811"/>
	</g>
	<g>
		<line fill="none" stroke="#00677F" stroke-width="2" stroke-miterlimit="10" x1="399.2" y1="730.7" x2="383.3" y2="746.6"/>
		<line fill="none" stroke="#00677F" stroke-width="2" stroke-miterlimit="10" x1="399.2" y1="732.2" x2="383.3" y2="716.3"/>
	</g>
	<g>
		<line fill="none" stroke="#00677F" stroke-width="2.8" stroke-miterlimit="10" x1="299.1" y1="736.5" x2="277.3" y2="758.3"/>
		<line fill="none" stroke="#00677F" stroke-width="2.8" stroke-miterlimit="10" x1="299.1" y1="737.9" x2="277.3" y2="716.2"/>
	</g>
	<g>
		<line fill="none" stroke="#00677F" stroke-width="2.8" stroke-miterlimit="10" x1="199.1" y1="736.5" x2="177.3" y2="758.3"/>
		<line fill="none" stroke="#00677F" stroke-width="2.8" stroke-miterlimit="10" x1="199.1" y1="737.9" x2="177.3" y2="716.2"/>
	</g>
	<g>
		<line fill="none" stroke="#00677F" stroke-width="3" stroke-miterlimit="10" x1="98.9" y1="746" x2="67" y2="777.9"/>
		<line fill="none" stroke="#00677F" stroke-width="3" stroke-miterlimit="10" x1="98.9" y1="748.1" x2="67" y2="716.2"/>
	</g>
	<line fill="none" stroke="#FFFFFF" stroke-width="2.8" stroke-miterlimit="10" x1="299.1" y1="21.5" x2="277.3" y2="43.3"/>
	<line fill="none" stroke="#FFFFFF" stroke-width="2.8" stroke-miterlimit="10" x1="299.1" y1="22.9" x2="277.3" y2="1.2"/>
	<g>
		<line fill="none" stroke="#FFFFFF" stroke-width="2.8" stroke-miterlimit="10" x1="199.1" y1="21.5" x2="177.3" y2="43.3"/>
		<line fill="none" stroke="#FFFFFF" stroke-width="2.8" stroke-miterlimit="10" x1="199.1" y1="22.9" x2="177.3" y2="1.2"/>
	</g>
	<g>
		<line fill="none" stroke="#FFFFFF" stroke-width="3" stroke-miterlimit="10" x1="98.9" y1="31" x2="67" y2="62.9"/>
		<line fill="none" stroke="#FFFFFF" stroke-width="3" stroke-miterlimit="10" x1="98.9" y1="33.1" x2="67" y2="1.2"/>
	</g>
	<line fill="none" stroke="#FFFFFF" stroke-width="2" stroke-miterlimit="10" x1="398.2" y1="135.3" x2="382.6" y2="151"/>
	<line fill="none" stroke="#FFFFFF" stroke-width="2" stroke-miterlimit="10" x1="398.2" y1="136.8" x2="382.6" y2="121.2"/>
	<line fill="none" stroke="#FFFFFF" stroke-width="2" stroke-miterlimit="10" x1="398.2" y1="255.3" x2="382.6" y2="271"/>
	<line fill="none" stroke="#FFFFFF" stroke-width="2" stroke-miterlimit="10" x1="398.2" y1="256.8" x2="382.6" y2="241.2"/>
	<g>
		<line fill="none" stroke="#FFFFFF" stroke-width="2" stroke-miterlimit="10" x1="299.1" y1="257" x2="281.9" y2="274.2"/>
		<line fill="none" stroke="#FFFFFF" stroke-width="2" stroke-miterlimit="10" x1="299" y1="258.3" x2="281.9" y2="241.2"/>
	</g>
	<g>
		<line fill="none" stroke="#FFFFFF" stroke-width="3" stroke-miterlimit="10" x1="299.4" y1="377.6" x2="281.3" y2="395.6"/>
		<line fill="none" stroke="#FFFFFF" stroke-width="3" stroke-miterlimit="10" x1="299.4" y1="379.6" x2="281.3" y2="361.5"/>
	</g>
	<g>
		<line fill="none" stroke="#FFFFFF" stroke-width="3" stroke-miterlimit="10" x1="198.4" y1="375.3" x2="182.6" y2="391.1"/>
		<line fill="none" stroke="#FFFFFF" stroke-width="3" stroke-miterlimit="10" x1="198.4" y1="377.4" x2="182.6" y2="361.5"/>
	</g>
	<g>
		<line fill="none" stroke="#FFFFFF" stroke-width="3" stroke-miterlimit="10" x1="199.2" y1="497.7" x2="181.7" y2="515.2"/>
		<line fill="none" stroke="#FFFFFF" stroke-width="3" stroke-miterlimit="10" x1="199.2" y1="499.3" x2="181.7" y2="481.8"/>
	</g>
	<g>
		<line fill="none" stroke="#FFFFFF" stroke-width="3" stroke-miterlimit="10" x1="298.8" y1="493.4" x2="284.5" y2="507.7"/>
		<line fill="none" stroke="#FFFFFF" stroke-width="3" stroke-miterlimit="10" x1="298.8" y1="495.6" x2="284.5" y2="481.3"/>
	</g>
	<g>
		<line fill="none" stroke="#FFFFFF" stroke-width="1.8" stroke-miterlimit="10" x1="399.2" y1="367.4" x2="391.5" y2="375"/>
		<line fill="none" stroke="#FFFFFF" stroke-width="1.8" stroke-miterlimit="10" x1="399.2" y1="368.7" x2="391.5" y2="361"/>
	</g>
	<g>
		<line fill="none" stroke="#FFFFFF" stroke-width="1.8" stroke-miterlimit="10" x1="399.2" y1="487.4" x2="391.5" y2="495"/>
		<line fill="none" stroke="#FFFFFF" stroke-width="1.8" stroke-miterlimit="10" x1="399.2" y1="488.7" x2="391.5" y2="481"/>
	</g>
	<polygon fill="#FFFFFF" points="91.6,601 90.4,602.2 97.4,609.3 90.4,616.4 91.6,617.6 100,609.3  "/>
	<g>
		<line fill="none" stroke="#FFFFFF" stroke-width="1.8" stroke-miterlimit="10" x1="212.1" y1="587.5" x2="200.8" y2="598.8"/>
		<line fill="none" stroke="#FFFFFF" stroke-width="1.8" stroke-miterlimit="10" x1="212.1" y1="588.5" x2="200.8" y2="577.2"/>
	</g>
	<g>
		<line fill="none" stroke="#FFFFFF" stroke-width="3" stroke-miterlimit="10" x1="99.1" y1="381.2" x2="77.3" y2="403"/>
		<line fill="none" stroke="#FFFFFF" stroke-width="3" stroke-miterlimit="10" x1="99.1" y1="383.3" x2="77.3" y2="361.5"/>
	</g>
	<g>
		<line fill="none" stroke="#FFFFFF" stroke-width="3" stroke-miterlimit="10" x1="99.1" y1="501.2" x2="77.3" y2="523"/>
		<line fill="none" stroke="#FFFFFF" stroke-width="3" stroke-miterlimit="10" x1="99.1" y1="503.3" x2="77.3" y2="481.5"/>
	</g>
	<line fill="none" stroke="#FFFFFF" stroke-width="2.5" stroke-miterlimit="10" x1="23" y1="577.4" x2="1.3" y2="599"/>
	<line fill="none" stroke="#FFFFFF" stroke-width="2.5" stroke-miterlimit="10" x1="23" y1="579.1" x2="1.3" y2="557.5"/>
	<g>
		<line fill="none" stroke="#FFFFFF" stroke-width="3" stroke-miterlimit="10" x1="123.1" y1="577.2" x2="101.3" y2="599"/>
		<line fill="none" stroke="#FFFFFF" stroke-width="3" stroke-miterlimit="10" x1="123.1" y1="579.3" x2="101.3" y2="557.5"/>
	</g>
	<g>
		<line fill="none" stroke="#FFFFFF" stroke-width="3" stroke-miterlimit="10" x1="122.1" y1="457.2" x2="100.3" y2="479"/>
		<line fill="none" stroke="#FFFFFF" stroke-width="3" stroke-miterlimit="10" x1="122.1" y1="459.3" x2="100.3" y2="437.5"/>
	</g>
	<g>
		<line fill="none" stroke="#FFFFFF" stroke-width="3" stroke-miterlimit="10" x1="223.1" y1="457.2" x2="201.3" y2="479"/>
		<line fill="none" stroke="#FFFFFF" stroke-width="3" stroke-miterlimit="10" x1="223.1" y1="459.3" x2="201.3" y2="437.5"/>
	</g>
	<g>
		<line fill="none" stroke="#FFFFFF" stroke-width="2" stroke-miterlimit="10" x1="398.2" y1="15.3" x2="382.6" y2="31"/>
		<line fill="none" stroke="#FFFFFF" stroke-width="2" stroke-miterlimit="10" x1="398.2" y1="16.8" x2="382.6" y2="1.2"/>
	</g>
	<line fill="none" stroke="#FFFFFF" stroke-width="2.8" stroke-miterlimit="10" x1="299.1" y1="141.5" x2="277.3" y2="163.3"/>
	<line fill="none" stroke="#FFFFFF" stroke-width="2.8" stroke-miterlimit="10" x1="299.1" y1="142.9" x2="277.3" y2="121.2"/>
	<line fill="none" stroke="#FFFFFF" stroke-width="2.8" stroke-miterlimit="10" x1="223.4" y1="337.2" x2="201.3" y2="359.3"/>
	<line fill="none" stroke="#FFFFFF" stroke-width="2.8" stroke-miterlimit="10" x1="223.3" y1="339.2" x2="201.3" y2="317.2"/>
	<line fill="none" stroke="#FFFFFF" stroke-width="4" stroke-miterlimit="10" x1="326.8" y1="333.8" x2="301.3" y2="359.3"/>
	<line fill="none" stroke="#FFFFFF" stroke-width="4" stroke-miterlimit="10" x1="326.8" y1="336.6" x2="301.3" y2="311.2"/>
	<g>
		<line fill="none" stroke="#FFFFFF" stroke-width="4" stroke-miterlimit="10" x1="136.9" y1="320.8" x2="99.3" y2="358.3"/>
		<line fill="none" stroke="#FFFFFF" stroke-width="4" stroke-miterlimit="10" x1="136.8" y1="323.5" x2="99.3" y2="286"/>
	</g>
	<g>
		<line fill="none" stroke="#FFFFFF" stroke-width="4" stroke-miterlimit="10" x1="38.9" y1="440.8" x2="1.3" y2="478.3"/>
		<line fill="none" stroke="#FFFFFF" stroke-width="4" stroke-miterlimit="10" x1="38.9" y1="443.6" x2="1.3" y2="406"/>
	</g>
	<g>
		<line fill="none" stroke="#FFFFFF" stroke-width="4" stroke-miterlimit="10" x1="54.8" y1="305.6" x2="2" y2="358.3"/>
		<line fill="none" stroke="#FFFFFF" stroke-width="4" stroke-miterlimit="10" x1="54.9" y1="308.3" x2="2" y2="255.4"/>
	</g>
	<g>
		<line fill="none" stroke="#FFFFFF" stroke-width="2.8" stroke-miterlimit="10" x1="199.1" y1="141.5" x2="177.3" y2="163.3"/>
		<line fill="none" stroke="#FFFFFF" stroke-width="2.8" stroke-miterlimit="10" x1="199.1" y1="142.9" x2="177.3" y2="121.2"/>
	</g>
	<g>
		<line fill="none" stroke="#FFFFFF" stroke-width="2.8" stroke-miterlimit="10" x1="199.4" y1="261.2" x2="177.3" y2="283.3"/>
		<line fill="none" stroke="#FFFFFF" stroke-width="2.8" stroke-miterlimit="10" x1="199.4" y1="263.2" x2="177.3" y2="241.2"/>
	</g>
	<line fill="none" stroke="#FFFFFF" stroke-width="2.8" stroke-miterlimit="10" x1="99.4" y1="261.2" x2="77.3" y2="283.3"/>
	<line fill="none" stroke="#FFFFFF" stroke-width="2.8" stroke-miterlimit="10" x1="99.3" y1="263.2" x2="77.3" y2="241.2"/>
	<line fill="none" stroke="#FFFFFF" stroke-width="2.8" stroke-miterlimit="10" x1="99.1" y1="141.5" x2="77.3" y2="163.3"/>
	<line fill="none" stroke="#FFFFFF" stroke-width="2.8" stroke-miterlimit="10" x1="99.1" y1="142.9" x2="77.3" y2="121.2"/>
	<g>
		<line fill="none" stroke="#00677F" stroke-width="2" stroke-miterlimit="10" x1="380" y1="15.3" x2="364.4" y2="31"/>
		<line fill="none" stroke="#00677F" stroke-width="2" stroke-miterlimit="10" x1="380" y1="16.8" x2="364.4" y2="1.2"/>
	</g>
	<g>
		<line fill="none" stroke="#000000" stroke-width="2" stroke-miterlimit="10" x1="361" y1="15.3" x2="345.3" y2="31"/>
		<line fill="none" stroke="#000000" stroke-width="2" stroke-miterlimit="10" x1="361" y1="16.8" x2="345.3" y2="1.2"/>
	</g>
	<g>
		<line fill="none" stroke="#00677F" stroke-width="2.8" stroke-miterlimit="10" x1="175.8" y1="22.2" x2="154" y2="44"/>
		<line fill="none" stroke="#00677F" stroke-width="2.8" stroke-miterlimit="10" x1="175.7" y1="23.6" x2="154" y2="1.9"/>
	</g>
	<g>
		<line fill="none" stroke="#000000" stroke-width="2.8" stroke-miterlimit="10" x1="149" y1="21.5" x2="127.3" y2="43.3"/>
		<line fill="none" stroke="#000000" stroke-width="2.8" stroke-miterlimit="10" x1="149" y1="22.9" x2="127.3" y2="1.2"/>
	</g>
	<g>
		<line fill="none" stroke="#00677F" stroke-width="2.8" stroke-miterlimit="10" x1="174.3" y1="141.5" x2="152.5" y2="163.3"/>
		<line fill="none" stroke="#00677F" stroke-width="2.8" stroke-miterlimit="10" x1="174.3" y1="142.9" x2="152.5" y2="121.2"/>
	</g>
	<g>
		<line fill="none" stroke="#000000" stroke-width="2.8" stroke-miterlimit="10" x1="149" y1="141.5" x2="127.2" y2="163.3"/>
		<line fill="none" stroke="#000000" stroke-width="2.8" stroke-miterlimit="10" x1="149" y1="142.9" x2="127.2" y2="121.2"/>
	</g>
	<g>
		<line fill="none" stroke="#00677F" stroke-width="2" stroke-miterlimit="10" x1="278.5" y1="257" x2="261.3" y2="274.2"/>
		<line fill="none" stroke="#00677F" stroke-width="2" stroke-miterlimit="10" x1="278.5" y1="258.3" x2="261.3" y2="241.2"/>
	</g>
	<g>
		<line fill="none" stroke="#000000" stroke-width="2" stroke-miterlimit="10" x1="257.5" y1="257" x2="240.3" y2="274.2"/>
		<line fill="none" stroke="#000000" stroke-width="2" stroke-miterlimit="10" x1="257.5" y1="258.3" x2="240.3" y2="241.2"/>
	</g>
	<g>
		<line fill="none" stroke="#00677F" stroke-width="2.8" stroke-miterlimit="10" x1="174.4" y1="261.2" x2="152.3" y2="283.3"/>
		<line fill="none" stroke="#00677F" stroke-width="2.8" stroke-miterlimit="10" x1="174.4" y1="263.2" x2="152.3" y2="241.2"/>
	</g>
	<g>
		<line fill="none" stroke="#000000" stroke-width="2.8" stroke-miterlimit="10" x1="149.4" y1="261.2" x2="127.4" y2="283.3"/>
		<line fill="none" stroke="#000000" stroke-width="2.8" stroke-miterlimit="10" x1="149.4" y1="263.2" x2="127.4" y2="241.2"/>
	</g>
	<g>
		<line fill="none" stroke="#00677F" stroke-width="4" stroke-miterlimit="10" x1="54.8" y1="185.1" x2="2" y2="237.8"/>
		<line fill="none" stroke="#00677F" stroke-width="4" stroke-miterlimit="10" x1="54.9" y1="187.8" x2="2" y2="134.9"/>
	</g>
	<g>
		<line fill="none" stroke="#000000" stroke-width="4" stroke-miterlimit="10" x1="54.8" y1="66" x2="2" y2="118.8"/>
		<line fill="none" stroke="#000000" stroke-width="4" stroke-miterlimit="10" x1="54.9" y1="68.8" x2="2" y2="15.8"/>
	</g>
	<g>
		<line fill="none" stroke="#00677F" stroke-width="4" stroke-miterlimit="10" x1="177.9" y1="320.8" x2="140.3" y2="358.3"/>
		<line fill="none" stroke="#00677F" stroke-width="4" stroke-miterlimit="10" x1="177.8" y1="323.5" x2="140.3" y2="286"/>
	</g>
	<g>
		<line fill="none" stroke="#00677F" stroke-width="1.8" stroke-miterlimit="10" x1="387" y1="367.4" x2="379.4" y2="375"/>
		<line fill="none" stroke="#00677F" stroke-width="1.8" stroke-miterlimit="10" x1="387" y1="368.7" x2="379.4" y2="361"/>
	</g>
	<g>
		<line fill="none" stroke="#000000" stroke-width="1.8" stroke-miterlimit="10" x1="375.4" y1="367.4" x2="367.7" y2="375"/>
		<line fill="none" stroke="#000000" stroke-width="1.8" stroke-miterlimit="10" x1="375.4" y1="368.7" x2="367.7" y2="361"/>
	</g>
	<g>
		<line fill="none" stroke="#00677F" stroke-width="3" stroke-miterlimit="10" x1="73.6" y1="381.2" x2="51.8" y2="403"/>
		<line fill="none" stroke="#00677F" stroke-width="3" stroke-miterlimit="10" x1="73.6" y1="383.3" x2="51.8" y2="361.5"/>
	</g>
	<g>
		<line fill="none" stroke="#000000" stroke-width="3" stroke-miterlimit="10" x1="49.8" y1="381.2" x2="28" y2="403"/>
		<line fill="none" stroke="#000000" stroke-width="3" stroke-miterlimit="10" x1="49.8" y1="383.3" x2="28" y2="361.5"/>
	</g>
	<g>
		<line fill="none" stroke="#00677F" stroke-width="3" stroke-miterlimit="10" x1="177.6" y1="375.3" x2="161.7" y2="391.1"/>
		<line fill="none" stroke="#00677F" stroke-width="3" stroke-miterlimit="10" x1="177.6" y1="377.4" x2="161.7" y2="361.5"/>
	</g>
	<g>
		<line fill="none" stroke="#000000" stroke-width="3" stroke-miterlimit="10" x1="156.3" y1="375.3" x2="140.4" y2="391.1"/>
		<line fill="none" stroke="#000000" stroke-width="3" stroke-miterlimit="10" x1="156.3" y1="377.4" x2="140.4" y2="361.5"/>
	</g>
	<g>
		<line fill="none" stroke="#00677F" stroke-width="3" stroke-miterlimit="10" x1="275.5" y1="377.6" x2="257.5" y2="395.6"/>
		<line fill="none" stroke="#00677F" stroke-width="3" stroke-miterlimit="10" x1="275.6" y1="379.6" x2="257.5" y2="361.5"/>
	</g>
	<g>
		<line fill="none" stroke="#000000" stroke-width="3" stroke-miterlimit="10" x1="253.3" y1="377.6" x2="235.2" y2="395.6"/>
		<line fill="none" stroke="#000000" stroke-width="3" stroke-miterlimit="10" x1="253.3" y1="379.6" x2="235.2" y2="361.5"/>
	</g>
	<g>
		<line fill="none" stroke="#000000" stroke-width="4" stroke-miterlimit="10" x1="78.9" y1="440.8" x2="41.3" y2="478.3"/>
		<line fill="none" stroke="#000000" stroke-width="4" stroke-miterlimit="10" x1="78.9" y1="443.6" x2="41.3" y2="406"/>
	</g>
	<g>
		<line fill="none" stroke="#00677F" stroke-width="3" stroke-miterlimit="10" x1="148.9" y1="457.2" x2="127.1" y2="479"/>
		<line fill="none" stroke="#00677F" stroke-width="3" stroke-miterlimit="10" x1="148.9" y1="459.3" x2="127.1" y2="437.5"/>
	</g>
	<g>
		<line fill="none" stroke="#000000" stroke-width="3" stroke-miterlimit="10" x1="175.1" y1="457.2" x2="153.3" y2="479"/>
		<line fill="none" stroke="#000000" stroke-width="3" stroke-miterlimit="10" x1="175.1" y1="459.3" x2="153.3" y2="437.5"/>
	</g>
	<g>
		<line fill="none" stroke="#FFFFFF" stroke-width="3" stroke-miterlimit="10" x1="67.4" y1="523" x2="45.7" y2="501.2"/>
		<line fill="none" stroke="#FFFFFF" stroke-width="3" stroke-miterlimit="10" x1="67.4" y1="481.5" x2="45.7" y2="503.3"/>
	</g>
	<g>
		<line fill="none" stroke="#00677F" stroke-width="3" stroke-miterlimit="10" x1="279.2" y1="493.4" x2="264.9" y2="507.7"/>
		<line fill="none" stroke="#00677F" stroke-width="3" stroke-miterlimit="10" x1="279.1" y1="495.6" x2="264.9" y2="481.3"/>
	</g>
	<g>
		<line fill="none" stroke="#000000" stroke-width="3" stroke-miterlimit="10" x1="258.5" y1="493.4" x2="244.2" y2="507.7"/>
		<line fill="none" stroke="#000000" stroke-width="3" stroke-miterlimit="10" x1="258.4" y1="495.6" x2="244.2" y2="481.3"/>
	</g>
	<g>
		<line fill="none" stroke="#00677F" stroke-width="3" stroke-miterlimit="10" x1="149.2" y1="577.2" x2="127.5" y2="599"/>
		<line fill="none" stroke="#00677F" stroke-width="3" stroke-miterlimit="10" x1="149.2" y1="579.3" x2="127.5" y2="557.5"/>
	</g>
	<g>
		<line fill="none" stroke="#000000" stroke-width="3" stroke-miterlimit="10" x1="175.3" y1="577.2" x2="153.5" y2="599"/>
		<line fill="none" stroke="#000000" stroke-width="3" stroke-miterlimit="10" x1="175.3" y1="579.3" x2="153.5" y2="557.5"/>
	</g>
	<g>
		<line fill="none" stroke="#00677F" stroke-width="1.8" stroke-miterlimit="10" x1="226.8" y1="587.5" x2="215.5" y2="598.8"/>
		<line fill="none" stroke="#00677F" stroke-width="1.8" stroke-miterlimit="10" x1="226.8" y1="588.5" x2="215.5" y2="577.2"/>
	</g>
	<g>
		<line fill="none" stroke="#000000" stroke-width="1.8" stroke-miterlimit="10" x1="242.3" y1="587.5" x2="231" y2="598.8"/>
		<line fill="none" stroke="#000000" stroke-width="1.8" stroke-miterlimit="10" x1="242.3" y1="588.5" x2="231" y2="577.2"/>
	</g>
	<g>
		<line fill="none" stroke="#FFFFFF" stroke-width="1.8" stroke-miterlimit="10" x1="199.1" y1="598.8" x2="187.8" y2="587.5"/>
		<line fill="none" stroke="#FFFFFF" stroke-width="1.8" stroke-miterlimit="10" x1="199.1" y1="577.2" x2="187.8" y2="588.5"/>
	</g>
	<g>
		<line fill="none" stroke="#00677F" stroke-width="1.8" stroke-miterlimit="10" x1="122.2" y1="608.9" x2="114" y2="617"/>
		<line fill="none" stroke="#00677F" stroke-width="1.8" stroke-miterlimit="10" x1="122.2" y1="609.7" x2="114" y2="601.6"/>
	</g>
	<g>
		<line fill="none" stroke="#000000" stroke-width="1.8" stroke-miterlimit="10" x1="145.2" y1="608.9" x2="137.1" y2="617"/>
		<line fill="none" stroke="#000000" stroke-width="1.8" stroke-miterlimit="10" x1="145.2" y1="609.7" x2="137.1" y2="601.6"/>
	</g>
	<g>
		<line fill="none" stroke="#00677F" stroke-width="1.8" stroke-miterlimit="10" x1="168.3" y1="608.9" x2="160.2" y2="617"/>
		<line fill="none" stroke="#00677F" stroke-width="1.8" stroke-miterlimit="10" x1="168.3" y1="609.7" x2="160.2" y2="601.6"/>
	</g>
	<g>
		<line fill="none" stroke="#000000" stroke-width="1.8" stroke-miterlimit="10" x1="192.9" y1="608.9" x2="184.8" y2="617"/>
		<line fill="none" stroke="#000000" stroke-width="1.8" stroke-miterlimit="10" x1="192.9" y1="609.7" x2="184.8" y2="601.6"/>
	</g>
	<g>
		<line fill="none" stroke="#00677F" stroke-width="1.8" stroke-miterlimit="10" x1="168.3" y1="628.9" x2="160.2" y2="637"/>
		<line fill="none" stroke="#00677F" stroke-width="1.8" stroke-miterlimit="10" x1="168.3" y1="629.7" x2="160.2" y2="621.6"/>
	</g>
	<g>
		<line fill="none" stroke="#000000" stroke-width="2" stroke-miterlimit="10" x1="378.7" y1="730.7" x2="362.8" y2="746.6"/>
		<line fill="none" stroke="#000000" stroke-width="2" stroke-miterlimit="10" x1="378.7" y1="732.2" x2="362.8" y2="716.3"/>
	</g>
	<g>
		<line fill="none" stroke="#000000" stroke-width="2.8" stroke-miterlimit="10" x1="271.9" y1="736.5" x2="250.1" y2="758.3"/>
		<line fill="none" stroke="#000000" stroke-width="2.8" stroke-miterlimit="10" x1="271.8" y1="737.9" x2="250.1" y2="716.2"/>
	</g>
	<g>
		<line fill="none" stroke="#000000" stroke-width="2.8" stroke-miterlimit="10" x1="172.1" y1="736.5" x2="150.3" y2="758.3"/>
		<line fill="none" stroke="#000000" stroke-width="2.8" stroke-miterlimit="10" x1="172.1" y1="737.9" x2="150.3" y2="716.2"/>
	</g>
	<g>
		<line fill="none" stroke="#000000" stroke-width="3" stroke-miterlimit="10" x1="60.9" y1="746" x2="29" y2="777.9"/>
		<line fill="none" stroke="#000000" stroke-width="3" stroke-miterlimit="10" x1="60.8" y1="748.1" x2="29" y2="716.2"/>
	</g>
	<g>
		<line fill="none" stroke="#00677F" stroke-width="1.8" stroke-miterlimit="10" x1="122.2" y1="628.9" x2="114" y2="637"/>
		<line fill="none" stroke="#00677F" stroke-width="1.8" stroke-miterlimit="10" x1="122.2" y1="629.7" x2="114" y2="621.6"/>
	</g>
	<g>
		<line fill="none" stroke="#000000" stroke-width="1.8" stroke-miterlimit="10" x1="145.2" y1="628.9" x2="137.1" y2="637"/>
		<line fill="none" stroke="#000000" stroke-width="1.8" stroke-miterlimit="10" x1="145.2" y1="629.7" x2="137.1" y2="621.6"/>
	</g>
	<g>
		<line fill="none" stroke="#00677F" stroke-width="3" stroke-miterlimit="10" x1="176" y1="497.7" x2="158.5" y2="515.2"/>
		<line fill="none" stroke="#00677F" stroke-width="3" stroke-miterlimit="10" x1="176" y1="499.3" x2="158.5" y2="481.8"/>
	</g>
	<g>
		<line fill="none" stroke="#000000" stroke-width="3" stroke-miterlimit="10" x1="153" y1="497.7" x2="135.5" y2="515.2"/>
		<line fill="none" stroke="#000000" stroke-width="3" stroke-miterlimit="10" x1="153" y1="499.3" x2="135.5" y2="481.8"/>
	</g>
	<polygon fill="#FFFFFF" points="91.6,621 90.4,622.2 97.4,629.3 90.4,636.4 91.6,637.6 100,629.3  "/>
	<polygon fill="#C8C8C8" points="73.3,601 72.1,602.2 79.1,609.3 72.1,616.4 73.3,617.6 81.7,609.3  "/>
	<polygon fill="#C8C8C8" points="73.3,621 72.1,622.2 79.1,629.3 72.1,636.4 73.3,637.6 81.7,629.3  "/>
	<polygon fill="#007A93" points="55.4,601 54.1,602.2 61.2,609.3 54.1,616.4 55.4,617.6 63.7,609.3  "/>
	<polygon fill="#007A93" points="55.4,621 54.1,622.2 61.2,629.3 54.1,636.4 55.4,637.6 63.7,629.3  "/>
</g>
</svg>