<?xml version="1.0" encoding="UTF-8"?>
<!-- Generator: Adobe Illustrator 19.1.0, SVG Export Plug-In . SVG Version: 6.00 Build 0)  -->
<svg version="1.1" id="Ebene_1" xmlns="http://www.w3.org/2000/svg" xmlns:xlink="http://www.w3.org/1999/xlink" x="0px" y="0px" width="400px" height="400px" viewBox="190 -188 400 400" style="enable-background:new 190 -188 400 400;" xml:space="preserve">
<style type="text/css">
	.st0{display:none;}
	.st1{display:inline;fill:#9B9B9B;stroke:#000000;stroke-miterlimit:10;}
	.st2{display:inline;opacity:0.2;fill:#3683AB;enable-background:new    ;}
	.st3{display:inline;fill:#FFFFFF;}
	.st4{display:inline;fill:#003340;}
	.st5{display:inline;fill:#D14845;}
	.st6{display:inline;opacity:0.9;fill:#DFE0E2;enable-background:new    ;}
	.st7{display:inline;}
	.st8{fill:#FFFFFF;}
	.st9{display:inline;fill:#3683AB;}
	.st10{display:inline;fill:none;stroke:#FFFFFF;stroke-width:2;stroke-miterlimit:10;}
	.st11{display:inline;fill:#00677F;}
	.st12{fill:#00677F;}
	.st13{fill:#A2AE16;}
	.st14{display:inline;opacity:0.3;}
	.st15{display:inline;opacity:0.3;enable-background:new    ;}
	.st16{fill:#D81F2A;}
	.st17{display:inline;fill:#E3B949;}
	.st18{display:inline;fill:#265C79;}
	.st19{display:inline;opacity:0.7;}
	.st20{opacity:0.7;fill:#3A99CC;enable-background:new    ;}
	.st21{fill:#3A99CC;}
	.st22{opacity:0.7;fill:#FFFFFF;enable-background:new    ;}
	.st23{fill:#7B7C7B;}
	.st24{display:inline;fill:#7B7C7B;}
	.st25{opacity:0.2;fill:#265C79;enable-background:new    ;}
	.st26{opacity:0.9;fill:#DFE0E2;enable-background:new    ;}
	.st27{fill:none;stroke:#FFFFFF;stroke-width:2;stroke-miterlimit:10;}
	.st28{fill:#D14845;}
	.st29{fill:#852E2C;}
	.st30{fill:#265C79;}
	.st31{opacity:0.7;}
	.st32{opacity:0.7;enable-background:new    ;}
	.st33{opacity:0.5;fill:#FFFFFF;enable-background:new    ;}
	.st34{opacity:0.2;fill:#00677F;enable-background:new    ;}
	.st35{fill:#707070;}
	.st36{fill:#FF0000;}
	.st37{fill:#006780;}
	.st38{fill:#003340;}
</style>
<g id="BCK" class="st0">
	<rect x="186.7" y="-192.2" class="st1" width="403.3" height="407.3"/>
</g>
<g id="alt_2014" class="st0">
	<path id="magnifier-icon" class="st2" d="M299.7-86.9l26.3-26.2c6,3.6,15.6,6.5,23.1,6.5c22.2,0,40.3-18.2,40.1-40.4   c-0.2-21.8-18-39.6-39.8-39.8c-22.3-0.1-40.4,17.9-40.4,40.2c0,7.9,2.3,17,6.2,23.2l-26,26L299.7-86.9z M350-118.1   c-16.5,0.5-30.1-13-29.5-29.5c0.5-15,12.6-27.1,27.6-27.6c16.5-0.5,30.1,13,29.5,29.5C377.2-130.7,365-118.5,350-118.1z"/>
	<path id="magnifier-icon_2_" class="st2" d="M295.9-11.1l19.7-19.7c4.5,2.7,11.7,4.9,17.3,4.9c16.7,0,30.2-13.6,30.1-30.3   c-0.1-16.4-13.5-29.7-29.8-29.8c-16.7-0.1-30.3,13.4-30.3,30.1c0,5.9,1.7,12.7,4.7,17.4L288-19L295.9-11.1z M333.6-34.5   c-12.4,0.4-22.6-9.8-22.1-22.1c0.4-11.2,9.5-20.4,20.7-20.7c12.4-0.4,22.6,9.8,22.1,22.1C354-44,344.9-34.9,333.6-34.5z"/>
	<path id="magnifier-icon_1_" class="st2" d="M396.3-136.8l13.1-13.1c3,1.8,7.8,3.3,11.6,3.3c11.1,0,20.1-9.1,20-20.2   c-0.1-10.9-9-19.8-19.9-19.9c-11.1-0.1-20.2,8.9-20.2,20c0,3.9,1.1,8.5,3.1,11.6l-13,13L396.3-136.8z M421.4-152.4   c-8.3,0.3-15-6.5-14.8-14.8c0.2-7.5,6.3-13.6,13.8-13.8c8.3-0.3,15,6.5,14.8,14.8C435-158.7,428.9-152.6,421.4-152.4z"/>
	<path id="magnifier-icon_6_" class="st3" d="M519-167.1l-5.7-5.7c0.9-1.4,1.4-3.4,1.4-5.1c0-4.9-4-8.9-8.9-8.8   c-4.8,0-8.7,4-8.8,8.8c0,4.9,3.9,8.9,8.8,8.9c1.6,0,3.8-0.6,5.1-1.4l5.8,5.8L519-167.1z M499.5-177.7c-0.1-3.6,2.9-6.6,6.5-6.5   c3.3,0.1,6,2.8,6.1,6.1c0.1,3.6-2.9,6.6-6.5,6.5C502.3-171.7,499.6-174.4,499.5-177.7z"/>
	<path id="magnifier-icon_12_" class="st4" d="M494-167.1l-5.7-5.7c0.9-1.4,1.4-3.4,1.4-5.1c0-4.9-4-8.9-8.9-8.8   c-4.8,0-8.7,4-8.8,8.8c0,4.9,3.9,8.9,8.8,8.9c1.6,0,3.8-0.6,5.1-1.4l5.8,5.8L494-167.1z M474.5-177.7c-0.1-3.6,2.9-6.6,6.5-6.5   c3.3,0.1,6,2.8,6.1,6.1c0.1,3.6-2.9,6.6-6.5,6.5C477.3-171.7,474.6-174.4,474.5-177.7z"/>
	<path id="magnifier-icon_8_" class="st3" d="M514-146.8l-4.4-4.4c0.7-1.1,1.1-2.6,1.1-3.9c0-3.8-3.1-6.8-6.9-6.8   c-3.7,0-6.7,3.1-6.8,6.8c0,3.8,3,6.9,6.8,6.9c1.3,0,2.9-0.5,3.9-1.1l4.5,4.5L514-146.8z M499-155c-0.1-2.8,2.2-5.1,5-5   c2.5,0.1,4.6,2.2,4.7,4.7c0.1,2.8-2.2,5.1-5,5C501.1-150.4,499-152.4,499-155z"/>
	<path id="magnifier-icon_9_" class="st5" d="M538-146.8l-4.4-4.4c0.7-1.1,1.1-2.6,1.1-3.9c0-3.8-3.1-6.8-6.9-6.8   c-3.7,0-6.7,3.1-6.8,6.8c0,3.8,3,6.9,6.8,6.9c1.3,0,2.9-0.5,3.9-1.1l4.5,4.5L538-146.8z M523-155c-0.1-2.8,2.2-5.1,5-5   c2.5,0.1,4.6,2.2,4.7,4.7c0.1,2.8-2.2,5.1-5,5C525.1-150.4,523-152.4,523-155z"/>
	<path id="magnifier-icon_10_" class="st5" d="M541-125.1l-5.2-5.2c0.8-1.2,1.2-3.1,1.2-4.6c0-4.4-3.6-8.1-8.1-8c-4.4,0-7.9,3.6-8,8   c0,4.5,3.6,8.1,8,8.1c1.5,0,3.4-0.6,4.6-1.3l5.2,5.2L541-125.1z M523.3-134.8c-0.1-3.3,2.6-6,5.9-5.9c3,0.1,5.4,2.5,5.5,5.5   c0.1,3.3-2.6,6-5.9,5.9C525.8-129.3,523.4-131.8,523.3-134.8z"/>
	<path id="magnifier-icon_11_" class="st3" d="M517-125.1l-5.2-5.2c0.8-1.2,1.2-3.1,1.2-4.6c0-4.4-3.6-8.1-8.1-8c-4.4,0-7.9,3.6-8,8   c0,4.5,3.6,8.1,8,8.1c1.5,0,3.4-0.6,4.6-1.3l5.2,5.2L517-125.1z M499.3-134.8c-0.1-3.3,2.6-6,5.9-5.9c3,0.1,5.4,2.5,5.5,5.5   c0.1,3.3-2.6,6-5.9,5.9C501.8-129.3,499.4-131.8,499.3-134.8z"/>
	<path id="magnifier-icon_7_" class="st5" d="M543-167.1l-5.7-5.7c0.9-1.4,1.4-3.4,1.4-5.1c0-4.9-4-8.9-8.9-8.8   c-4.8,0-8.7,4-8.8,8.8c0,4.9,3.9,8.9,8.8,8.9c1.6,0,3.8-0.6,5.1-1.4l5.8,5.8L543-167.1z M523.5-177.7c-0.1-3.6,2.9-6.6,6.5-6.5   c3.3,0.1,6,2.8,6.1,6.1c0.1,3.6-2.9,6.6-6.5,6.5C526.3-171.7,523.6-174.4,523.5-177.7z"/>
	<path id="magnifier-icon_5_" class="st6" d="M299.7,94.9l26.2-26.2c6,3.6,15.6,6.5,23.1,6.5c22.2,0,40.3-18.2,40.1-40.4   C388.9,13,371.1-4.8,349.3-5c-22.2-0.2-40.4,17.9-40.4,40.1c0,7.9,2.3,17,6.2,23.2l-26,26L299.7,94.9z M350,63.7   c-16.5,0.5-30.1-13-29.5-29.5c0.5-15,12.6-27.1,27.6-27.6c16.5-0.5,30.1,13,29.5,29.5C377.2,51,365,63.2,350,63.7z"/>
	<path id="magnifier-icon_4_" class="st6" d="M295.9,170.6l19.7-19.7c4.5,2.7,11.7,4.9,17.3,4.9c16.7,0,30.2-13.6,30.1-30.3   c-0.1-16.4-13.5-29.7-29.8-29.8c-16.7-0.1-30.3,13.4-30.3,30.1c0,5.9,1.7,12.7,4.7,17.4L288,162.7L295.9,170.6z M333.6,147.2   c-12.4,0.4-22.6-9.8-22.1-22.1c0.4-11.2,9.5-20.4,20.7-20.7c12.4-0.4,22.6,9.8,22.1,22.1C354,137.8,344.9,146.9,333.6,147.2z"/>
	<path id="magnifier-icon_3_" class="st6" d="M397.3,44.9l13.1-13.1c3,1.8,7.8,3.3,11.6,3.3c11.1,0,20.1-9.1,20-20.2   C441.9,4,433-4.9,422.1-5c-11.1-0.1-20.2,8.9-20.2,20c0,3.9,1.1,8.5,3.1,11.6l-13,13L397.3,44.9z M422.4,29.3   c-8.3,0.3-15-6.5-14.8-14.8c0.2-7.5,6.3-13.6,13.8-13.8c8.3-0.3,15,6.5,14.8,14.8C436,23,429.9,29.1,422.4,29.3z"/>
	<rect x="480" y="-182" class="st4" width="2" height="8"/>
	<rect x="477" y="-179" class="st4" width="8" height="2"/>
	<path id="magnifier-icon_13_" class="st7" d="M468-167.1l-5.7-5.7c0.9-1.4,1.4-3.4,1.4-5.1c0-4.9-4-8.9-8.9-8.8   c-4.8,0-8.7,4-8.8,8.8c0,4.9,3.9,8.9,8.8,8.9c1.6,0,3.8-0.6,5.1-1.4l5.8,5.8L468-167.1z M448.5-177.7c-0.1-3.6,2.9-6.6,6.5-6.5   c3.3,0.1,6,2.8,6.1,6.1c0.1,3.6-2.9,6.6-6.5,6.5C451.3-171.7,448.6-174.4,448.5-177.7z"/>
	<rect x="454" y="-182" class="st7" width="2" height="8"/>
	<rect x="451" y="-179" class="st7" width="8" height="2"/>
	<path id="magnifier-icon_14_" class="st7" d="M464-145.6l-4.7-4.7c0.7-1.1,1.1-2.8,1.1-4.2c0-4-3.3-7.3-7.3-7.2   c-3.9,0-7.1,3.2-7.2,7.2c0,4,3.2,7.3,7.2,7.3c1.3,0,3.1-0.5,4.2-1.2l4.7,4.7L464-145.6z M448.1-154.3c-0.1-3,2.3-5.4,5.3-5.3   c2.7,0.1,4.9,2.3,5,5c0.1,3-2.3,5.4-5.3,5.3C450.4-149.4,448.2-151.6,448.1-154.3z"/>
	<rect x="452.6" y="-157.9" class="st7" width="1.6" height="6.6"/>
	<rect x="450.1" y="-155.4" class="st7" width="6.6" height="1.6"/>
	<path id="magnifier-icon_15_" class="st4" d="M484-145.6l-4.7-4.7c0.7-1.1,1.1-2.8,1.1-4.2c0-4-3.3-7.3-7.3-7.2   c-3.9,0-7.1,3.2-7.2,7.2c0,4,3.2,7.3,7.2,7.3c1.3,0,3.1-0.5,4.2-1.2l4.7,4.7L484-145.6z M468.1-154.3c-0.1-3,2.3-5.4,5.3-5.3   c2.7,0.1,4.9,2.3,5,5c0.1,3-2.3,5.4-5.3,5.3C470.4-149.4,468.2-151.6,468.1-154.3z"/>
	<rect x="472.6" y="-157.9" class="st4" width="1.6" height="6.6"/>
	<rect x="470.1" y="-155.4" class="st4" width="6.6" height="1.6"/>
	<g class="st7">
		<g>
			<path class="st8" d="M210.9-126.9h-19.4c-0.3,0-0.5,0.4-0.5,0.9s0.2,0.9,0.5,0.9h19.3c0.3,0,0.5-0.4,0.5-0.9     C211.4-126.5,211.2-126.9,210.9-126.9z M221.2-139h-12.6c-0.5,0-0.8,0.4-0.8,0.9s0.4,0.9,0.8,0.9h12.5c0.5,0,0.8-0.4,0.8-0.9     C222-138.6,221.6-139,221.2-139z M208.6-149.2h12.5c0.5,0,0.8-0.4,0.8-0.9s-0.4-0.9-0.8-0.9h-12.5c-0.5,0-0.8,0.4-0.8,0.9     S208.2-149.2,208.6-149.2z M221.2-145.1h-12.6c-0.5,0-0.8,0.4-0.8,0.9s0.4,0.9,0.8,0.9h12.5c0.5,0,0.8-0.4,0.8-0.9     S221.6-145.1,221.2-145.1z M221.2-133.1h-29.4c-0.5,0-0.8,0.4-0.8,0.9s0.4,0.9,0.8,0.9h29.4c0.5,0,0.8-0.4,0.8-0.9     S221.6-133.1,221.2-133.1z"/>
		</g>
	</g>
	<rect x="191" y="-151" class="st3" width="14" height="14"/>
	<g class="st7">
		<g>
			<path class="st8" d="M235.6-139.4h-9.3c-0.1,0-0.3,0.2-0.3,0.5c0,0.2,0.1,0.5,0.3,0.5h9.3c0.1,0,0.3-0.2,0.3-0.5     C235.9-139.2,235.8-139.4,235.6-139.4z M240.6-145.2h-6.1c-0.2,0-0.4,0.2-0.4,0.5c0,0.2,0.2,0.5,0.4,0.5h6.1     c0.2,0,0.4-0.2,0.4-0.5S240.8-145.2,240.6-145.2z M234.5-150.1h6.1c0.2,0,0.4-0.2,0.4-0.5c0-0.2-0.2-0.5-0.4-0.5h-6.1     c-0.2,0-0.4,0.2-0.4,0.5C234.1-150.4,234.3-150.1,234.5-150.1z M240.6-148.1h-6.1c-0.2,0-0.4,0.2-0.4,0.5c0,0.2,0.2,0.5,0.4,0.5     h6.1c0.2,0,0.4-0.2,0.4-0.5C241-147.9,240.8-148.1,240.6-148.1z M240.6-142.3h-14.2c-0.2,0-0.4,0.2-0.4,0.5     c0,0.2,0.2,0.5,0.4,0.5h14.2c0.2,0,0.4-0.2,0.4-0.5S240.8-142.3,240.6-142.3z"/>
		</g>
	</g>
	<rect x="226" y="-151" class="st3" width="7" height="7"/>
	<path class="st3" d="M191-162.4c0-1.2,0-22.3,0-23.1c0-1.1,0.9-1.9,1.7-1.2c0.7,0.5,14.5,10.7,15.7,11.5c0.8,0.6,0.8,1.9,0,2.5   c-0.8,0.6-14.7,10.8-15.7,11.5C192-160.6,191-161.2,191-162.4z"/>
	<path class="st3" d="M213-164.1c0-1.1,0-19.8,0-20.6c0-1,0.8-1.7,1.5-1.1c0.6,0.4,12.9,9.5,13.9,10.3c0.7,0.5,0.7,1.7,0,2.2   c-0.8,0.6-13.1,9.6-14,10.3C213.9-162.6,213-163.1,213-164.1z"/>
	<path class="st3" d="M234-175.6c0-0.5,0-9.4,0-9.8c0-0.5,0.4-0.8,0.7-0.5c0.3,0.2,6.2,4.5,6.7,4.9c0.3,0.2,0.3,0.8,0,1.1   c-0.4,0.3-6.2,4.6-6.6,4.9C234.4-174.9,234-175.1,234-175.6z"/>
	<g id="Sound_6_" class="st7">
		<path class="st8" d="M205-102.9c0-3.5,0-7.1,0-10.6c0-0.4,0.2-0.9-0.3-1.1s-0.7,0.1-1,0.3c-2.3,2-4.6,3.9-6.9,5.9    c-0.3,0.3-0.6,0.4-0.9,0.4c-1.1,0-2.3,0-3.4,0c-0.9,0-1.1,0.3-1.1,1.1c0,2.7,0,5.3,0,8c0,0.9,0.2,1.1,1.1,1.1c1.1,0,2.2,0,3.4,0    c0.5,0,0.8,0.1,1.2,0.4c2.2,1.9,4.5,3.8,6.7,5.7c0.4,0.3,0.5,0.6,1,0.4s0.2-0.7,0.2-1.2C205-96,205-99.5,205-102.9z"/>
		<path class="st8" d="M215.5-111.8c-0.4-0.5-0.8-1-1.2-1.4c-0.4-0.4-0.8-0.4-1.3,0c-0.4,0.4-0.4,0.8-0.1,1.2    c0.1,0.1,0.2,0.2,0.3,0.3c2.7,3.1,3.6,6.7,3,10.7c-0.4,2.6-1.5,4.8-3.3,6.6c-0.3,0.3-0.5,0.7-0.3,1.2c0.3,0.6,1.1,0.7,1.6,0.1    c2.7-2.8,4-6.2,4-10C218.3-106.3,217.4-109.2,215.5-111.8z"/>
		<path class="st8" d="M214.3-105.3c-0.4-2-1.4-3.8-2.8-5.3c-0.4-0.4-0.9-0.5-1.4-0.1c-0.4,0.3-0.4,0.9,0,1.4c0,0.1,0.1,0.1,0.2,0.2    c2.1,2.4,2.7,5.2,2,8.3c-0.4,1.6-1.2,2.9-2.3,4c-0.4,0.4-0.5,0.9-0.1,1.4c0.4,0.4,1,0.4,1.4-0.1c0.1-0.1,0.2-0.2,0.3-0.3    c1.9-2.1,2.8-4.5,2.8-7.3C214.5-103.8,214.5-104.6,214.3-105.3z"/>
		<path class="st8" d="M209.2-108.3c-0.5-0.6-1.1-0.7-1.5-0.2c-0.4,0.4-0.4,0.9,0.1,1.5c2.1,2.4,2.1,5.5,0,7.9    c-0.6,0.6-0.6,1.1-0.2,1.5c0.5,0.4,0.9,0.4,1.5-0.2c1.4-1.5,2.1-3.2,2.1-5C211.2-105.1,210.5-106.9,209.2-108.3z"/>
	</g>
	<g id="Sound_2_" class="st7">
		<path class="st8" d="M237-103.7c0-3.3,0-6.7,0-10c0-0.4-0.2-0.8-0.7-1c-0.4-0.2-0.9,0-1.2,0.3c-2.2,1.9-4.4,3.7-6.6,5.6    c-0.3,0.2-0.6,0.3-0.9,0.3c-1.1,0-2.2,0-3.2,0c-0.8,0-1.1,0.2-1.1,1c0,2.5,0,5,0,7.5c0,0.8,0.2,1.1,1.1,1.1c1.1,0,2.1,0,3.2,0    c0.4,0,0.8,0.1,1.1,0.4c2.1,1.8,4.2,3.5,6.3,5.3c0.3,0.3,0.9,0.6,1.4,0.4s0.6-0.7,0.6-1.1C237-97.1,237-100.4,237-103.7z"/>
		<path class="st8" d="M246-111.9c-0.3-0.5-0.7-0.9-1.1-1.3c-0.4-0.3-0.8-0.3-1.2,0c-0.4,0.3-0.4,0.8-0.1,1.2    c0.1,0.1,0.2,0.2,0.3,0.3c2.6,2.9,3.4,6.2,2.9,10c-0.4,2.4-1.4,4.5-3.1,6.2c-0.3,0.3-0.5,0.7-0.3,1.1c0.3,0.6,1,0.7,1.5,0.1    c2.5-2.6,3.7-5.8,3.8-9.4C248.6-106.8,247.8-109.5,246-111.9z"/>
		<path class="st8" d="M244.9-105.9c-0.4-1.9-1.3-3.6-2.6-5c-0.4-0.4-0.8-0.5-1.3-0.1c-0.4,0.3-0.4,0.9,0,1.3c0,0.1,0.1,0.1,0.1,0.2    c2,2.3,2.6,4.9,1.9,7.8c-0.3,1.5-1.1,2.7-2.1,3.8c-0.4,0.4-0.5,0.8-0.1,1.3c0.3,0.4,0.9,0.3,1.3-0.1c0.1-0.1,0.2-0.2,0.2-0.3    c1.8-2,2.7-4.2,2.6-6.9C245.1-104.5,245.1-105.2,244.9-105.9z"/>
		<path class="st8" d="M240.1-108.7c-0.5-0.5-1-0.6-1.4-0.2s-0.3,0.9,0.1,1.4c2,2.2,2,5.2,0,7.4c-0.5,0.6-0.6,1-0.2,1.4    c0.4,0.4,0.9,0.3,1.4-0.2c1.3-1.4,1.9-3,2-4.7C242-105.7,241.4-107.4,240.1-108.7z"/>
	</g>
	<g id="Sound_1_" class="st7">
		<path class="st8" d="M260-109.2c0-1.7,0-3.3,0-5c0-0.2-0.4-0.4-0.7-0.5c-0.2-0.1-0.6,0-0.7,0.2c-1.1,0.9-2.3,1.9-3.4,2.8    c-0.1,0.1-0.3,0.2-0.5,0.2c-0.5,0-1.1,0-1.6,0c-0.4,0-0.6,0.1-0.6,0.5c0,1.3,0,2.5,0,3.8c0,0.4,0.1,0.5,0.5,0.5c0.5,0,1.1,0,1.6,0    c0.2,0,0.4,0,0.6,0.2c1.1,0.9,2.1,1.8,3.2,2.7c0.2,0.1,0.8,0.3,1,0.2c0.2-0.1,0.6-0.3,0.6-0.5C260-105.9,260-107.5,260-109.2z"/>
		<path class="st8" d="M263.8-113.3c-0.2-0.2-0.4-0.5-0.6-0.7c-0.2-0.2-0.4-0.2-0.6,0s-0.2,0.4,0,0.6c0,0.1,0.1,0.1,0.1,0.2    c1.3,1.4,1.7,3.1,1.4,5c-0.1,1.2-0.6,2.2-1.4,3.1c-0.2,0.2-0.2,0.3-0.1,0.6c0.2,0.3,0.5,0.3,0.8,0c1.3-1.3,1.9-2.9,1.9-4.7    C265.2-110.7,264.7-112.1,263.8-113.3z"/>
		<path class="st8" d="M263.3-110.3c-0.2-1-0.6-1.8-1.3-2.5c-0.2-0.2-0.4-0.3-0.6-0.1c-0.2,0.2-0.2,0.4,0,0.7c0,0,0,0,0.1,0.1    c1,1.1,1.3,2.4,1,3.9c-0.2,0.7-0.5,1.4-1.1,1.9c-0.2,0.2-0.2,0.4,0,0.6c0.2,0.2,0.4,0.2,0.7,0l0.1-0.1c0.9-1,1.3-2.1,1.3-3.4    C263.4-109.6,263.4-109.9,263.3-110.3z"/>
		<path class="st8" d="M260.9-111.7c-0.3-0.3-0.5-0.3-0.7-0.1c-0.2,0.2-0.2,0.4,0.1,0.7c1,1.1,1,2.6,0,3.7c-0.3,0.3-0.3,0.5-0.1,0.7    c0.2,0.2,0.4,0.2,0.7-0.1c0.7-0.7,1-1.5,1-2.3C261.9-110.2,261.5-111,260.9-111.7z"/>
	</g>
	<rect x="191" y="-86.9" class="st3" width="18" height="2.9"/>
	<rect x="191" y="-74" class="st3" width="18" height="2.9"/>
	<rect x="191" y="-80.5" class="st3" width="18" height="2.9"/>
	<rect x="214" y="-86" class="st3" width="11.4" height="1.8"/>
	<rect x="214" y="-77.8" class="st3" width="11.4" height="1.8"/>
	<rect x="214" y="-81.9" class="st3" width="11.4" height="1.8"/>
	<rect x="230" y="-86.9" class="st3" width="18" height="2.9"/>
	<rect x="230" y="-75" class="st3" width="18" height="2.9"/>
	<rect x="230" y="-80.9" class="st3" width="18" height="2.9"/>
	<rect x="252" y="-87" class="st3" width="16" height="2.6"/>
	<rect x="252" y="-76.4" class="st3" width="16" height="2.6"/>
	<rect x="252" y="-81.7" class="st3" width="16" height="2.6"/>
	<g class="st7">
		<g>
			<path class="st8" d="M560.5-186.7c-6.4,0-11.5,5.8-11.5,12.9c0,2.8,1.8,5.6,3.9,7.9c3.3,3.6,7.6,13.2,7.6,13.2s4.2-9.6,7.5-13.1     c2.2-2.3,4-5.1,4-7.9C572-180.9,566.9-186.7,560.5-186.7z M560.5-171.2c-1.9,0-3.4-1.7-3.4-3.8s1.5-3.8,3.4-3.8s3.4,1.7,3.4,3.8     S562.4-171.2,560.5-171.2z"/>
		</g>
	</g>
	<circle class="st9" cx="560.5" cy="-175.5" r="4.5"/>
	<line class="st10" x1="200.8" y1="-58" x2="192" y2="-49.1"/>
	<line class="st10" x1="199.5" y1="-58" x2="208.3" y2="-49.1"/>
	<line class="st10" x1="199.5" y1="-57.3" x2="208.3" y2="-66.1"/>
	<line class="st10" x1="200.8" y1="-57.3" x2="192" y2="-66.1"/>
	<line class="st10" x1="240.7" y1="-58.1" x2="232" y2="-49.5"/>
	<line class="st10" x1="239.3" y1="-58.1" x2="248" y2="-49.5"/>
	<line class="st10" x1="239.3" y1="-57.5" x2="248" y2="-66.1"/>
	<line class="st10" x1="240.7" y1="-57.5" x2="232" y2="-66.1"/>
	<line class="st10" x1="220.9" y1="-61.2" x2="215.2" y2="-55.5"/>
	<line class="st10" x1="220" y1="-61.2" x2="225.8" y2="-55.5"/>
	<line class="st10" x1="220" y1="-60.8" x2="225.8" y2="-66.5"/>
	<line class="st10" x1="220.9" y1="-60.8" x2="215.2" y2="-66.5"/>
	<line class="st10" x1="261.3" y1="-59.8" x2="254" y2="-52.5"/>
	<line class="st10" x1="260.2" y1="-59.8" x2="267.4" y2="-52.5"/>
	<line class="st10" x1="260.2" y1="-59.2" x2="267.4" y2="-66.5"/>
	<line class="st10" x1="261.3" y1="-59.2" x2="254" y2="-66.5"/>
	<rect x="198" y="-44" class="st11" width="6" height="1.5"/>
	
		<rect x="195" y="-40.6" transform="matrix(-0.7071 0.7071 -0.7071 -0.7071 312.697 -209.1664)" class="st11" width="9.3" height="1.5"/>
	<rect x="202.5" y="-44" class="st11" width="1.5" height="6"/>
	<g class="st7">
		<path class="st12" d="M191-41v6c0,1.6,1.3,3,3,3h7c1.6,0,3-1.4,3-3v-1h-2v1c0,0.8-0.2,1-1,1h-7c-0.8,0-1-0.2-1-1v-6    c0-0.8,0.2-1,1-1h1v-2h-1C192.3-44,191-42.6,191-41z"/>
	</g>
	<rect x="212.2" y="-44" class="st11" width="4.6" height="1.2"/>
	
		<rect x="209.9" y="-41.5" transform="matrix(-0.7071 0.7071 -0.7071 -0.7071 335.4336 -220.7151)" class="st11" width="7.1" height="1.2"/>
	<rect x="215.6" y="-44" class="st11" width="1.2" height="4.6"/>
	<g class="st7">
		<path class="st12" d="M207-41.9v6.4c0,0.8,0.7,1.5,1.5,1.5h7c0.8,0,1.5-0.7,1.5-1.5V-38h-1v1c0,0.8-0.7,1.5-1.5,1.5H210    c-0.8,0-1.5-0.7-1.5-1.5v-4.5c0-0.8,0.7-1.5,1.5-1.5l0,0v-1h-0.9C207.9-44,207-43.1,207-41.9z"/>
	</g>
	<g class="st7">
		<path class="st13" d="M229,78.2c-21,0-38-17-38-38s17-38,38-38s38,17,38,38S250,78.2,229,78.2z"/>
	</g>
	<polygon class="st3" points="246.2,25 225.2,46 213.2,34 205.4,41.8 217.4,53.7 217.3,53.8 225.1,61.6 253.9,32.8  "/>
	<g class="st7">
		<circle class="st13" cx="201" cy="-20" r="10"/>
	</g>
	<polygon class="st3" points="205,-23.5 200,-18.5 196.8,-21.6 194.8,-19.6 198,-16.4 197.9,-16.4 200,-14.4 207.1,-21.5  "/>
	<g class="st14">
		<path d="M201,82.5c4.7,0,8.5,3.8,8.5,8.5s-3.8,8.5-8.5,8.5s-8.5-3.8-8.5-8.5S196.3,82.5,201,82.5 M201,81c-5.5,0-10,4.5-10,10    s4.5,10,10,10s10-4.5,10-10S206.5,81,201,81L201,81z"/>
	</g>
	<rect x="200" y="88" class="st15" width="2" height="9"/>
	<rect x="200" y="85" class="st15" width="2" height="2"/>
	<g class="st14">
		<path d="M220.5,82c3,0,5.5,2.5,5.5,5.5s-2.5,5.5-5.5,5.5s-5.5-2.5-5.5-5.5S217.5,82,220.5,82 M220.5,81c-3.6,0-6.5,2.9-6.5,6.5    s2.9,6.5,6.5,6.5s6.5-2.9,6.5-6.5S224.1,81,220.5,81L220.5,81z"/>
	</g>
	<rect x="219.9" y="86" class="st15" width="1.3" height="5.4"/>
	<rect x="219.9" y="83.6" class="st15" width="1.3" height="1.3"/>
	<g class="st14">
		<path d="M220.5,104c3,0,5.5,2.5,5.5,5.5s-2.5,5.5-5.5,5.5s-5.5-2.5-5.5-5.5S217.5,104,220.5,104 M220.5,103    c-3.6,0-6.5,2.9-6.5,6.5s2.9,6.5,6.5,6.5s6.5-2.9,6.5-6.5S224.1,103,220.5,103L220.5,103z"/>
	</g>
	<rect x="219.9" y="108" class="st7" width="1.3" height="5.4"/>
	<rect x="219.9" y="105.6" class="st7" width="1.3" height="1.3"/>
	<g class="st14">
		<path d="M201,104.5c4.7,0,8.5,3.8,8.5,8.5s-3.8,8.5-8.5,8.5s-8.5-3.8-8.5-8.5S196.3,104.5,201,104.5 M201,103c-5.5,0-10,4.5-10,10    s4.5,10,10,10s10-4.5,10-10S206.5,103,201,103L201,103z"/>
	</g>
	<rect x="200" y="110" class="st7" width="2" height="9"/>
	<rect x="200" y="107" class="st7" width="2" height="2"/>
	<g class="st7">
		<g>
			<circle class="st16" cx="225" cy="-20" r="10"/>
		</g>
		<g>
			<rect x="224" y="-26" class="st8" width="2" height="9"/>
			<rect x="224" y="-16" class="st8" width="2" height="2"/>
		</g>
	</g>
	<g class="st7">
		<path class="st8" d="M202,174.5c5.2,0,9.5,4.3,9.5,9.5s-4.3,9.5-9.5,9.5s-9.5-4.3-9.5-9.5S196.8,174.5,202,174.5 M202,173    c-6.1,0-11,4.9-11,11s4.9,11,11,11s11-4.9,11-11S208.1,173,202,173L202,173z"/>
	</g>
	<rect x="201" y="177" class="st3" width="2" height="11"/>
	<polygon class="st3" points="202,188 202,190.5 207,186 207,183.6  "/>
	<polygon class="st3" points="197,183.6 197,186 202,190.5 202,188  "/>
	<g class="st7">
		<path class="st8" d="M202,126.5c5.2,0,9.5,4.3,9.5,9.5s-4.3,9.5-9.5,9.5s-9.5-4.3-9.5-9.5S196.8,126.5,202,126.5 M202,125    c-6.1,0-11,4.9-11,11s4.9,11,11,11s11-4.9,11-11S208.1,125,202,125L202,125z"/>
	</g>
	<rect x="201" y="132" class="st3" width="2" height="11"/>
	<polygon class="st3" points="202,132 202,129.5 197,134 197,136.4  "/>
	<polygon class="st3" points="207,136.4 207,134 202,129.5 202,132  "/>
	<g class="st7">
		<path class="st8" d="M202,150.5c5.2,0,9.5,4.3,9.5,9.5s-4.3,9.5-9.5,9.5s-9.5-4.3-9.5-9.5S196.8,150.5,202,150.5 M202,149    c-6.1,0-11,4.9-11,11s4.9,11,11,11s11-4.9,11-11S208.1,149,202,149L202,149z"/>
	</g>
	<rect x="195" y="159" class="st3" width="11" height="2"/>
	<polygon class="st3" points="206,160 208.5,160 204,155 201.6,155  "/>
	<polygon class="st3" points="201.6,165 204,165 208.5,160 206,160  "/>
	<path class="st17" d="M468-67c-13.8,0-25,11.2-25,25s11.2,25,25,25s25-11.2,25-25S481.8-67,468-67z M469.8-57   c1.8,0,3.2,1.5,3.2,3.2s-1.5,3.2-3.2,3.2c-1.8,0-3.2-1.5-3.2-3.2S468-57,469.8-57z M463.5-39.4l1.3-3.6c0.4-0.9-0.3-1-1-1   c0,0-1.9,0.1-2.1-0.2c-0.8-3.6,2.1-3.8,2.1-3.8c0.4,0,7.4-0.1,7.6,0.3c1.2,0.9-1.2,6.8-1.5,7.7c-0.9,2.3-2.1,5.5-2,7s0.4,2,1,2.1   c0.7,0.1,1.4-0.3,2.2-1.1c1.5-1.9,3.3-2,2.5,0.4c-0.5,1.3-1.1,2-1.8,2.7c-1.7,1.5-3.7,1.9-5.6,1.9s-4.5-2.4-4.5-5   C461.9-36.1,463.4-38.8,463.5-39.4z"/>
	<path class="st3" d="M416-67c-13.8,0-25,11.2-25,25s11.2,25,25,25s25-11.2,25-25S429.8-67,416-67z M417.8-57c1.8,0,3.2,1.5,3.2,3.2   s-1.5,3.2-3.2,3.2c-1.8,0-3.2-1.5-3.2-3.2S416-57,417.8-57z M411.5-39.4l1.3-3.6c0.4-0.9-0.3-1-1-1c0,0-1.9,0.1-2.1-0.2   c-0.8-3.6,2.1-3.8,2.1-3.8c0.4,0,7.4-0.1,7.6,0.3c1.2,0.9-1.2,6.8-1.5,7.7c-0.9,2.3-2.1,5.5-2,7c0.1,1.5,0.4,2,1,2.1   c0.7,0.1,1.4-0.3,2.2-1.1c1.5-1.9,3.3-2,2.5,0.4c-0.5,1.3-1.1,2-1.8,2.7c-1.7,1.5-3.7,1.9-5.6,1.9c-1.9,0-4.5-2.4-4.5-5   C409.9-36.1,411.4-38.8,411.5-39.4z"/>
	<path class="st18" d="M520-67c-13.8,0-25,11.2-25,25s11.2,25,25,25s25-11.2,25-25S533.8-67,520-67z M521.8-57   c1.8,0,3.2,1.5,3.2,3.2s-1.5,3.2-3.2,3.2c-1.8,0-3.2-1.5-3.2-3.2S520-57,521.8-57z M515.5-39.4l1.3-3.6c0.4-0.9-0.3-1-1-1   c0,0-1.9,0.1-2.1-0.2c-0.8-3.6,2.1-3.8,2.1-3.8c0.4,0,7.4-0.1,7.6,0.3c1.2,0.9-1.2,6.8-1.5,7.7c-0.9,2.3-2.1,5.5-2,7   c0.1,1.5,0.4,2,1,2.1c0.7,0.1,1.4-0.3,2.2-1.1c1.5-1.9,3.3-2,2.5,0.4c-0.5,1.3-1.1,2-1.8,2.7c-1.7,1.5-3.7,1.9-5.6,1.9   s-4.5-2.4-4.5-5C513.9-36.1,515.4-38.8,515.5-39.4z"/>
	<g class="st7">
		<g>
			<path class="st16" d="M407,171.7c-21,0-38-17-38-38s17-38,38-38s38,17,38,38S428,171.7,407,171.7z"/>
		</g>
		<g>
			<rect x="403.2" y="110.9" class="st8" width="7.6" height="34.2"/>
			<rect x="403.2" y="148.9" class="st8" width="7.6" height="7.6"/>
		</g>
	</g>
	<g class="st19">
		<path class="st8" d="M529-7h-74c-1.7,0-3,1.3-3,3v74c0,1.6,1.3,3,3,3h74c1.7,0,3-1.4,3-3V-4C532-5.7,530.7-7,529-7z M477,57V11    l35,23L477,57z"/>
		<polygon class="st20" points="477,57 512,34 477,11   "/>
	</g>
	<g class="st19">
		<path class="st21" d="M529,76h-74c-1.7,0-3,1.3-3,3v74c0,1.6,1.3,3,3,3h74c1.7,0,3-1.4,3-3V79C532,77.3,530.7,76,529,76z M477,140    V94l35,23L477,140z"/>
		<polygon class="st22" points="477,140 512,117 477,94   "/>
	</g>
	<g class="st7">
		<path class="st23" d="M226,174.5c5.2,0,9.5,4.3,9.5,9.5s-4.3,9.5-9.5,9.5s-9.5-4.3-9.5-9.5S220.8,174.5,226,174.5 M226,173    c-6.1,0-11,4.9-11,11s4.9,11,11,11s11-4.9,11-11S232.1,173,226,173L226,173z"/>
	</g>
	<rect x="225" y="177" class="st24" width="2" height="11"/>
	<polygon class="st24" points="226,188 226,190.5 231,186 231,183.6  "/>
	<polygon class="st24" points="221,183.6 221,186 226,190.5 226,188  "/>
	<g class="st7">
		<path class="st23" d="M226,126.5c5.2,0,9.5,4.3,9.5,9.5s-4.3,9.5-9.5,9.5s-9.5-4.3-9.5-9.5S220.8,126.5,226,126.5 M226,125    c-6.1,0-11,4.9-11,11s4.9,11,11,11s11-4.9,11-11S232.1,125,226,125L226,125z"/>
	</g>
	<rect x="225" y="132" class="st24" width="2" height="11"/>
	<polygon class="st24" points="226,132 226,129.5 221,134 221,136.4  "/>
	<polygon class="st24" points="231,136.4 231,134 226,129.5 226,132  "/>
	<g class="st7">
		<path class="st23" d="M226,150.5c5.2,0,9.5,4.3,9.5,9.5s-4.3,9.5-9.5,9.5s-9.5-4.3-9.5-9.5S220.8,150.5,226,150.5 M226,149    c-6.1,0-11,4.9-11,11s4.9,11,11,11s11-4.9,11-11S232.1,149,226,149L226,149z"/>
	</g>
	<rect x="219" y="159" class="st24" width="11" height="2"/>
	<polygon class="st24" points="230,160 232.5,160 228,155 225.6,155  "/>
	<polygon class="st24" points="225.6,165 228,165 232.5,160 230,160  "/>
</g>
<g id="neu_2015" class="st0">
	<g id="Ebene_1_1_" class="st7">
		<path id="magnifier-icon_31_" class="st25" d="M299.4-87.1l26.3-26.2c6,3.6,15.6,6.5,23.1,6.5c22.2,0,40.4-18.2,40.2-40.5    c-0.2-21.9-18-39.7-39.8-39.9c-22.3-0.1-40.5,17.9-40.5,40.3c0,7.9,2.3,17,6.2,23.2l-26,26L299.4-87.1z M349.8-118.4    c-16.5,0.5-30.1-13-29.5-29.5c0.5-15,12.6-27.1,27.6-27.6c16.5-0.5,30.1,13,29.5,29.5C377-131,364.8-118.8,349.8-118.4z"/>
		<path id="magnifier-icon_30_" class="st25" d="M295.6-11.2l19.7-19.7c4.5,2.7,11.7,4.9,17.3,4.9c16.7,0,30.2-13.6,30.1-30.3    c-0.1-16.4-13.5-29.7-29.8-29.8c-16.7-0.1-30.3,13.4-30.3,30.1c0,5.9,1.7,12.7,4.7,17.4l-19.6,19.5L295.6-11.2z M333.4-34.7    c-12.4,0.4-22.6-9.8-22.1-22.1c0.4-11.2,9.5-20.4,20.7-20.7c12.4-0.4,22.6,9.8,22.1,22.1C353.8-44.2,344.7-35.1,333.4-34.7z"/>
		<path id="magnifier-icon_29_" class="st25" d="M396.1-137.1l13.1-13.1c3,1.8,7.8,3.3,11.6,3.3c11.1,0,20.1-9.1,20-20.2    c0-11-8.9-19.9-19.8-20c-11.1-0.1-20.2,8.9-20.2,20c0,3.9,1.1,8.5,3.1,11.6l-13,13L396.1-137.1z M421.3-152.7    c-8.3,0.3-15-6.5-14.8-14.8c0.2-7.5,6.3-13.6,13.8-13.8c8.3-0.3,15,6.5,14.8,14.8C434.9-159,428.8-152.9,421.3-152.7z"/>
		<path id="magnifier-icon_28_" class="st8" d="M519-167.4l-5.7-5.7c0.9-1.4,1.4-3.4,1.4-5.1c0-4.9-4-8.9-8.9-8.8    c-4.8,0-8.7,4-8.8,8.8c0,4.9,3.9,8.9,8.8,8.9c1.6,0,3.8-0.6,5.1-1.4l5.8,5.8L519-167.4z M499.5-178.1c-0.1-3.6,2.9-6.6,6.5-6.5    c3.3,0.1,6,2.8,6.1,6.1c0.1,3.6-2.9,6.6-6.5,6.5C502.3-172.1,499.6-174.8,499.5-178.1z"/>
		<path id="magnifier-icon_27_" class="st8" d="M514-147.1l-4.4-4.4c0.7-1.1,1.1-2.6,1.1-3.9c0-3.8-3.1-6.8-6.9-6.8    c-3.7,0-6.7,3.1-6.8,6.8c0,3.8,3,6.9,6.8,6.9c1.3,0,2.9-0.5,3.9-1.1l4.5,4.5L514-147.1z M499-155.3c-0.1-2.8,2.2-5.1,5-5    c2.5,0.1,4.6,2.2,4.7,4.7c0.1,2.8-2.2,5.1-5,5C501.1-150.7,499-152.7,499-155.3z"/>
		<path id="magnifier-icon_26_" d="M538-147.1l-4.4-4.4c0.7-1.1,1.1-2.6,1.1-3.9c0-3.8-3.1-6.8-6.9-6.8c-3.7,0-6.7,3.1-6.8,6.8    c0,3.8,3,6.9,6.8,6.9c1.3,0,2.9-0.5,3.9-1.1l4.5,4.5L538-147.1z M523-155.3c-0.1-2.8,2.2-5.1,5-5c2.5,0.1,4.6,2.2,4.7,4.7    c0.1,2.8-2.2,5.1-5,5C525.1-150.7,523-152.7,523-155.3z"/>
		<path id="magnifier-icon_25_" d="M541-125.4l-5.2-5.2c0.8-1.2,1.2-3.1,1.2-4.6c0-4.4-3.6-8.1-8.1-8c-4.4,0-7.9,3.6-8,8    c0,4.5,3.6,8.1,8,8.1c1.5,0,3.4-0.6,4.6-1.3l5.2,5.2L541-125.4z M523.3-135.1c-0.1-3.3,2.6-6,5.9-5.9c3,0.1,5.4,2.5,5.5,5.5    c0.1,3.3-2.6,6-5.9,5.9C525.8-129.6,523.4-132.1,523.3-135.1z"/>
		<path id="magnifier-icon_24_" class="st8" d="M517-125.4l-5.2-5.2c0.8-1.2,1.2-3.1,1.2-4.6c0-4.4-3.6-8.1-8.1-8    c-4.4,0-7.9,3.6-8,8c0,4.5,3.6,8.1,8,8.1c1.5,0,3.4-0.6,4.6-1.3l5.2,5.2L517-125.4z M499.3-135.1c-0.1-3.3,2.6-6,5.9-5.9    c3,0.1,5.4,2.5,5.5,5.5c0.1,3.3-2.6,6-5.9,5.9C501.8-129.6,499.4-132.1,499.3-135.1z"/>
		<path id="magnifier-icon_23_" d="M543-167.4l-5.7-5.7c0.9-1.4,1.4-3.4,1.4-5.1c0-4.9-4-8.9-8.9-8.8c-4.8,0-8.7,4-8.8,8.8    c0,4.9,3.9,8.9,8.8,8.9c1.6,0,3.8-0.6,5.1-1.4l5.8,5.8L543-167.4z M523.5-178.1c-0.1-3.6,2.9-6.6,6.5-6.5c3.3,0.1,6,2.8,6.1,6.1    c0.1,3.6-2.9,6.6-6.5,6.5C526.3-172.1,523.6-174.8,523.5-178.1z"/>
		<path id="magnifier-icon_22_" class="st26" d="M299.4,94.9l26.2-26.2c6,3.6,15.6,6.5,23.1,6.5c22.2,0,40.4-18.2,40.2-40.5    C388.7,12.9,370.9-5,349-5.2c-22.2-0.2-40.5,17.9-40.5,40.2c0,7.9,2.3,17,6.2,23.2l-26,26L299.4,94.9z M349.8,63.7    c-16.5,0.5-30.1-13-29.5-29.5c0.5-15,12.6-27.1,27.6-27.6c16.5-0.5,30.1,13,29.5,29.5C377,50.9,364.8,63.2,349.8,63.7z"/>
		<path id="magnifier-icon_21_" class="st26" d="M295.6,170.7l19.7-19.7c4.5,2.7,11.7,4.9,17.3,4.9c16.7,0,30.2-13.6,30.1-30.3    c-0.1-16.4-13.5-29.7-29.8-29.8c-16.7-0.1-30.3,13.4-30.3,30.1c0,5.9,1.7,12.7,4.7,17.4l-19.6,19.5L295.6,170.7z M333.4,147.3    c-12.4,0.4-22.6-9.8-22.1-22.1c0.4-11.2,9.5-20.4,20.7-20.7c12.4-0.4,22.6,9.8,22.1,22.1C353.8,137.8,344.7,147,333.4,147.3z"/>
		<path id="magnifier-icon_20_" class="st26" d="M397.1,44.8l13.1-13.1c3,1.8,7.8,3.3,11.6,3.3c11.1,0,20.1-9.1,20-20.2    c-0.1-10.9-9-19.8-19.9-19.9c-11.1-0.1-20.2,8.9-20.2,20c0,3.9,1.1,8.5,3.1,11.6l-13,13L397.1,44.8z M422.3,29.2    c-8.3,0.3-15-6.5-14.8-14.8c0.2-7.5,6.3-13.6,13.8-13.8c8.3-0.3,15,6.5,14.8,14.8C435.9,22.9,429.8,29,422.3,29.2z"/>
		<g>
			<path id="magnifier-icon_19_" class="st8" d="M467.9-167.4l-5.7-5.7c0.9-1.4,1.4-3.4,1.4-5.1c0-4.9-4-8.9-8.9-8.8     c-4.8,0-8.7,4-8.8,8.8c0,4.9,3.9,8.9,8.8,8.9c1.6,0,3.8-0.6,5.1-1.4l5.8,5.8L467.9-167.4z M448.4-178.1c-0.1-3.6,2.9-6.6,6.5-6.5     c3.3,0.1,6,2.8,6.1,6.1c0.1,3.6-2.9,6.6-6.5,6.5C451.2-172.1,448.5-174.8,448.4-178.1z"/>
			<rect x="453.9" y="-182.4" class="st8" width="2" height="8"/>
			<rect x="450.9" y="-179.4" class="st8" width="8" height="2"/>
		</g>
		<g>
			<path id="magnifier-icon_18_" class="st8" d="M463.9-145.9l-4.7-4.7c0.7-1.1,1.1-2.8,1.1-4.2c0-4-3.3-7.3-7.3-7.2     c-3.9,0-7.1,3.2-7.2,7.2c0,4,3.2,7.3,7.2,7.3c1.3,0,3.1-0.5,4.2-1.2l4.7,4.7L463.9-145.9z M448-154.6c-0.1-3,2.3-5.4,5.3-5.3     c2.7,0.1,4.9,2.3,5,5c0.1,3-2.3,5.4-5.3,5.3C450.3-149.7,448.1-151.9,448-154.6z"/>
			<rect x="452.5" y="-158.2" class="st8" width="1.6" height="6.6"/>
			<rect x="450" y="-155.7" class="st8" width="6.6" height="1.6"/>
		</g>
		<g>
			<path id="magnifier-icon_17_" d="M494-167.4l-5.7-5.7c0.9-1.4,1.4-3.4,1.4-5.1c0-4.9-4-8.9-8.9-8.8c-4.8,0-8.7,4-8.8,8.8     c0,4.9,3.9,8.9,8.8,8.9c1.6,0,3.8-0.6,5.1-1.4l5.8,5.8L494-167.4z M474.4-178.1c-0.1-3.6,2.9-6.6,6.5-6.5c3.3,0.1,6,2.8,6.1,6.1     c0.1,3.6-2.9,6.6-6.5,6.5C477.2-172.1,474.5-174.8,474.4-178.1z"/>
			<rect x="480" y="-182.4" width="2" height="8"/>
			<rect x="476.9" y="-179.4" width="8" height="2"/>
		</g>
		<g>
			<path id="magnifier-icon_16_" d="M484-145.9l-4.7-4.7c0.7-1.1,1.1-2.8,1.1-4.2c0-4-3.3-7.3-7.3-7.2c-3.9,0-7.1,3.2-7.2,7.2     c0,4,3.2,7.3,7.2,7.3c1.3,0,3.1-0.5,4.2-1.2l4.7,4.7L484-145.9z M468-154.6c-0.1-3,2.3-5.4,5.3-5.3c2.7,0.1,4.9,2.3,5,5     c0.1,3-2.3,5.4-5.3,5.3C470.3-149.7,468.1-151.9,468-154.6z"/>
			<rect x="472.5" y="-158.2" width="1.6" height="6.6"/>
			<rect x="470" y="-155.7" width="6.6" height="1.6"/>
		</g>
		<path class="st8" d="M190.6-162.7c0-1.2,0-22.3,0-23.1c0-1.1,0.9-1.9,1.7-1.2c0.7,0.4,14.5,10.6,15.7,11.4c0.8,0.6,0.8,1.9,0,2.5    c-0.8,0.6-14.7,10.9-15.7,11.6C191.6-160.9,190.6-161.5,190.6-162.7z"/>
		<path class="st8" d="M212.6-164.4c0-1.1,0-19.8,0-20.6c0-1,0.8-1.7,1.5-1.1c0.6,0.3,12.9,9.4,13.9,10.2c0.7,0.5,0.7,1.7,0,2.2    c-0.8,0.6-13.1,9.6-14,10.3C213.5-162.9,212.6-163.4,212.6-164.4z"/>
		<path class="st8" d="M233.6-176c0-0.5,0-9.4,0-9.8c0-0.5,0.4-0.8,0.7-0.5c0.3,0.2,6.2,4.5,6.7,4.9c0.3,0.2,0.3,0.8,0,1.1    c-0.4,0.3-6.2,4.6-6.6,4.9C234-175.3,233.6-175.5,233.6-176z"/>
		<g id="Sound_5_">
			<path class="st8" d="M204.6-103.2c0-3.5,0-7.1,0-10.6c0-0.4,0.2-0.9-0.3-1.1s-0.7,0.1-1,0.3c-2.3,2-4.6,3.9-6.9,5.9     c-0.3,0.3-0.6,0.4-0.9,0.4c-1.1,0-2.3,0-3.4,0c-0.9,0-1.1,0.3-1.1,1.1c0,2.7,0,5.3,0,8c0,0.9,0.2,1.1,1.1,1.1c1.1,0,2.2,0,3.4,0     c0.5,0,0.8,0.1,1.2,0.4c2.2,1.9,4.5,3.8,6.7,5.7c0.4,0.3,0.5,0.6,1,0.4s0.2-0.7,0.2-1.2C204.6-96.3,204.6-99.8,204.6-103.2z"/>
			<path class="st8" d="M215.1-112.1c-0.4-0.5-0.8-1-1.2-1.4c-0.4-0.4-0.8-0.4-1.3,0c-0.4,0.4-0.4,0.8-0.1,1.2     c0.1,0.1,0.2,0.2,0.3,0.3c2.7,3.1,3.6,6.7,3,10.7c-0.4,2.6-1.5,4.8-3.3,6.6c-0.3,0.3-0.5,0.7-0.3,1.2c0.3,0.6,1.1,0.7,1.6,0.1     c2.7-2.8,4-6.2,4-10C217.9-106.6,217-109.5,215.1-112.1z"/>
			<path class="st8" d="M213.9-105.6c-0.4-2-1.4-3.8-2.8-5.3c-0.4-0.4-0.9-0.5-1.4-0.1c-0.4,0.3-0.4,0.9,0,1.4     c0,0.1,0.1,0.1,0.2,0.2c2.1,2.4,2.7,5.2,2,8.3c-0.4,1.6-1.2,2.9-2.3,4c-0.4,0.4-0.5,0.9-0.1,1.4c0.4,0.4,1,0.4,1.4-0.1     c0.1-0.1,0.2-0.2,0.3-0.3c1.9-2.1,2.8-4.5,2.8-7.3C214.1-104.1,214.1-104.9,213.9-105.6z"/>
			<path class="st8" d="M208.8-108.6c-0.5-0.6-1.1-0.7-1.5-0.2c-0.4,0.4-0.4,0.9,0.1,1.5c2.1,2.4,2.1,5.5,0,7.9     c-0.6,0.6-0.6,1.1-0.2,1.5c0.5,0.4,0.9,0.4,1.5-0.2c1.4-1.5,2.1-3.2,2.1-5C210.8-105.4,210.1-107.2,208.8-108.6z"/>
		</g>
		<g id="Sound_4_">
			<path class="st8" d="M236.6-104c0-3.3,0-6.7,0-10c0-0.4-0.2-0.8-0.7-1c-0.4-0.2-0.9,0-1.2,0.3c-2.2,1.9-4.4,3.7-6.6,5.6     c-0.3,0.2-0.6,0.3-0.9,0.3c-1.1,0-2.2,0-3.2,0c-0.8,0-1.1,0.2-1.1,1c0,2.5,0,5,0,7.5c0,0.8,0.2,1.1,1.1,1.1c1.1,0,2.1,0,3.2,0     c0.4,0,0.8,0.1,1.1,0.4c2.1,1.8,4.2,3.5,6.3,5.3c0.3,0.3,0.9,0.6,1.4,0.4s0.6-0.7,0.6-1.1C236.6-97.4,236.6-100.7,236.6-104z"/>
			<path class="st8" d="M245.6-112.2c-0.3-0.5-0.7-0.9-1.1-1.3c-0.4-0.3-0.8-0.3-1.2,0c-0.4,0.3-0.4,0.8-0.1,1.2     c0.1,0.1,0.2,0.2,0.3,0.3c2.6,2.9,3.4,6.2,2.9,10c-0.4,2.4-1.4,4.5-3.1,6.2c-0.3,0.3-0.5,0.7-0.3,1.1c0.3,0.6,1,0.7,1.5,0.1     c2.5-2.6,3.7-5.8,3.8-9.4C248.3-107.1,247.5-109.8,245.6-112.2z"/>
			<path class="st8" d="M244.5-106.2c-0.4-1.9-1.3-3.6-2.6-5c-0.4-0.4-0.8-0.5-1.3-0.1c-0.4,0.3-0.4,0.9,0,1.3     c0,0.1,0.1,0.1,0.1,0.2c2,2.3,2.6,4.9,1.9,7.8c-0.3,1.5-1.1,2.7-2.1,3.8c-0.4,0.4-0.5,0.8-0.1,1.3c0.3,0.4,0.9,0.3,1.3-0.1     c0.1-0.1,0.2-0.2,0.2-0.3c1.8-2,2.7-4.2,2.6-6.9C244.7-104.8,244.7-105.5,244.5-106.2z"/>
			<path class="st8" d="M239.7-109c-0.5-0.5-1-0.6-1.4-0.2c-0.4,0.4-0.3,0.9,0.1,1.4c2,2.2,2,5.2,0,7.4c-0.5,0.6-0.6,1-0.2,1.4     c0.4,0.4,0.9,0.3,1.4-0.2c1.3-1.4,1.9-3,2-4.7C241.6-106,241-107.7,239.7-109z"/>
		</g>
		<g id="Sound_3_">
			<path class="st8" d="M259.7-109.5c0-1.7,0-3.3,0-5c0-0.2-0.4-0.4-0.7-0.5c-0.2-0.1-0.6,0-0.7,0.2c-1.1,0.9-2.3,1.9-3.4,2.8     c-0.1,0.1-0.3,0.2-0.5,0.2c-0.5,0-1.1,0-1.6,0c-0.4,0-0.6,0.1-0.6,0.5c0,1.3,0,2.5,0,3.8c0,0.4,0.1,0.5,0.5,0.5     c0.5,0,1.1,0,1.6,0c0.2,0,0.4,0,0.6,0.2c1.1,0.9,2.1,1.8,3.2,2.7c0.2,0.1,0.8,0.3,1,0.2c0.2-0.1,0.6-0.3,0.6-0.5     C259.7-106.2,259.7-107.8,259.7-109.5z"/>
			<path class="st8" d="M263.5-113.6c-0.2-0.2-0.4-0.5-0.6-0.7c-0.2-0.2-0.4-0.2-0.6,0c-0.2,0.2-0.2,0.4,0,0.6     c0,0.1,0.1,0.1,0.1,0.2c1.3,1.4,1.7,3.1,1.4,5c-0.1,1.2-0.6,2.2-1.4,3.1c-0.2,0.2-0.2,0.3-0.1,0.6c0.2,0.3,0.5,0.3,0.8,0     c1.3-1.3,1.9-2.9,1.9-4.7C264.9-111,264.4-112.4,263.5-113.6z"/>
			<path class="st8" d="M263-110.6c-0.2-1-0.6-1.8-1.3-2.5c-0.2-0.2-0.4-0.3-0.6-0.1c-0.2,0.2-0.2,0.4,0,0.7c0,0,0,0,0.1,0.1     c1,1.1,1.3,2.4,1,3.9c-0.2,0.7-0.5,1.4-1.1,1.9c-0.2,0.2-0.2,0.4,0,0.6c0.2,0.2,0.4,0.2,0.7,0l0.1-0.1c0.9-1,1.3-2.1,1.3-3.4     C263.1-109.9,263.1-110.2,263-110.6z"/>
			<path class="st8" d="M260.6-112c-0.3-0.3-0.5-0.3-0.7-0.1c-0.2,0.2-0.2,0.4,0.1,0.7c1,1.1,1,2.6,0,3.7c-0.3,0.3-0.3,0.5-0.1,0.7     c0.2,0.2,0.4,0.2,0.7-0.1c0.7-0.7,1-1.5,1-2.3C261.6-110.5,261.2-111.3,260.6-112z"/>
		</g>
		<rect x="190.6" y="-87.1" class="st8" width="18" height="2.9"/>
		<rect x="190.6" y="-74.2" class="st8" width="18" height="2.9"/>
		<rect x="190.6" y="-80.7" class="st8" width="18" height="2.9"/>
		<rect x="213.6" y="-86.2" class="st8" width="11.4" height="1.8"/>
		<rect x="213.6" y="-78" class="st8" width="11.4" height="1.8"/>
		<rect x="213.6" y="-82.1" class="st8" width="11.4" height="1.8"/>
		<rect x="229.6" y="-87.1" class="st8" width="18" height="2.9"/>
		<rect x="229.6" y="-75.2" class="st8" width="18" height="2.9"/>
		<rect x="229.6" y="-81.1" class="st8" width="18" height="2.9"/>
		<rect x="251.7" y="-87.2" class="st8" width="16" height="2.6"/>
		<rect x="251.7" y="-76.6" class="st8" width="16" height="2.6"/>
		<rect x="251.7" y="-81.9" class="st8" width="16" height="2.6"/>
		<g>
			<g>
				<path class="st8" d="M560.6-187.1c-6.4,0-11.5,5.8-11.5,12.9c0,2.8,1.8,5.6,3.9,7.9c3.3,3.6,7.6,13.2,7.6,13.2s4.2-9.6,7.5-13.1      c2.2-2.3,4-5.1,4-7.9C572.1-181.3,567-187.1,560.6-187.1z M560.6-171.6c-1.9,0-3.4-1.7-3.4-3.8c0-2.1,1.5-3.8,3.4-3.8      c1.9,0,3.4,1.7,3.4,3.8C564-173.3,562.5-171.6,560.6-171.6z"/>
			</g>
		</g>
		<circle class="st12" cx="560.6" cy="-175.9" r="4.5"/>
		<line class="st27" x1="200.4" y1="-58.2" x2="191.6" y2="-49.3"/>
		<line class="st27" x1="199.1" y1="-58.2" x2="207.9" y2="-49.3"/>
		<line class="st27" x1="199.1" y1="-57.5" x2="207.9" y2="-66.3"/>
		<line class="st27" x1="200.4" y1="-57.5" x2="191.6" y2="-66.3"/>
		<line class="st27" x1="240.3" y1="-58.3" x2="231.6" y2="-49.7"/>
		<line class="st27" x1="238.9" y1="-58.3" x2="247.7" y2="-49.7"/>
		<line class="st27" x1="238.9" y1="-57.7" x2="247.7" y2="-66.3"/>
		<line class="st27" x1="240.3" y1="-57.7" x2="231.6" y2="-66.3"/>
		<line class="st27" x1="220.5" y1="-61.4" x2="214.8" y2="-55.7"/>
		<line class="st27" x1="219.6" y1="-61.4" x2="225.4" y2="-55.7"/>
		<line class="st27" x1="219.6" y1="-61" x2="225.4" y2="-66.7"/>
		<line class="st27" x1="220.5" y1="-61" x2="214.8" y2="-66.7"/>
		<line class="st27" x1="261" y1="-60" x2="253.7" y2="-52.7"/>
		<line class="st27" x1="259.9" y1="-60" x2="267.1" y2="-52.7"/>
		<line class="st27" x1="259.9" y1="-59.4" x2="267.1" y2="-66.7"/>
		<line class="st27" x1="261" y1="-59.4" x2="253.7" y2="-66.7"/>
		<rect x="197.6" y="-44.2" class="st12" width="6" height="1.5"/>
		
			<rect x="194.6" y="-40.7" transform="matrix(0.7071 -0.7071 0.7071 0.7071 86.6391 129.2131)" class="st12" width="9.3" height="1.5"/>
		<rect x="202.1" y="-44.2" class="st12" width="1.5" height="6"/>
		<g>
			<path class="st12" d="M190.6-41.2v6c0,1.6,1.3,3,3,3h7c1.6,0,3-1.4,3-3v-1h-2v1c0,0.8-0.2,1-1,1h-7c-0.8,0-1-0.2-1-1v-6     c0-0.8,0.2-1,1-1h1v-2h-1C191.9-44.2,190.6-42.8,190.6-41.2z"/>
		</g>
		<rect x="211.8" y="-44.2" class="st12" width="4.6" height="1.2"/>
		
			<rect x="209.5" y="-41.6" transform="matrix(0.7071 -0.7071 0.7071 0.7071 91.4184 138.6248)" class="st12" width="7.1" height="1.2"/>
		<rect x="215.2" y="-44.2" class="st12" width="1.2" height="4.6"/>
		<g>
			<path class="st12" d="M206.6-42.1v6.4c0,0.8,0.7,1.5,1.5,1.5h7c0.8,0,1.5-0.7,1.5-1.5v-2.5h-1v1c0,0.8-0.7,1.5-1.5,1.5h-4.5     c-0.8,0-1.5-0.7-1.5-1.5v-4.5c0-0.8,0.7-1.5,1.5-1.5l0,0v-1h-0.9C207.5-44.2,206.6-43.3,206.6-42.1z"/>
		</g>
		<g>
			<path class="st13" d="M228.6,78.2c-21,0-38-17-38-38s17-38,38-38s38,17,38,38S249.7,78.2,228.6,78.2z"/>
		</g>
		<polygon class="st8" points="245.8,24.9 224.8,45.9 212.8,33.9 205,41.7 217,53.6 216.9,53.7 224.7,61.5 253.6,32.7   "/>
		<g>
			<circle class="st13" cx="200.6" cy="-20.2" r="10"/>
		</g>
		<polygon class="st8" points="204.6,-23.7 199.6,-18.7 196.4,-21.8 194.4,-19.8 197.6,-16.6 197.5,-16.6 199.6,-14.5 206.7,-21.7       "/>
		<g>
			<path d="M200.6,82.5c4.7,0,8.5,3.8,8.5,8.5s-3.8,8.5-8.5,8.5c-4.7,0-8.5-3.8-8.5-8.5S195.9,82.5,200.6,82.5 M200.6,81     c-5.5,0-10,4.5-10,10s4.5,10,10,10s10-4.5,10-10S206.1,81,200.6,81L200.6,81z"/>
		</g>
		<rect x="199.6" y="88" width="2" height="9"/>
		<rect x="199.6" y="85" width="2" height="2"/>
		<g>
			<path d="M220.1,82c3,0,5.5,2.5,5.5,5.5s-2.5,5.5-5.5,5.5s-5.5-2.5-5.5-5.5S217.1,82,220.1,82 M220.1,81c-3.6,0-6.5,2.9-6.5,6.5     s2.9,6.5,6.5,6.5c3.6,0,6.5-2.9,6.5-6.5S223.7,81,220.1,81L220.1,81z"/>
		</g>
		<rect x="219.5" y="86" width="1.3" height="5.4"/>
		<rect x="219.5" y="83.6" width="1.3" height="1.3"/>
		<g>
			<path class="st23" d="M220.1,104c3,0,5.5,2.5,5.5,5.5s-2.5,5.5-5.5,5.5s-5.5-2.5-5.5-5.5S217.1,104,220.1,104 M220.1,103     c-3.6,0-6.5,2.9-6.5,6.5s2.9,6.5,6.5,6.5c3.6,0,6.5-2.9,6.5-6.5S223.7,103,220.1,103L220.1,103z"/>
		</g>
		<rect x="219.5" y="108" class="st23" width="1.3" height="5.4"/>
		<rect x="219.5" y="105.6" class="st23" width="1.3" height="1.3"/>
		<g>
			<path class="st23" d="M200.6,104.5c4.7,0,8.5,3.8,8.5,8.5s-3.8,8.5-8.5,8.5c-4.7,0-8.5-3.8-8.5-8.5S195.9,104.5,200.6,104.5      M200.6,103c-5.5,0-10,4.5-10,10s4.5,10,10,10s10-4.5,10-10S206.1,103,200.6,103L200.6,103z"/>
		</g>
		<rect x="199.6" y="110" class="st23" width="2" height="9"/>
		<rect x="199.6" y="107" class="st23" width="2" height="2"/>
		<g>
			<g>
				<circle class="st28" cx="224.6" cy="-20.2" r="10"/>
			</g>
			<g>
				<rect x="223.6" y="-26.2" class="st8" width="2" height="9"/>
				<rect x="223.6" y="-16.2" class="st8" width="2" height="2"/>
			</g>
		</g>
		<g>
			<path class="st8" d="M201.6,174.6c5.2,0,9.5,4.3,9.5,9.5s-4.3,9.5-9.5,9.5c-5.2,0-9.5-4.3-9.5-9.5S196.4,174.6,201.6,174.6      M201.6,173.1c-6.1,0-11,4.9-11,11s4.9,11,11,11c6.1,0,11-4.9,11-11S207.7,173.1,201.6,173.1L201.6,173.1z"/>
		</g>
		<rect x="200.6" y="177.1" class="st8" width="2" height="11"/>
		<polygon class="st8" points="201.6,188.1 201.6,190.6 206.6,186.1 206.6,183.7   "/>
		<polygon class="st8" points="196.6,183.7 196.6,186.1 201.6,190.6 201.6,188.1   "/>
		<g>
			<path class="st8" d="M201.6,126.5c5.2,0,9.5,4.3,9.5,9.5s-4.3,9.5-9.5,9.5c-5.2,0-9.5-4.3-9.5-9.5S196.4,126.5,201.6,126.5      M201.6,125c-6.1,0-11,4.9-11,11s4.9,11,11,11c6.1,0,11-4.9,11-11S207.7,125,201.6,125L201.6,125z"/>
		</g>
		<rect x="200.6" y="132" class="st8" width="2" height="11"/>
		<polygon class="st8" points="201.6,132 201.6,129.5 196.6,134 196.6,136.4   "/>
		<polygon class="st8" points="206.6,136.4 206.6,134 201.6,129.5 201.6,132   "/>
		<g>
			<path class="st8" d="M201.6,150.6c5.2,0,9.5,4.3,9.5,9.5s-4.3,9.5-9.5,9.5c-5.2,0-9.5-4.3-9.5-9.5S196.4,150.6,201.6,150.6      M201.6,149.1c-6.1,0-11,4.9-11,11s4.9,11,11,11c6.1,0,11-4.9,11-11S207.7,149.1,201.6,149.1L201.6,149.1z"/>
		</g>
		<rect x="194.6" y="159.1" class="st8" width="11" height="2"/>
		<polygon class="st8" points="205.6,160.1 208.1,160.1 203.6,155.1 201.2,155.1   "/>
		<polygon class="st8" points="201.2,165.1 203.6,165.1 208.1,160.1 205.6,160.1   "/>
		<path class="st29" d="M467.9-67.2c-13.8,0-25,11.2-25,25s11.2,25,25,25s25-11.2,25-25S481.8-67.2,467.9-67.2z M469.7-57.2    c1.8,0,3.2,1.5,3.2,3.2s-1.5,3.2-3.2,3.2c-1.8,0-3.2-1.5-3.2-3.2S467.9-57.2,469.7-57.2z M463.4-39.6l1.3-3.6c0.4-0.9-0.3-1-1-1    c0,0-1.9,0.1-2.1-0.2c-0.8-3.6,2.1-3.8,2.1-3.8c0.4,0,7.4-0.1,7.6,0.3c1.2,0.9-1.2,6.8-1.5,7.7c-0.9,2.3-2.1,5.5-2,7s0.4,2,1,2.1    c0.7,0.1,1.4-0.3,2.2-1.1c1.5-1.9,3.3-2,2.5,0.4c-0.5,1.3-1.1,2-1.8,2.7c-1.7,1.5-3.7,1.9-5.6,1.9s-4.5-2.4-4.5-5    C461.8-36.3,463.3-39,463.4-39.6z"/>
		<path class="st8" d="M415.9-67.2c-13.8,0-25,11.2-25,25s11.2,25,25,25s25-11.2,25-25S429.7-67.2,415.9-67.2z M417.7-57.2    c1.8,0,3.2,1.5,3.2,3.2s-1.5,3.2-3.2,3.2c-1.8,0-3.2-1.5-3.2-3.2S415.9-57.2,417.7-57.2z M411.4-39.6l1.3-3.6c0.4-0.9-0.3-1-1-1    c0,0-1.9,0.1-2.1-0.2c-0.8-3.6,2.1-3.8,2.1-3.8c0.4,0,7.4-0.1,7.6,0.3c1.2,0.9-1.2,6.8-1.5,7.7c-0.9,2.3-2.1,5.5-2,7    c0.1,1.5,0.4,2,1,2.1c0.7,0.1,1.4-0.3,2.2-1.1c1.5-1.9,3.3-2,2.5,0.4c-0.5,1.3-1.1,2-1.8,2.7c-1.7,1.5-3.7,1.9-5.6,1.9    c-1.9,0-4.5-2.4-4.5-5C409.8-36.3,411.3-39,411.4-39.6z"/>
		<path class="st30" d="M520-67.2c-13.8,0-25,11.2-25,25s11.2,25,25,25s25-11.2,25-25S533.8-67.2,520-67.2z M521.8-57.2    c1.8,0,3.2,1.5,3.2,3.2s-1.5,3.2-3.2,3.2c-1.8,0-3.2-1.5-3.2-3.2S520-57.2,521.8-57.2z M515.5-39.6l1.3-3.6c0.4-0.9-0.3-1-1-1    c0,0-1.9,0.1-2.1-0.2c-0.8-3.6,2.1-3.8,2.1-3.8c0.4,0,7.4-0.1,7.6,0.3c1.2,0.9-1.2,6.8-1.5,7.7c-0.9,2.3-2.1,5.5-2,7    c0.1,1.5,0.4,2,1,2.1c0.7,0.1,1.4-0.3,2.2-1.1c1.5-1.9,3.3-2,2.5,0.4c-0.5,1.3-1.1,2-1.8,2.7c-1.7,1.5-3.7,1.9-5.6,1.9    s-4.5-2.4-4.5-5C513.9-36.3,515.4-39,515.5-39.6z"/>
		<g>
			<g>
				<path class="st28" d="M406.9,171.8c-21,0-38-17-38-38s17-38,38-38s38,17,38,38S427.9,171.8,406.9,171.8z"/>
			</g>
			<g>
				<rect x="403.1" y="110.9" class="st8" width="7.6" height="34.2"/>
				<rect x="403.1" y="149" class="st8" width="7.6" height="7.6"/>
			</g>
		</g>
		<g class="st31">
			<path class="st8" d="M529-7.1h-74.1c-1.7,0-3,1.3-3,3V70c0,1.6,1.3,3,3,3H529c1.7,0,3-1.4,3-3V-4.1C532-5.8,530.7-7.1,529-7.1z      M476.9,56.9V10.8l35,23L476.9,56.9z"/>
			<polygon class="st32" points="476.9,56.9 512,33.9 476.9,10.9    "/>
		</g>
		<g class="st31">
			<path d="M529,76h-74.1c-1.7,0-3,1.3-3,3v74.1c0,1.6,1.3,3,3,3H529c1.7,0,3-1.4,3-3V79C532,77.3,530.7,76,529,76z M476.9,140.1V94     l35,23L476.9,140.1z"/>
			<polygon class="st22" points="476.9,140.1 512,117 476.9,94    "/>
		</g>
		<g>
			<path class="st23" d="M225.6,174.6c5.2,0,9.5,4.3,9.5,9.5s-4.3,9.5-9.5,9.5c-5.2,0-9.5-4.3-9.5-9.5S220.4,174.6,225.6,174.6      M225.6,173.1c-6.1,0-11,4.9-11,11s4.9,11,11,11c6.1,0,11-4.9,11-11S231.7,173.1,225.6,173.1L225.6,173.1z"/>
		</g>
		<rect x="224.6" y="177.1" class="st23" width="2" height="11"/>
		<polygon class="st23" points="225.6,188.1 225.6,190.6 230.6,186.1 230.6,183.7   "/>
		<polygon class="st23" points="220.6,183.7 220.6,186.1 225.6,190.6 225.6,188.1   "/>
		<g>
			<path class="st23" d="M225.6,126.5c5.2,0,9.5,4.3,9.5,9.5s-4.3,9.5-9.5,9.5c-5.2,0-9.5-4.3-9.5-9.5S220.4,126.5,225.6,126.5      M225.6,125c-6.1,0-11,4.9-11,11s4.9,11,11,11c6.1,0,11-4.9,11-11S231.7,125,225.6,125L225.6,125z"/>
		</g>
		<rect x="224.6" y="132" class="st23" width="2" height="11"/>
		<polygon class="st23" points="225.6,132 225.6,129.5 220.6,134 220.6,136.4   "/>
		<polygon class="st23" points="230.6,136.4 230.6,134 225.6,129.5 225.6,132   "/>
		<g>
			<path class="st23" d="M225.6,150.6c5.2,0,9.5,4.3,9.5,9.5s-4.3,9.5-9.5,9.5c-5.2,0-9.5-4.3-9.5-9.5S220.4,150.6,225.6,150.6      M225.6,149.1c-6.1,0-11,4.9-11,11s4.9,11,11,11c6.1,0,11-4.9,11-11S231.7,149.1,225.6,149.1L225.6,149.1z"/>
		</g>
		<rect x="218.6" y="159.1" class="st23" width="11" height="2"/>
		<polygon class="st23" points="229.6,160.1 232.1,160.1 227.6,155.1 225.2,155.1   "/>
		<polygon class="st23" points="225.2,165.1 227.6,165.1 232.1,160.1 229.6,160.1   "/>
	</g>
	<g class="st7">
		<g>
			<g>
				<path class="st8" d="M205.2-138.5h-11.6c-0.4,0-0.6,0.3-0.6,0.7c0,0.4,0.3,0.7,0.6,0.7h11.5c0.4,0,0.6-0.3,0.6-0.7      C205.8-138.2,205.5-138.5,205.2-138.5z"/>
			</g>
		</g>
		<g>
			<g>
				<path class="st8" d="M205.2-134.8h-11.6c-0.4,0-0.6,0.3-0.6,0.7c0,0.4,0.3,0.7,0.6,0.7h11.5c0.4,0,0.6-0.3,0.6-0.7      C205.8-134.4,205.5-134.8,205.2-134.8z"/>
			</g>
		</g>
		<g>
			<g>
				<path class="st8" d="M205.2-130.9h-11.6c-0.4,0-0.6,0.3-0.6,0.7c0,0.4,0.3,0.7,0.6,0.7h11.5c0.4,0,0.6-0.3,0.6-0.7      C205.8-130.6,205.5-130.9,205.2-130.9z"/>
			</g>
		</g>
		<g>
			<g>
				<path class="st8" d="M201.7-127.3h-8.1c-0.4,0-0.6,0.3-0.6,0.7s0.3,0.7,0.6,0.7h8c0.4,0,0.6-0.3,0.6-0.7      C202.3-126.9,202-127.3,201.7-127.3z"/>
			</g>
		</g>
		<polygon class="st8" points="222,-122.1 206.2,-122.1 206.2,-127.3 207.6,-127.3 207.6,-123.4 220.7,-123.4 220.6,-127.3     222,-127.3   "/>
		<path class="st8" d="M208.7-132.9c0.1,0.1,3.3,0,3.3,0v-6.2h4.3v6.2h3.2l-5.3,7.6L208.7-132.9z"/>
		<polygon class="st33" points="216.2,-154.3 223.6,-146.5 223.6,-154.3   "/>
		<g>
			<path class="st8" d="M193-150.9h1.5c1.1,0,2,0.1,2.4,0.2c0.5,0.2,0.9,0.5,1.2,1c0.2,0.4,0.3,0.9,0.3,1.4c0,0.7-0.2,1.3-0.6,1.7     c-0.4,0.4-1,0.7-1.7,0.8c-0.4,0-0.9,0.1-1.5,0.1H194v3.6h-1V-150.9z M194-146.6h0.6c0.8,0,1.3,0,1.6-0.1c0.8-0.2,1.2-0.7,1.2-1.6     c0-0.5-0.1-0.9-0.4-1.2c-0.2-0.3-0.6-0.4-1.1-0.5c-0.3,0-0.8-0.1-1.4-0.1H194V-146.6z"/>
			<path class="st8" d="M200-150.9h1.4c0.8,0,1.3,0,1.8,0.1c1.1,0.1,1.9,0.6,2.5,1.5c0.6,0.8,0.8,1.7,0.8,2.8c0,1.2-0.3,2.2-0.9,3     c-0.6,0.8-1.4,1.2-2.5,1.3c-0.4,0-1,0.1-1.8,0.1H200V-150.9z M201-142.9h0.6c0.6,0,1.1,0,1.3-0.1c0.5-0.1,1-0.3,1.4-0.7     c0.4-0.4,0.7-0.9,0.9-1.5c0.1-0.4,0.2-0.9,0.2-1.4c0-1.1-0.3-1.9-0.8-2.6c-0.4-0.5-1-0.8-1.7-0.9c-0.3,0-0.9-0.1-1.6-0.1H201     V-142.9z"/>
			<path class="st8" d="M209.3-147.1h3.6v0.9h-3.6v4.2h-1v-8.8h4.9v0.9h-3.9V-147.1z"/>
		</g>
	</g>
	<g class="st7">
		<g>
			<g>
				<path class="st8" d="M232.5-145.4h-5.7c-0.2,0-0.3,0.2-0.3,0.4s0.2,0.4,0.3,0.4h5.7c0.2,0,0.3-0.2,0.3-0.4      C232.8-145.3,232.6-145.4,232.5-145.4z"/>
			</g>
		</g>
		<g>
			<g>
				<path class="st8" d="M232.5-143.6h-5.7c-0.2,0-0.3,0.2-0.3,0.4s0.2,0.4,0.3,0.4h5.7c0.2,0,0.3-0.2,0.3-0.4      S232.6-143.6,232.5-143.6z"/>
			</g>
		</g>
		<g>
			<g>
				<path class="st8" d="M232.5-141.7h-5.7c-0.2,0-0.3,0.2-0.3,0.4s0.2,0.4,0.3,0.4h5.7c0.2,0,0.3-0.2,0.3-0.4      S232.6-141.7,232.5-141.7z"/>
			</g>
		</g>
		<g>
			<g>
				<path class="st8" d="M230.7-139.9h-4c-0.2,0-0.3,0.2-0.3,0.4s0.2,0.4,0.3,0.4h3.9c0.2,0,0.3-0.2,0.3-0.4      C231-139.7,230.9-139.9,230.7-139.9z"/>
			</g>
		</g>
		<polygon class="st8" points="240.8,-137.3 232.9,-137.3 232.9,-139.9 233.6,-139.9 233.6,-138 240.1,-138 240.1,-139.9     240.8,-139.9   "/>
		<path class="st8" d="M234.2-142.6c0.1,0,1.6,0,1.6,0v-3.1h2.1v3.1h1.6l-2.6,3.7L234.2-142.6z"/>
		<polygon class="st33" points="237.9,-153.2 241.6,-149.4 241.6,-153.2   "/>
		<g>
			<path class="st8" d="M226.4-151.5h0.7c0.6,0,1,0,1.2,0.1c0.3,0.1,0.5,0.2,0.6,0.5c0.1,0.2,0.2,0.4,0.2,0.7c0,0.4-0.1,0.6-0.3,0.9     c-0.2,0.1-0.4,0.3-0.8,0.3c-0.2,0-0.4,0-0.7,0H227v1.8h-0.5v-4.3H226.4z M226.9-149.4h0.3c0.4,0,0.6,0,0.8-0.1     c0.4-0.1,0.6-0.4,0.6-0.8c0-0.3-0.1-0.5-0.2-0.6c-0.1-0.1-0.3-0.2-0.5-0.2c-0.2,0-0.4,0-0.7,0h-0.3     C226.9-151.1,226.9-149.4,226.9-149.4z"/>
			<path class="st8" d="M229.9-151.5h0.7c0.4,0,0.7,0,0.9,0c0.5,0.1,0.9,0.3,1.2,0.7c0.3,0.4,0.4,0.9,0.4,1.4c0,0.6-0.2,1.1-0.5,1.5     c-0.3,0.4-0.7,0.6-1.2,0.7c-0.2,0-0.5,0-0.9,0h-0.6C229.9-147.2,229.9-151.5,229.9-151.5z M230.4-147.6h0.3c0.3,0,0.5,0,0.7,0     c0.3,0,0.5-0.1,0.7-0.3c0.2-0.2,0.3-0.4,0.4-0.7c0.1-0.2,0.1-0.4,0.1-0.7c0-0.5-0.1-0.9-0.4-1.3c-0.2-0.3-0.5-0.4-0.8-0.5     c-0.2,0-0.4,0-0.8,0h-0.2V-147.6z"/>
			<path class="st8" d="M234.5-149.7h1.8v0.4h-1.8v2H234v-4.4h2.4v0.4h-1.9V-149.7z"/>
		</g>
	</g>
</g>
<g id="neu_2015_x2F_2_update">
	<path id="magnifier-icon_47_" class="st34" d="M299.4-87.1l26.3-26.2c6,3.6,15.6,6.5,23.1,6.5c22.2,0,40.4-18.2,40.2-40.5   c-0.2-21.9-18-39.7-39.8-39.9c-22.3-0.1-40.5,17.9-40.5,40.3c0,7.9,2.3,17,6.2,23.2l-26,26L299.4-87.1z M349.8-118.4   c-16.5,0.5-30.1-13-29.5-29.5c0.5-15,12.6-27.1,27.6-27.6c16.5-0.5,30.1,13,29.5,29.5C377-131,364.8-118.8,349.8-118.4z"/>
	<path id="magnifier-icon_46_" class="st34" d="M295.6-11.2l19.7-19.7c4.5,2.7,11.7,4.9,17.3,4.9c16.7,0,30.2-13.6,30.1-30.3   c-0.1-16.4-13.5-29.7-29.8-29.8c-16.7-0.1-30.3,13.4-30.3,30.1c0,5.9,1.7,12.7,4.7,17.4l-19.6,19.5L295.6-11.2z M333.4-34.7   c-12.4,0.4-22.6-9.8-22.1-22.1c0.4-11.2,9.5-20.4,20.7-20.7c12.4-0.4,22.6,9.8,22.1,22.1C353.8-44.2,344.7-35.1,333.4-34.7z"/>
	<path id="magnifier-icon_45_" class="st34" d="M396.1-137.1l13.1-13.1c3,1.8,7.8,3.3,11.6,3.3c11.1,0,20.1-9.1,20-20.2   c0-11-8.9-19.9-19.8-20c-11.1-0.1-20.2,8.9-20.2,20c0,3.9,1.1,8.5,3.1,11.6l-13,13L396.1-137.1z M421.3-152.7   c-8.3,0.3-15-6.5-14.8-14.8c0.2-7.5,6.3-13.6,13.8-13.8c8.3-0.3,15,6.5,14.8,14.8C434.9-159,428.8-152.9,421.3-152.7z"/>
	<path id="magnifier-icon_44_" class="st8" d="M519-167.4l-5.7-5.7c0.9-1.4,1.4-3.4,1.4-5.1c0-4.9-4-8.9-8.9-8.8   c-4.8,0-8.7,4-8.8,8.8c0,4.9,3.9,8.9,8.8,8.9c1.6,0,3.8-0.6,5.1-1.4l5.8,5.8L519-167.4z M499.5-178.1c-0.1-3.6,2.9-6.6,6.5-6.5   c3.3,0.1,6,2.8,6.1,6.1c0.1,3.6-2.9,6.6-6.5,6.5C502.3-172.1,499.6-174.8,499.5-178.1z"/>
	<path id="magnifier-icon_43_" class="st8" d="M514-147.1l-4.4-4.4c0.7-1.1,1.1-2.6,1.1-3.9c0-3.8-3.1-6.8-6.9-6.8   c-3.7,0-6.7,3.1-6.8,6.8c0,3.8,3,6.9,6.8,6.9c1.3,0,2.9-0.5,3.9-1.1l4.5,4.5L514-147.1z M499-155.3c-0.1-2.8,2.2-5.1,5-5   c2.5,0.1,4.6,2.2,4.7,4.7c0.1,2.8-2.2,5.1-5,5C501.1-150.7,499-152.7,499-155.3z"/>
	<path id="magnifier-icon_42_" d="M538-147.1l-4.4-4.4c0.7-1.1,1.1-2.6,1.1-3.9c0-3.8-3.1-6.8-6.9-6.8c-3.7,0-6.7,3.1-6.8,6.8   c0,3.8,3,6.9,6.8,6.9c1.3,0,2.9-0.5,3.9-1.1l4.5,4.5L538-147.1z M523-155.3c-0.1-2.8,2.2-5.1,5-5c2.5,0.1,4.6,2.2,4.7,4.7   c0.1,2.8-2.2,5.1-5,5C525.1-150.7,523-152.7,523-155.3z"/>
	<path id="magnifier-icon_41_" d="M541-125.4l-5.2-5.2c0.8-1.2,1.2-3.1,1.2-4.6c0-4.4-3.6-8.1-8.1-8c-4.4,0-7.9,3.6-8,8   c0,4.5,3.6,8.1,8,8.1c1.5,0,3.4-0.6,4.6-1.3l5.2,5.2L541-125.4z M523.3-135.1c-0.1-3.3,2.6-6,5.9-5.9c3,0.1,5.4,2.5,5.5,5.5   c0.1,3.3-2.6,6-5.9,5.9C525.8-129.6,523.4-132.1,523.3-135.1z"/>
	<path id="magnifier-icon_40_" class="st8" d="M517-125.4l-5.2-5.2c0.8-1.2,1.2-3.1,1.2-4.6c0-4.4-3.6-8.1-8.1-8c-4.4,0-7.9,3.6-8,8   c0,4.5,3.6,8.1,8,8.1c1.5,0,3.4-0.6,4.6-1.3l5.2,5.2L517-125.4z M499.3-135.1c-0.1-3.3,2.6-6,5.9-5.9c3,0.1,5.4,2.5,5.5,5.5   c0.1,3.3-2.6,6-5.9,5.9C501.8-129.6,499.4-132.1,499.3-135.1z"/>
	<path id="magnifier-icon_39_" d="M543-167.4l-5.7-5.7c0.9-1.4,1.4-3.4,1.4-5.1c0-4.9-4-8.9-8.9-8.8c-4.8,0-8.7,4-8.8,8.8   c0,4.9,3.9,8.9,8.8,8.9c1.6,0,3.8-0.6,5.1-1.4l5.8,5.8L543-167.4z M523.5-178.1c-0.1-3.6,2.9-6.6,6.5-6.5c3.3,0.1,6,2.8,6.1,6.1   c0.1,3.6-2.9,6.6-6.5,6.5C526.3-172.1,523.6-174.8,523.5-178.1z"/>
	<path id="magnifier-icon_38_" class="st26" d="M299.4,94.9l26.2-26.2c6,3.6,15.6,6.5,23.1,6.5c22.2,0,40.4-18.2,40.2-40.5   C388.7,12.9,370.9-5,349-5.2c-22.2-0.2-40.5,17.9-40.5,40.2c0,7.9,2.3,17,6.2,23.2l-26,26L299.4,94.9z M349.8,63.7   c-16.5,0.5-30.1-13-29.5-29.5c0.5-15,12.6-27.1,27.6-27.6c16.5-0.5,30.1,13,29.5,29.5C377,50.9,364.8,63.2,349.8,63.7z"/>
	<path id="magnifier-icon_37_" class="st26" d="M295.6,170.7l19.7-19.7c4.5,2.7,11.7,4.9,17.3,4.9c16.7,0,30.2-13.6,30.1-30.3   c-0.1-16.4-13.5-29.7-29.8-29.8c-16.7-0.1-30.3,13.4-30.3,30.1c0,5.9,1.7,12.7,4.7,17.4l-19.6,19.5L295.6,170.7z M333.4,147.3   c-12.4,0.4-22.6-9.8-22.1-22.1c0.4-11.2,9.5-20.4,20.7-20.7c12.4-0.4,22.6,9.8,22.1,22.1C353.8,137.8,344.7,147,333.4,147.3z"/>
	<path id="magnifier-icon_36_" class="st26" d="M397.1,44.8l13.1-13.1c3,1.8,7.8,3.3,11.6,3.3c11.1,0,20.1-9.1,20-20.2   c-0.1-10.9-9-19.8-19.9-19.9c-11.1-0.1-20.2,8.9-20.2,20c0,3.9,1.1,8.5,3.1,11.6l-13,13L397.1,44.8z M422.3,29.2   c-8.3,0.3-15-6.5-14.8-14.8c0.2-7.5,6.3-13.6,13.8-13.8c8.3-0.3,15,6.5,14.8,14.8C435.9,22.9,429.8,29,422.3,29.2z"/>
	<g>
		<path id="magnifier-icon_35_" class="st8" d="M467.9-167.4l-5.7-5.7c0.9-1.4,1.4-3.4,1.4-5.1c0-4.9-4-8.9-8.9-8.8    c-4.8,0-8.7,4-8.8,8.8c0,4.9,3.9,8.9,8.8,8.9c1.6,0,3.8-0.6,5.1-1.4l5.8,5.8L467.9-167.4z M448.4-178.1c-0.1-3.6,2.9-6.6,6.5-6.5    c3.3,0.1,6,2.8,6.1,6.1c0.1,3.6-2.9,6.6-6.5,6.5C451.2-172.1,448.5-174.8,448.4-178.1z"/>
		<rect x="453.9" y="-182.4" class="st8" width="2" height="8"/>
		<rect x="450.9" y="-179.4" class="st8" width="8" height="2"/>
	</g>
	<g>
		<path id="magnifier-icon_34_" class="st8" d="M463.9-145.9l-4.7-4.7c0.7-1.1,1.1-2.8,1.1-4.2c0-4-3.3-7.3-7.3-7.2    c-3.9,0-7.1,3.2-7.2,7.2c0,4,3.2,7.3,7.2,7.3c1.3,0,3.1-0.5,4.2-1.2l4.7,4.7L463.9-145.9z M448-154.6c-0.1-3,2.3-5.4,5.3-5.3    c2.7,0.1,4.9,2.3,5,5c0.1,3-2.3,5.4-5.3,5.3C450.3-149.7,448.1-151.9,448-154.6z"/>
		<rect x="452.5" y="-158.2" class="st8" width="1.6" height="6.6"/>
		<rect x="450" y="-155.7" class="st8" width="6.6" height="1.6"/>
	</g>
	<g>
		<path id="magnifier-icon_33_" d="M494-167.4l-5.7-5.7c0.9-1.4,1.4-3.4,1.4-5.1c0-4.9-4-8.9-8.9-8.8c-4.8,0-8.7,4-8.8,8.8    c0,4.9,3.9,8.9,8.8,8.9c1.6,0,3.8-0.6,5.1-1.4l5.8,5.8L494-167.4z M474.4-178.1c-0.1-3.6,2.9-6.6,6.5-6.5c3.3,0.1,6,2.8,6.1,6.1    c0.1,3.6-2.9,6.6-6.5,6.5C477.2-172.1,474.5-174.8,474.4-178.1z"/>
		<rect x="480" y="-182.4" width="2" height="8"/>
		<rect x="476.9" y="-179.4" width="8" height="2"/>
	</g>
	<g>
		<path id="magnifier-icon_32_" d="M484-145.9l-4.7-4.7c0.7-1.1,1.1-2.8,1.1-4.2c0-4-3.3-7.3-7.3-7.2c-3.9,0-7.1,3.2-7.2,7.2    c0,4,3.2,7.3,7.2,7.3c1.3,0,3.1-0.5,4.2-1.2l4.7,4.7L484-145.9z M468-154.6c-0.1-3,2.3-5.4,5.3-5.3c2.7,0.1,4.9,2.3,5,5    c0.1,3-2.3,5.4-5.3,5.3C470.3-149.7,468.1-151.9,468-154.6z"/>
		<rect x="472.5" y="-158.2" width="1.6" height="6.6"/>
		<rect x="470" y="-155.7" width="6.6" height="1.6"/>
	</g>
	<path class="st8" d="M190.6-162.7c0-1.2,0-22.3,0-23.1c0-1.1,0.9-1.9,1.7-1.2c0.7,0.4,14.5,10.6,15.7,11.4c0.8,0.6,0.8,1.9,0,2.5   c-0.8,0.6-14.7,10.9-15.7,11.6C191.6-160.9,190.6-161.5,190.6-162.7z"/>
	<path class="st8" d="M212.6-164.4c0-1.1,0-19.8,0-20.6c0-1,0.8-1.7,1.5-1.1c0.6,0.3,12.9,9.4,13.9,10.2c0.7,0.5,0.7,1.7,0,2.2   c-0.8,0.6-13.1,9.6-14,10.3C213.5-162.9,212.6-163.4,212.6-164.4z"/>
	<path class="st8" d="M233.6-176c0-0.5,0-9.4,0-9.8c0-0.5,0.4-0.8,0.7-0.5c0.3,0.2,6.2,4.5,6.7,4.9c0.3,0.2,0.3,0.8,0,1.1   c-0.4,0.3-6.2,4.6-6.6,4.9C234-175.3,233.6-175.5,233.6-176z"/>
	<g id="Sound_9_">
		<path class="st8" d="M204.6-103.2c0-3.5,0-7.1,0-10.6c0-0.4,0.2-0.9-0.3-1.1s-0.7,0.1-1,0.3c-2.3,2-4.6,3.9-6.9,5.9    c-0.3,0.3-0.6,0.4-0.9,0.4c-1.1,0-2.3,0-3.4,0c-0.9,0-1.1,0.3-1.1,1.1c0,2.7,0,5.3,0,8c0,0.9,0.2,1.1,1.1,1.1c1.1,0,2.2,0,3.4,0    c0.5,0,0.8,0.1,1.2,0.4c2.2,1.9,4.5,3.8,6.7,5.7c0.4,0.3,0.5,0.6,1,0.4s0.2-0.7,0.2-1.2C204.6-96.3,204.6-99.8,204.6-103.2z"/>
		<path class="st8" d="M215.1-112.1c-0.4-0.5-0.8-1-1.2-1.4c-0.4-0.4-0.8-0.4-1.3,0c-0.4,0.4-0.4,0.8-0.1,1.2    c0.1,0.1,0.2,0.2,0.3,0.3c2.7,3.1,3.6,6.7,3,10.7c-0.4,2.6-1.5,4.8-3.3,6.6c-0.3,0.3-0.5,0.7-0.3,1.2c0.3,0.6,1.1,0.7,1.6,0.1    c2.7-2.8,4-6.2,4-10C217.9-106.6,217-109.5,215.1-112.1z"/>
		<path class="st8" d="M213.9-105.6c-0.4-2-1.4-3.8-2.8-5.3c-0.4-0.4-0.9-0.5-1.4-0.1c-0.4,0.3-0.4,0.9,0,1.4c0,0.1,0.1,0.1,0.2,0.2    c2.1,2.4,2.7,5.2,2,8.3c-0.4,1.6-1.2,2.9-2.3,4c-0.4,0.4-0.5,0.9-0.1,1.4c0.4,0.4,1,0.4,1.4-0.1c0.1-0.1,0.2-0.2,0.3-0.3    c1.9-2.1,2.8-4.5,2.8-7.3C214.1-104.1,214.1-104.9,213.9-105.6z"/>
		<path class="st8" d="M208.8-108.6c-0.5-0.6-1.1-0.7-1.5-0.2c-0.4,0.4-0.4,0.9,0.1,1.5c2.1,2.4,2.1,5.5,0,7.9    c-0.6,0.6-0.6,1.1-0.2,1.5c0.5,0.4,0.9,0.4,1.5-0.2c1.4-1.5,2.1-3.2,2.1-5C210.8-105.4,210.1-107.2,208.8-108.6z"/>
	</g>
	<g id="Sound_8_">
		<path class="st8" d="M236.6-104c0-3.3,0-6.7,0-10c0-0.4-0.2-0.8-0.7-1c-0.4-0.2-0.9,0-1.2,0.3c-2.2,1.9-4.4,3.7-6.6,5.6    c-0.3,0.2-0.6,0.3-0.9,0.3c-1.1,0-2.2,0-3.2,0c-0.8,0-1.1,0.2-1.1,1c0,2.5,0,5,0,7.5c0,0.8,0.2,1.1,1.1,1.1c1.1,0,2.1,0,3.2,0    c0.4,0,0.8,0.1,1.1,0.4c2.1,1.8,4.2,3.5,6.3,5.3c0.3,0.3,0.9,0.6,1.4,0.4s0.6-0.7,0.6-1.1C236.6-97.4,236.6-100.7,236.6-104z"/>
		<path class="st8" d="M245.6-112.2c-0.3-0.5-0.7-0.9-1.1-1.3c-0.4-0.3-0.8-0.3-1.2,0c-0.4,0.3-0.4,0.8-0.1,1.2    c0.1,0.1,0.2,0.2,0.3,0.3c2.6,2.9,3.4,6.2,2.9,10c-0.4,2.4-1.4,4.5-3.1,6.2c-0.3,0.3-0.5,0.7-0.3,1.1c0.3,0.6,1,0.7,1.5,0.1    c2.5-2.6,3.7-5.8,3.8-9.4C248.3-107.1,247.5-109.8,245.6-112.2z"/>
		<path class="st8" d="M244.5-106.2c-0.4-1.9-1.3-3.6-2.6-5c-0.4-0.4-0.8-0.5-1.3-0.1c-0.4,0.3-0.4,0.9,0,1.3c0,0.1,0.1,0.1,0.1,0.2    c2,2.3,2.6,4.9,1.9,7.8c-0.3,1.5-1.1,2.7-2.1,3.8c-0.4,0.4-0.5,0.8-0.1,1.3c0.3,0.4,0.9,0.3,1.3-0.1c0.1-0.1,0.2-0.2,0.2-0.3    c1.8-2,2.7-4.2,2.6-6.9C244.7-104.8,244.7-105.5,244.5-106.2z"/>
		<path class="st8" d="M239.7-109c-0.5-0.5-1-0.6-1.4-0.2c-0.4,0.4-0.3,0.9,0.1,1.4c2,2.2,2,5.2,0,7.4c-0.5,0.6-0.6,1-0.2,1.4    c0.4,0.4,0.9,0.3,1.4-0.2c1.3-1.4,1.9-3,2-4.7C241.6-106,241-107.7,239.7-109z"/>
	</g>
	<g id="Sound_7_">
		<path class="st8" d="M259.7-109.5c0-1.7,0-3.3,0-5c0-0.2-0.4-0.4-0.7-0.5c-0.2-0.1-0.6,0-0.7,0.2c-1.1,0.9-2.3,1.9-3.4,2.8    c-0.1,0.1-0.3,0.2-0.5,0.2c-0.5,0-1.1,0-1.6,0c-0.4,0-0.6,0.1-0.6,0.5c0,1.3,0,2.5,0,3.8c0,0.4,0.1,0.5,0.5,0.5c0.5,0,1.1,0,1.6,0    c0.2,0,0.4,0,0.6,0.2c1.1,0.9,2.1,1.8,3.2,2.7c0.2,0.1,0.8,0.3,1,0.2c0.2-0.1,0.6-0.3,0.6-0.5    C259.7-106.2,259.7-107.8,259.7-109.5z"/>
		<path class="st8" d="M263.5-113.6c-0.2-0.2-0.4-0.5-0.6-0.7c-0.2-0.2-0.4-0.2-0.6,0c-0.2,0.2-0.2,0.4,0,0.6c0,0.1,0.1,0.1,0.1,0.2    c1.3,1.4,1.7,3.1,1.4,5c-0.1,1.2-0.6,2.2-1.4,3.1c-0.2,0.2-0.2,0.3-0.1,0.6c0.2,0.3,0.5,0.3,0.8,0c1.3-1.3,1.9-2.9,1.9-4.7    C264.9-111,264.4-112.4,263.5-113.6z"/>
		<path class="st8" d="M263-110.6c-0.2-1-0.6-1.8-1.3-2.5c-0.2-0.2-0.4-0.3-0.6-0.1c-0.2,0.2-0.2,0.4,0,0.7c0,0,0,0,0.1,0.1    c1,1.1,1.3,2.4,1,3.9c-0.2,0.7-0.5,1.4-1.1,1.9c-0.2,0.2-0.2,0.4,0,0.6c0.2,0.2,0.4,0.2,0.7,0l0.1-0.1c0.9-1,1.3-2.1,1.3-3.4    C263.1-109.9,263.1-110.2,263-110.6z"/>
		<path class="st8" d="M260.6-112c-0.3-0.3-0.5-0.3-0.7-0.1c-0.2,0.2-0.2,0.4,0.1,0.7c1,1.1,1,2.6,0,3.7c-0.3,0.3-0.3,0.5-0.1,0.7    c0.2,0.2,0.4,0.2,0.7-0.1c0.7-0.7,1-1.5,1-2.3C261.6-110.5,261.2-111.3,260.6-112z"/>
	</g>
	<rect x="190.6" y="-87.1" class="st8" width="18" height="2.9"/>
	<rect x="190.6" y="-74.2" class="st8" width="18" height="2.9"/>
	<rect x="190.6" y="-80.7" class="st8" width="18" height="2.9"/>
	<rect x="213.6" y="-86.2" class="st8" width="11.4" height="1.8"/>
	<rect x="213.6" y="-78" class="st8" width="11.4" height="1.8"/>
	<rect x="213.6" y="-82.1" class="st8" width="11.4" height="1.8"/>
	<rect x="229.6" y="-87.1" class="st8" width="18" height="2.9"/>
	<rect x="229.6" y="-75.2" class="st8" width="18" height="2.9"/>
	<rect x="229.6" y="-81.1" class="st8" width="18" height="2.9"/>
	<rect x="251.7" y="-87.2" class="st8" width="16" height="2.6"/>
	<rect x="251.7" y="-76.6" class="st8" width="16" height="2.6"/>
	<rect x="251.7" y="-81.9" class="st8" width="16" height="2.6"/>
	<g>
		<g>
			<path class="st8" d="M560.6-187.1c-6.4,0-11.5,5.8-11.5,12.9c0,2.8,1.8,5.6,3.9,7.9c3.3,3.6,7.6,13.2,7.6,13.2s4.2-9.6,7.5-13.1     c2.2-2.3,4-5.1,4-7.9C572.1-181.3,567-187.1,560.6-187.1z M560.6-171.6c-1.9,0-3.4-1.7-3.4-3.8c0-2.1,1.5-3.8,3.4-3.8     c1.9,0,3.4,1.7,3.4,3.8C564-173.3,562.5-171.6,560.6-171.6z"/>
		</g>
	</g>
	<circle class="st12" cx="560.6" cy="-175.9" r="4.5"/>
	<line class="st27" x1="200.4" y1="-58.2" x2="191.6" y2="-49.3"/>
	<line class="st27" x1="199.1" y1="-58.2" x2="207.9" y2="-49.3"/>
	<line class="st27" x1="199.1" y1="-57.5" x2="207.9" y2="-66.3"/>
	<line class="st27" x1="200.4" y1="-57.5" x2="191.6" y2="-66.3"/>
	<line class="st27" x1="240.3" y1="-58.3" x2="231.6" y2="-49.7"/>
	<line class="st27" x1="238.9" y1="-58.3" x2="247.7" y2="-49.7"/>
	<line class="st27" x1="238.9" y1="-57.7" x2="247.7" y2="-66.3"/>
	<line class="st27" x1="240.3" y1="-57.7" x2="231.6" y2="-66.3"/>
	<line class="st27" x1="220.5" y1="-61.4" x2="214.8" y2="-55.7"/>
	<line class="st27" x1="219.6" y1="-61.4" x2="225.4" y2="-55.7"/>
	<line class="st27" x1="219.6" y1="-61" x2="225.4" y2="-66.7"/>
	<line class="st27" x1="220.5" y1="-61" x2="214.8" y2="-66.7"/>
	<line class="st27" x1="261" y1="-60" x2="253.7" y2="-52.7"/>
	<line class="st27" x1="259.9" y1="-60" x2="267.1" y2="-52.7"/>
	<line class="st27" x1="259.9" y1="-59.4" x2="267.1" y2="-66.7"/>
	<line class="st27" x1="261" y1="-59.4" x2="253.7" y2="-66.7"/>
	<rect x="197.6" y="-44.2" class="st12" width="6" height="1.5"/>
	
		<rect x="194.6" y="-40.7" transform="matrix(0.7071 -0.7071 0.7071 0.7071 86.6391 129.2131)" class="st12" width="9.3" height="1.5"/>
	<rect x="202.1" y="-44.2" class="st12" width="1.5" height="6"/>
	<g>
		<path class="st12" d="M190.6-41.2v6c0,1.6,1.3,3,3,3h7c1.6,0,3-1.4,3-3v-1h-2v1c0,0.8-0.2,1-1,1h-7c-0.8,0-1-0.2-1-1v-6    c0-0.8,0.2-1,1-1h1v-2h-1C191.9-44.2,190.6-42.8,190.6-41.2z"/>
	</g>
	<rect x="211.8" y="-44.2" class="st12" width="4.6" height="1.2"/>
	
		<rect x="209.5" y="-41.6" transform="matrix(0.7071 -0.7071 0.7071 0.7071 91.4184 138.6248)" class="st12" width="7.1" height="1.2"/>
	<rect x="215.2" y="-44.2" class="st12" width="1.2" height="4.6"/>
	<g>
		<path class="st12" d="M206.6-42.1v6.4c0,0.8,0.7,1.5,1.5,1.5h7c0.8,0,1.5-0.7,1.5-1.5v-2.5h-1v1c0,0.8-0.7,1.5-1.5,1.5h-4.5    c-0.8,0-1.5-0.7-1.5-1.5v-4.5c0-0.8,0.7-1.5,1.5-1.5l0,0v-1h-0.9C207.5-44.2,206.6-43.3,206.6-42.1z"/>
	</g>
	<g>
		<path class="st13" d="M228.6,78.2c-21,0-38-17-38-38s17-38,38-38s38,17,38,38S249.7,78.2,228.6,78.2z"/>
	</g>
	<polygon class="st8" points="245.8,24.9 224.8,45.9 212.8,33.9 205,41.7 217,53.6 216.9,53.7 224.7,61.5 253.6,32.7  "/>
	<g>
		<circle class="st13" cx="200.6" cy="-20.2" r="10"/>
	</g>
	<polygon class="st8" points="204.6,-23.7 199.6,-18.7 196.4,-21.8 194.4,-19.8 197.6,-16.6 197.5,-16.6 199.6,-14.5 206.7,-21.7     "/>
	<g>
		<path d="M200.6,82.5c4.7,0,8.5,3.8,8.5,8.5s-3.8,8.5-8.5,8.5c-4.7,0-8.5-3.8-8.5-8.5S195.9,82.5,200.6,82.5 M200.6,81    c-5.5,0-10,4.5-10,10s4.5,10,10,10s10-4.5,10-10S206.1,81,200.6,81L200.6,81z"/>
	</g>
	<rect x="199.6" y="88" width="2" height="9"/>
	<rect x="199.6" y="85" width="2" height="2"/>
	<g>
		<path d="M220.1,82c3,0,5.5,2.5,5.5,5.5s-2.5,5.5-5.5,5.5s-5.5-2.5-5.5-5.5S217.1,82,220.1,82 M220.1,81c-3.6,0-6.5,2.9-6.5,6.5    s2.9,6.5,6.5,6.5c3.6,0,6.5-2.9,6.5-6.5S223.7,81,220.1,81L220.1,81z"/>
	</g>
	<rect x="219.5" y="86" width="1.3" height="5.4"/>
	<rect x="219.5" y="83.6" width="1.3" height="1.3"/>
	<g>
		<path class="st35" d="M220.1,104c3,0,5.5,2.5,5.5,5.5s-2.5,5.5-5.5,5.5s-5.5-2.5-5.5-5.5S217.1,104,220.1,104 M220.1,103    c-3.6,0-6.5,2.9-6.5,6.5s2.9,6.5,6.5,6.5c3.6,0,6.5-2.9,6.5-6.5S223.7,103,220.1,103L220.1,103z"/>
	</g>
	<rect x="219.5" y="108" class="st35" width="1.3" height="5.4"/>
	<rect x="219.5" y="105.6" class="st35" width="1.3" height="1.3"/>
	<g>
		<path class="st35" d="M200.6,104.5c4.7,0,8.5,3.8,8.5,8.5s-3.8,8.5-8.5,8.5c-4.7,0-8.5-3.8-8.5-8.5S195.9,104.5,200.6,104.5     M200.6,103c-5.5,0-10,4.5-10,10s4.5,10,10,10s10-4.5,10-10S206.1,103,200.6,103L200.6,103z"/>
	</g>
	<rect x="199.6" y="110" class="st35" width="2" height="9"/>
	<rect x="199.6" y="107" class="st35" width="2" height="2"/>
	<g>
		<g>
			<circle class="st28" cx="224.6" cy="-20.2" r="10"/>
		</g>
		<g>
			<rect x="223.6" y="-26.2" class="st8" width="2" height="9"/>
			<rect x="223.6" y="-16.2" class="st8" width="2" height="2"/>
		</g>
	</g>
	<g>
		<path class="st8" d="M201.6,174.6c5.2,0,9.5,4.3,9.5,9.5s-4.3,9.5-9.5,9.5c-5.2,0-9.5-4.3-9.5-9.5S196.4,174.6,201.6,174.6     M201.6,173.1c-6.1,0-11,4.9-11,11s4.9,11,11,11c6.1,0,11-4.9,11-11S207.7,173.1,201.6,173.1L201.6,173.1z"/>
	</g>
	<rect x="200.6" y="177.1" class="st8" width="2" height="11"/>
	<polygon class="st8" points="201.6,188.1 201.6,190.6 206.6,186.1 206.6,183.7  "/>
	<polygon class="st8" points="196.6,183.7 196.6,186.1 201.6,190.6 201.6,188.1  "/>
	<g>
		<path class="st8" d="M201.6,126.5c5.2,0,9.5,4.3,9.5,9.5s-4.3,9.5-9.5,9.5c-5.2,0-9.5-4.3-9.5-9.5S196.4,126.5,201.6,126.5     M201.6,125c-6.1,0-11,4.9-11,11s4.9,11,11,11c6.1,0,11-4.9,11-11S207.7,125,201.6,125L201.6,125z"/>
	</g>
	<rect x="200.6" y="132" class="st8" width="2" height="11"/>
	<polygon class="st8" points="201.6,132 201.6,129.5 196.6,134 196.6,136.4  "/>
	<polygon class="st8" points="206.6,136.4 206.6,134 201.6,129.5 201.6,132  "/>
	<g>
		<path class="st8" d="M201.6,150.6c5.2,0,9.5,4.3,9.5,9.5s-4.3,9.5-9.5,9.5c-5.2,0-9.5-4.3-9.5-9.5S196.4,150.6,201.6,150.6     M201.6,149.1c-6.1,0-11,4.9-11,11s4.9,11,11,11c6.1,0,11-4.9,11-11S207.7,149.1,201.6,149.1L201.6,149.1z"/>
	</g>
	<rect x="194.6" y="159.1" class="st8" width="11" height="2"/>
	<polygon class="st8" points="205.6,160.1 208.1,160.1 203.6,155.1 201.2,155.1  "/>
	<polygon class="st8" points="201.2,165.1 203.6,165.1 208.1,160.1 205.6,160.1  "/>
	<path class="st36" d="M467.9-67.2c-13.8,0-25,11.2-25,25s11.2,25,25,25s25-11.2,25-25S481.8-67.2,467.9-67.2z M469.7-57.2   c1.8,0,3.2,1.5,3.2,3.2s-1.5,3.2-3.2,3.2c-1.8,0-3.2-1.5-3.2-3.2S467.9-57.2,469.7-57.2z M463.4-39.6l1.3-3.6c0.4-0.9-0.3-1-1-1   c0,0-1.9,0.1-2.1-0.2c-0.8-3.6,2.1-3.8,2.1-3.8c0.4,0,7.4-0.1,7.6,0.3c1.2,0.9-1.2,6.8-1.5,7.7c-0.9,2.3-2.1,5.5-2,7s0.4,2,1,2.1   c0.7,0.1,1.4-0.3,2.2-1.1c1.5-1.9,3.3-2,2.5,0.4c-0.5,1.3-1.1,2-1.8,2.7c-1.7,1.5-3.7,1.9-5.6,1.9s-4.5-2.4-4.5-5   C461.8-36.3,463.3-39,463.4-39.6z"/>
	<path class="st8" d="M415.9-67.2c-13.8,0-25,11.2-25,25s11.2,25,25,25s25-11.2,25-25S429.7-67.2,415.9-67.2z M417.7-57.2   c1.8,0,3.2,1.5,3.2,3.2s-1.5,3.2-3.2,3.2c-1.8,0-3.2-1.5-3.2-3.2S415.9-57.2,417.7-57.2z M411.4-39.6l1.3-3.6c0.4-0.9-0.3-1-1-1   c0,0-1.9,0.1-2.1-0.2c-0.8-3.6,2.1-3.8,2.1-3.8c0.4,0,7.4-0.1,7.6,0.3c1.2,0.9-1.2,6.8-1.5,7.7c-0.9,2.3-2.1,5.5-2,7   c0.1,1.5,0.4,2,1,2.1c0.7,0.1,1.4-0.3,2.2-1.1c1.5-1.9,3.3-2,2.5,0.4c-0.5,1.3-1.1,2-1.8,2.7c-1.7,1.5-3.7,1.9-5.6,1.9   c-1.9,0-4.5-2.4-4.5-5C409.8-36.3,411.3-39,411.4-39.6z"/>
	<path class="st12" d="M520-67.2c-13.8,0-25,11.2-25,25s11.2,25,25,25s25-11.2,25-25S533.8-67.2,520-67.2z M521.8-57.2   c1.8,0,3.2,1.5,3.2,3.2s-1.5,3.2-3.2,3.2c-1.8,0-3.2-1.5-3.2-3.2S520-57.2,521.8-57.2z M515.5-39.6l1.3-3.6c0.4-0.9-0.3-1-1-1   c0,0-1.9,0.1-2.1-0.2c-0.8-3.6,2.1-3.8,2.1-3.8c0.4,0,7.4-0.1,7.6,0.3c1.2,0.9-1.2,6.8-1.5,7.7c-0.9,2.3-2.1,5.5-2,7   c0.1,1.5,0.4,2,1,2.1c0.7,0.1,1.4-0.3,2.2-1.1c1.5-1.9,3.3-2,2.5,0.4c-0.5,1.3-1.1,2-1.8,2.7c-1.7,1.5-3.7,1.9-5.6,1.9   s-4.5-2.4-4.5-5C513.9-36.3,515.4-39,515.5-39.6z"/>
	<g>
		<g>
			<path class="st28" d="M406.9,171.8c-21,0-38-17-38-38s17-38,38-38s38,17,38,38S427.9,171.8,406.9,171.8z"/>
		</g>
		<g>
			<rect x="403.1" y="110.9" class="st8" width="7.6" height="34.2"/>
			<rect x="403.1" y="149" class="st8" width="7.6" height="7.6"/>
		</g>
	</g>
	<g class="st31">
		<path class="st8" d="M529-7.1h-74.1c-1.7,0-3,1.3-3,3V70c0,1.6,1.3,3,3,3H529c1.7,0,3-1.4,3-3V-4.1C532-5.8,530.7-7.1,529-7.1z     M476.9,56.9V10.8l35,23L476.9,56.9z"/>
		<polygon class="st32" points="476.9,56.9 512,33.9 476.9,10.9   "/>
	</g>
	<g class="st31">
		<path d="M529,76h-74.1c-1.7,0-3,1.3-3,3v74.1c0,1.6,1.3,3,3,3H529c1.7,0,3-1.4,3-3V79C532,77.3,530.7,76,529,76z M476.9,140.1V94    l35,23L476.9,140.1z"/>
		<polygon class="st22" points="476.9,140.1 512,117 476.9,94   "/>
	</g>
	<g>
		<path class="st35" d="M225.6,174.6c5.2,0,9.5,4.3,9.5,9.5s-4.3,9.5-9.5,9.5c-5.2,0-9.5-4.3-9.5-9.5S220.4,174.6,225.6,174.6     M225.6,173.1c-6.1,0-11,4.9-11,11s4.9,11,11,11c6.1,0,11-4.9,11-11S231.7,173.1,225.6,173.1L225.6,173.1z"/>
	</g>
	<rect x="224.6" y="177.1" class="st35" width="2" height="11"/>
	<polygon class="st35" points="225.6,188.1 225.6,190.6 230.6,186.1 230.6,183.7  "/>
	<polygon class="st35" points="220.6,183.7 220.6,186.1 225.6,190.6 225.6,188.1  "/>
	<g>
		<path class="st35" d="M225.6,126.5c5.2,0,9.5,4.3,9.5,9.5s-4.3,9.5-9.5,9.5c-5.2,0-9.5-4.3-9.5-9.5S220.4,126.5,225.6,126.5     M225.6,125c-6.1,0-11,4.9-11,11s4.9,11,11,11c6.1,0,11-4.9,11-11S231.7,125,225.6,125L225.6,125z"/>
	</g>
	<rect x="224.6" y="132" class="st35" width="2" height="11"/>
	<polygon class="st35" points="225.6,132 225.6,129.5 220.6,134 220.6,136.4  "/>
	<polygon class="st35" points="230.6,136.4 230.6,134 225.6,129.5 225.6,132  "/>
	<g>
		<path class="st35" d="M225.6,150.6c5.2,0,9.5,4.3,9.5,9.5s-4.3,9.5-9.5,9.5c-5.2,0-9.5-4.3-9.5-9.5S220.4,150.6,225.6,150.6     M225.6,149.1c-6.1,0-11,4.9-11,11s4.9,11,11,11c6.1,0,11-4.9,11-11S231.7,149.1,225.6,149.1L225.6,149.1z"/>
	</g>
	<rect x="218.6" y="159.1" class="st35" width="11" height="2"/>
	<polygon class="st35" points="229.6,160.1 232.1,160.1 227.6,155.1 225.2,155.1  "/>
	<polygon class="st35" points="225.2,165.1 227.6,165.1 232.1,160.1 229.6,160.1  "/>
	<g>
		<g>
			<g>
				<path class="st8" d="M205.2-138.5h-11.6c-0.4,0-0.6,0.3-0.6,0.7c0,0.4,0.3,0.7,0.6,0.7h11.5c0.4,0,0.6-0.3,0.6-0.7      C205.8-138.2,205.5-138.5,205.2-138.5z"/>
			</g>
		</g>
		<g>
			<g>
				<path class="st8" d="M205.2-134.8h-11.6c-0.4,0-0.6,0.3-0.6,0.7c0,0.4,0.3,0.7,0.6,0.7h11.5c0.4,0,0.6-0.3,0.6-0.7      C205.8-134.4,205.5-134.8,205.2-134.8z"/>
			</g>
		</g>
		<g>
			<g>
				<path class="st8" d="M205.2-130.9h-11.6c-0.4,0-0.6,0.3-0.6,0.7c0,0.4,0.3,0.7,0.6,0.7h11.5c0.4,0,0.6-0.3,0.6-0.7      C205.8-130.6,205.5-130.9,205.2-130.9z"/>
			</g>
		</g>
		<g>
			<g>
				<path class="st8" d="M201.7-127.3h-8.1c-0.4,0-0.6,0.3-0.6,0.7s0.3,0.7,0.6,0.7h8c0.4,0,0.6-0.3,0.6-0.7      C202.3-126.9,202-127.3,201.7-127.3z"/>
			</g>
		</g>
		<polygon class="st8" points="222,-122.1 206.2,-122.1 206.2,-127.3 207.6,-127.3 207.6,-123.4 220.7,-123.4 220.6,-127.3     222,-127.3   "/>
		<path class="st8" d="M208.7-132.9c0.1,0.1,3.3,0,3.3,0v-6.2h4.3v6.2h3.2l-5.3,7.6L208.7-132.9z"/>
		<polygon class="st33" points="216.2,-154.3 223.6,-146.5 223.6,-154.3   "/>
		<g>
			<path class="st8" d="M193-150.9h1.5c1.1,0,2,0.1,2.4,0.2c0.5,0.2,0.9,0.5,1.2,1c0.2,0.4,0.3,0.9,0.3,1.4c0,0.7-0.2,1.3-0.6,1.7     c-0.4,0.4-1,0.7-1.7,0.8c-0.4,0-0.9,0.1-1.5,0.1H194v3.6h-1V-150.9z M194-146.6h0.6c0.8,0,1.3,0,1.6-0.1c0.8-0.2,1.2-0.7,1.2-1.6     c0-0.5-0.1-0.9-0.4-1.2c-0.2-0.3-0.6-0.4-1.1-0.5c-0.3,0-0.8-0.1-1.4-0.1H194V-146.6z"/>
			<path class="st8" d="M200-150.9h1.4c0.8,0,1.3,0,1.8,0.1c1.1,0.1,1.9,0.6,2.5,1.5c0.6,0.8,0.8,1.7,0.8,2.8c0,1.2-0.3,2.2-0.9,3     c-0.6,0.8-1.4,1.2-2.5,1.3c-0.4,0-1,0.1-1.8,0.1H200V-150.9z M201-142.9h0.6c0.6,0,1.1,0,1.3-0.1c0.5-0.1,1-0.3,1.4-0.7     c0.4-0.4,0.7-0.9,0.9-1.5c0.1-0.4,0.2-0.9,0.2-1.4c0-1.1-0.3-1.9-0.8-2.6c-0.4-0.5-1-0.8-1.7-0.9c-0.3,0-0.9-0.1-1.6-0.1H201     V-142.9z"/>
			<path class="st8" d="M209.3-147.1h3.6v0.9h-3.6v4.2h-1v-8.8h4.9v0.9h-3.9V-147.1z"/>
		</g>
	</g>
	<g>
		<g>
			<g>
				<path class="st8" d="M232.5-145.4h-5.7c-0.2,0-0.3,0.2-0.3,0.4s0.2,0.4,0.3,0.4h5.7c0.2,0,0.3-0.2,0.3-0.4      C232.8-145.3,232.6-145.4,232.5-145.4z"/>
			</g>
		</g>
		<g>
			<g>
				<path class="st8" d="M232.5-143.6h-5.7c-0.2,0-0.3,0.2-0.3,0.4s0.2,0.4,0.3,0.4h5.7c0.2,0,0.3-0.2,0.3-0.4      S232.6-143.6,232.5-143.6z"/>
			</g>
		</g>
		<g>
			<g>
				<path class="st8" d="M232.5-141.7h-5.7c-0.2,0-0.3,0.2-0.3,0.4s0.2,0.4,0.3,0.4h5.7c0.2,0,0.3-0.2,0.3-0.4      S232.6-141.7,232.5-141.7z"/>
			</g>
		</g>
		<g>
			<g>
				<path class="st8" d="M230.7-139.9h-4c-0.2,0-0.3,0.2-0.3,0.4s0.2,0.4,0.3,0.4h3.9c0.2,0,0.3-0.2,0.3-0.4      C231-139.7,230.9-139.9,230.7-139.9z"/>
			</g>
		</g>
		<polygon class="st8" points="240.8,-137.3 232.9,-137.3 232.9,-139.9 233.6,-139.9 233.6,-138 240.1,-138 240.1,-139.9     240.8,-139.9   "/>
		<path class="st8" d="M234.2-142.6c0.1,0,1.6,0,1.6,0v-3.1h2.1v3.1h1.6l-2.6,3.7L234.2-142.6z"/>
		<polygon class="st33" points="237.9,-153.2 241.6,-149.4 241.6,-153.2   "/>
		<g>
			<path class="st8" d="M226.4-151.5h0.7c0.6,0,1,0,1.2,0.1c0.3,0.1,0.5,0.2,0.6,0.5c0.1,0.2,0.2,0.4,0.2,0.7c0,0.4-0.1,0.6-0.3,0.9     c-0.2,0.1-0.4,0.3-0.8,0.3c-0.2,0-0.4,0-0.7,0H227v1.8h-0.5v-4.3H226.4z M226.9-149.4h0.3c0.4,0,0.6,0,0.8-0.1     c0.4-0.1,0.6-0.4,0.6-0.8c0-0.3-0.1-0.5-0.2-0.6c-0.1-0.1-0.3-0.2-0.5-0.2c-0.2,0-0.4,0-0.7,0h-0.3     C226.9-151.1,226.9-149.4,226.9-149.4z"/>
			<path class="st8" d="M229.9-151.5h0.7c0.4,0,0.7,0,0.9,0c0.5,0.1,0.9,0.3,1.2,0.7c0.3,0.4,0.4,0.9,0.4,1.4c0,0.6-0.2,1.1-0.5,1.5     c-0.3,0.4-0.7,0.6-1.2,0.7c-0.2,0-0.5,0-0.9,0h-0.6C229.9-147.2,229.9-151.5,229.9-151.5z M230.4-147.6h0.3c0.3,0,0.5,0,0.7,0     c0.3,0,0.5-0.1,0.7-0.3c0.2-0.2,0.3-0.4,0.4-0.7c0.1-0.2,0.1-0.4,0.1-0.7c0-0.5-0.1-0.9-0.4-1.3c-0.2-0.3-0.5-0.4-0.8-0.5     c-0.2,0-0.4,0-0.8,0h-0.2V-147.6z"/>
			<path class="st8" d="M234.5-149.7h1.8v0.4h-1.8v2H234v-4.4h2.4v0.4h-1.9V-149.7z"/>
		</g>
	</g>
	<g>
		<path d="M250,174.6c5.2,0,9.5,4.3,9.5,9.5s-4.3,9.5-9.5,9.5s-9.5-4.3-9.5-9.5S244.8,174.6,250,174.6 M250,173.1    c-6.1,0-11,4.9-11,11s4.9,11,11,11s11-4.9,11-11S256.1,173.1,250,173.1L250,173.1z"/>
	</g>
	<rect x="249" y="177.1" width="2" height="11"/>
	<polygon points="250,188.1 250,190.6 255,186.1 255,183.7  "/>
	<polygon points="245,183.7 245,186.1 250,190.6 250,188.1  "/>
	<g>
		<path d="M250,126.5c5.2,0,9.5,4.3,9.5,9.5s-4.3,9.5-9.5,9.5s-9.5-4.3-9.5-9.5S244.8,126.5,250,126.5 M250,125c-6.1,0-11,4.9-11,11    s4.9,11,11,11s11-4.9,11-11S256.1,125,250,125L250,125z"/>
	</g>
	<rect x="249" y="132" width="2" height="11"/>
	<polygon points="250,132 250,129.5 245,134 245,136.4  "/>
	<polygon points="255,136.4 255,134 250,129.5 250,132  "/>
	<g>
		<path d="M250,150.6c5.2,0,9.5,4.3,9.5,9.5s-4.3,9.5-9.5,9.5s-9.5-4.3-9.5-9.5S244.8,150.6,250,150.6 M250,149.1    c-6.1,0-11,4.9-11,11s4.9,11,11,11s11-4.9,11-11S256.1,149.1,250,149.1L250,149.1z"/>
	</g>
	<rect x="243" y="159.1" width="11" height="2"/>
	<polygon points="254,160.1 256.5,160.1 252,155.1 249.6,155.1  "/>
	<polygon points="249.6,165.1 252,165.1 256.5,160.1 254,160.1  "/>
</g>
<g>
	<g>
		<path class="st37" d="M287,199.6c0,0.2,0.2,0.4,0.4,0.4h17.3c0.2,0,0.4-0.2,0.4-0.4V188h-18V199.6z M304.6,184H302v-1.7    c0-0.2-0.2-0.4-0.4-0.4h-3.2c-0.2,0-0.4,0.2-0.4,0.4v1.7h-4v-1.7c0-0.2-0.2-0.4-0.4-0.4h-3.2c-0.2,0-0.4,0.2-0.4,0.4v1.7h-2.6    c-0.2,0-0.4,0.2-0.4,0.4v2.6h18v-2.6C305,184.2,304.8,184,304.6,184z M293,185h-2v-2h2V185z M301,185h-2v-2h2V185z"/>
	</g>
</g>
<g>
	<g>
		<path class="st37" d="M308,193.8c0,0.1,0.1,0.2,0.2,0.2h11.5c0.1,0,0.2-0.1,0.2-0.2V186h-12V193.8z M319.8,183.4H318v-1.1    c0-0.1-0.1-0.2-0.3-0.2h-2.2c-0.1,0-0.3,0.1-0.3,0.2v1.1h-2.7v-1.1c0-0.1-0.1-0.2-0.3-0.2h-2.2c-0.1,0-0.3,0.1-0.3,0.2v1.1h-1.8    c-0.1,0-0.2,0.1-0.2,0.2v1.7h12v-1.7C320,183.5,319.9,183.4,319.8,183.4z M312,184h-1.3v-1.3h1.3V184z M317.3,184H316v-1.3h1.3    V184z"/>
	</g>
</g>
<g>
	<g>
		<path class="st38" d="M324,199.6c0,0.2,0.2,0.4,0.4,0.4h17.3c0.2,0,0.4-0.2,0.4-0.4V188h-18V199.6z M341.6,184H339v-1.7    c0-0.2-0.2-0.4-0.4-0.4h-3.2c-0.2,0-0.4,0.2-0.4,0.4v1.7h-4v-1.7c0-0.2-0.2-0.4-0.4-0.4h-3.2c-0.2,0-0.4,0.2-0.4,0.4v1.7h-2.6    c-0.2,0-0.4,0.2-0.4,0.4v2.6h18v-2.6C342,184.2,341.8,184,341.6,184z M330,185h-2v-2h2V185z M338,185h-2v-2h2V185z"/>
	</g>
</g>
<g>
	<g>
		<path class="st38" d="M345,193.8c0,0.1,0.1,0.2,0.2,0.2h11.5c0.1,0,0.2-0.1,0.2-0.2V186h-12V193.8z M356.8,183.4H355v-1.1    c0-0.1-0.1-0.2-0.3-0.2h-2.2c-0.1,0-0.3,0.1-0.3,0.2v1.1h-2.7v-1.1c0-0.1-0.1-0.2-0.3-0.2h-2.2c-0.1,0-0.3,0.1-0.3,0.2v1.1h-1.8    c-0.1,0-0.2,0.1-0.2,0.2v1.7h12v-1.7C357,183.5,356.9,183.4,356.8,183.4z M349,184h-1.3v-1.3h1.3V184z M354.3,184H353v-1.3h1.3    V184z"/>
	</g>
</g>
</svg>