<?xml version="1.0" encoding="utf-8"?>
<!-- Generator: Adobe Illustrator 15.0.0, SVG Export Plug-In . SVG Version: 6.00 Build 0)  -->
<!DOCTYPE svg PUBLIC "-//W3C//DTD SVG 1.1//EN" "http://www.w3.org/Graphics/SVG/1.1/DTD/svg11.dtd">
<svg version="1.1" id="Layer_1" xmlns="http://www.w3.org/2000/svg" xmlns:xlink="http://www.w3.org/1999/xlink" x="0px" y="0px"
	 width="255.969px" height="255.969px" viewBox="-111.984 -111.984 255.969 255.969"
	 enable-background="new -111.984 -111.984 255.969 255.969" xml:space="preserve">
<g>
	
		<linearGradient id="SVGID_1_" gradientUnits="userSpaceOnUse" x1="603.2432" y1="708.9229" x2="603.2432" y2="452.0664" gradientTransform="matrix(1 0 0 1 -586.8008 -564.0508)">
		<stop  offset="0" style="stop-color:#72A4AA"/>
		<stop  offset="1" style="stop-color:#CAE5F1"/>
	</linearGradient>
	<path fill="url(#SVGID_1_)" d="M144.871,121.395c0,12.942-10.73,23.478-23.954,23.478H-88.025
		c-13.228,0-23.959-10.535-23.959-23.478v-209.91c0-12.961,10.731-23.469,23.959-23.469h208.942
		c13.224,0,23.954,10.508,23.954,23.469V121.395z"/>
</g>
<g>
	
		<linearGradient id="SVGID_2_" gradientUnits="userSpaceOnUse" x1="603.2422" y1="699.6729" x2="603.2422" y2="461.3115" gradientTransform="matrix(1 0 0 1 -586.8008 -564.0508)">
		<stop  offset="0" style="stop-color:#FFFFFF;stop-opacity:0.75"/>
		<stop  offset="0.5091" style="stop-color:#FFFFFF;stop-opacity:0.39"/>
		<stop  offset="1" style="stop-color:#FFFFFF"/>
	</linearGradient>
	<path fill="url(#SVGID_2_)" d="M135.622,113.831c0,12.024-9.955,21.791-22.23,21.791H-80.504c-12.271,0-22.234-9.767-22.234-21.791
		V-80.951c0-12.04,9.963-21.788,22.234-21.788h193.896c12.26,0,22.23,9.748,22.23,21.788V113.831z"/>
</g>
<g>
	
		<linearGradient id="SVGID_3_" gradientUnits="userSpaceOnUse" x1="603.2422" y1="708.8125" x2="603.2422" y2="452.1719" gradientTransform="matrix(1 0 0 1 -586.8008 -564.0508)">
		<stop  offset="0" style="stop-color:#C5E2E8"/>
		<stop  offset="1" style="stop-color:#F2FBFF"/>
	</linearGradient>
	<path fill="url(#SVGID_3_)" d="M144.762,121.293c0,12.965-10.723,23.469-23.932,23.469H-87.943
		c-13.22,0-23.935-10.504-23.935-23.469v-209.71c0-12.973,10.715-23.461,23.935-23.461H120.83c13.209,0,23.932,10.488,23.932,23.461
		V121.293z"/>
</g>
<path fill="#F5FCFF" d="M-81.982,2.173c9.352-36.426,42.944-64.672,99.926-64.672c56.999,0,90.666,29.52,96.897,66.612
	c3.99,23.743-20.185,60.186-61.808,68.973c2.478,8.465,10.771,31.072,19.98,36.042c0,0-61.756,0-85.699-34.114
	C-56.601,67.215-89.519,31.541-81.982,2.173z"/>
<g>
	<g>
		<path fill="#14607A" d="M-82.15-0.829c0-37.543,44.116-67.965,98.504-67.965c54.396,0,98.496,30.421,98.496,67.965
			c0,30.324-32.53,56.05-72.265,64.805c2.352,8.45,10.543,34.851,19.346,39.813c0,0-46.2-3.754-70.853-34.795
			C-50.843,61.21-82.15,30.585-82.15-0.829z"/>
	</g>
</g>
<g>
	<g>
		
			<linearGradient id="SVGID_4_" gradientUnits="userSpaceOnUse" x1="603.1494" y1="695.5029" x2="603.1494" y2="496.4282" gradientTransform="matrix(1 0 0 1 -586.8008 -564.0508)">
			<stop  offset="0" style="stop-color:#A3E4FF"/>
			<stop  offset="1" style="stop-color:#147BC0"/>
		</linearGradient>
		<path fill="url(#SVGID_4_)" d="M-82.15,6.179c0-37.935,44.116-68.678,98.504-68.678c54.396,0,98.496,30.743,98.496,68.678
			c0,30.638-28.791,56.56-68.51,65.409c2.336,8.537,8.67,28.51,17.465,33.526c0,0-48.455-1.349-73.095-32.703
			C-51.231,64.533-82.15,37.914-82.15,6.179z"/>
	</g>
</g>
<g>
	
		<linearGradient id="SVGID_5_" gradientUnits="userSpaceOnUse" x1="608.0098" y1="608.3525" x2="608.0098" y2="522.7275" gradientTransform="matrix(1 0 0 1 -586.8008 -564.0508)">
		<stop  offset="0" style="stop-color:#A3E4FF;stop-opacity:0.65"/>
		<stop  offset="1" style="stop-color:#0D5280"/>
	</linearGradient>
	<path fill="url(#SVGID_5_)" d="M84.577-24.862h-5.668l-1.45,1.395c-2.947-1.395-6.302-2.132-9.899-2.132
		c-6.78,0-13.718,3.096-18.641,8.861c-4.719-5.491-11.593-8.861-19.753-8.861c-6.318,0-11.864,2.022-16.293,5.424V-31.94
		l-9.367-9.383h-6.408l-8.121,8.121c-0.051-0.04-0.083-0.086-0.122-0.114c-4.766-3.97-10.747-5.746-19.393-5.746
		c-5.017,0-10.147,0.505-13.71,1.34l-7.223,9.128v48.168l8.082,9.27c2.214,0.306,5.95,0.666,11.111,0.666
		c10.539,0,17.849-2.203,22.956-6.859l6.419,6.451h6.408l6.635-6.639c4.641,4.648,11.037,7.446,18.453,7.446
		c7.548,0,15.081-3.183,20.247-9.202c0.674,0.768,1.262,1.583,2.007,2.273l-3.488,1.199l-1.6,4.954l3.724,10.668
		c4.209,2.822,10.543,4.499,16.908,4.499c7.572,0,14.376-2.336,19.274-6.749c7.173-6.702,7.98-16.327,7.98-22.994V-5.885
		c0-3.864,0.063-6.529,0.243-8.783L84.577-24.862z M28.884,6.363c-0.329-0.192-1.247-1.533-1.247-4.182
		c0-2.547,0.839-4.029,1.066-4.225c0,0,0.109-0.031,0.329-0.031l0.031-0.055c0.416,0.337,1.16,2.038,1.16,4.15
		C30.208,4.78,29.197,6.187,28.884,6.363z M68.523-1.609l-0.259,6.961c-0.251-0.251-0.792-1.376-0.792-3.332
		c0-2.657,0.792-3.798,0.926-3.919c0.016,0,0.063-0.016,0.164-0.016L68.523-1.609z"/>
	<g>
		<path fill="#FFFFFF" d="M-45.035-30c2.9-0.674,7.537-1.141,12.115-1.141c6.62,0,10.884,1.141,14.007,3.735
			c2.673,1.976,4.343,5.025,4.343,9.062c0,5.024-3.347,9.359-8.677,11.268v0.211c4.864,1.145,10.578,5.186,10.578,12.801
			c0,4.417-1.752,7.842-4.417,10.276c-3.496,3.273-9.285,4.793-17.665,4.793c-4.566,0-8.058-0.298-10.276-0.604L-45.035-30
			L-45.035-30z M-38.411-8.985h6.02c6.925,0,11.037-3.731,11.037-8.677c0-5.946-4.496-8.372-11.19-8.372
			c-3.049,0-4.809,0.231-5.867,0.451V-8.985z M-38.411,15.53c1.364,0.231,3.202,0.302,5.562,0.302
			c6.847,0,13.173-2.512,13.173-9.967c0-6.937-6.02-9.908-13.243-9.908h-5.491V15.53z"/>
		<path fill="#FFFFFF" d="M-4.023-33.492h6.702v54.043h-6.702V-33.492z"/>
		<path fill="#FFFFFF" d="M47.272,1.829c0,13.627-9.523,19.569-18.334,19.569c-9.904,0-17.672-7.313-17.672-18.961
			c0-12.248,8.156-19.487,18.276-19.487C40.124-17.051,47.272-9.361,47.272,1.829z M18.121,2.205
			c0,8.074,4.563,14.176,11.115,14.176c6.396,0,11.193-6.02,11.193-14.313c0-6.243-3.12-14.086-11.037-14.086
			C21.555-12.026,18.121-4.709,18.121,2.205z"/>
		<path fill="#FFFFFF" d="M87.211,15.143c0,8.528-1.756,13.631-5.244,16.916c-3.653,3.276-8.834,4.405-13.475,4.405
			c-4.421,0-9.289-1.066-12.268-3.058l1.678-5.182c2.453,1.607,6.247,2.972,10.825,2.972c6.858,0,11.875-3.56,11.875-12.946v-4.021
			h-0.148c-1.991,3.425-6.021,6.166-11.742,6.166c-9.141,0-15.678-7.772-15.678-17.966c0-12.479,8.137-19.487,16.681-19.487
			c6.381,0,9.814,3.272,11.491,6.306h0.157l0.235-5.546h5.926c-0.22,2.587-0.313,5.636-0.313,10.042V15.143L87.211,15.143z
			 M80.517-1.762c0-1.141-0.063-2.128-0.376-2.947c-1.216-3.962-4.43-7.18-9.359-7.18c-6.396,0-10.975,5.424-10.975,13.941
			c0,7.231,3.739,13.236,10.888,13.236c4.179,0,7.909-2.575,9.281-6.855c0.376-1.133,0.51-2.415,0.51-3.563v-6.632H80.517z"/>
	</g>
</g>
</svg>
