<?xml version="1.0" encoding="utf-8"?>
<!-- Generator: Adobe Illustrator 15.1.0, SVG Export Plug-In . SVG Version: 6.00 Build 0)  -->
<!DOCTYPE svg PUBLIC "-//W3C//DTD SVG 1.0//EN" "http://www.w3.org/TR/2001/REC-SVG-20010904/DTD/svg10.dtd">
<svg version="1.0" id="Layer_1" xmlns="http://www.w3.org/2000/svg" xmlns:xlink="http://www.w3.org/1999/xlink" x="0px" y="0px"
	 width="64px" height="64px" viewBox="0 0 64 64" enable-background="new 0 0 64 64" xml:space="preserve">
<linearGradient id="SVGID_1_" gradientUnits="userSpaceOnUse" x1="32.02" y1="-0.9053" x2="32.02" y2="62.9456" gradientTransform="matrix(1 0 0 -1 -0.02 63.0947)">
	<stop  offset="0" style="stop-color:#A5281A"/>
	<stop  offset="1" style="stop-color:#DA4A38"/>
</linearGradient>
<path fill="url(#SVGID_1_)" d="M64,56c0,4.418-3.582,8-8,8H8c-4.418,0-8-3.582-8-8V8c0-4.418,3.582-8,8-8h48c4.418,0,8,3.582,8,8V56
	z"/>
<g>
	<polygon fill="#FFFFFF" points="54.5,15.5 54.5,5.5 48.5,5.5 48.5,15.5 38.5,15.5 38.5,21.5 48.5,21.5 48.5,31.5 54.5,31.5 
		54.5,21.5 64,21.5 64,15.5 	"/>
	<path fill="#FFFFFF" d="M37.26,5c0,0-16.007,0-21.677,0C9.356,5,3.721,7.601,0,11.474v22.431c2.79,2.794,6.775,4.51,11.785,4.51
		c0.719,0,1.417-0.037,2.102-0.086c-0.671,1.287-1.151,2.721-1.151,4.226c0,2.532,1.393,3.978,3.117,5.653
		c-1.303,0-2.56,0.035-3.932,0.035c-4.55,0-8.595,1.143-11.921,2.979V56c0,0.626,0.079,1.231,0.215,1.815
		c2.561-4.071,8.084-7.011,14.34-7.011c0.074,0,0.146,0,0.22,0c2.031,0.021,3.923,0.348,5.642,0.904
		c4.725,3.285,8.536,5.338,9.493,9.082c0.179,0.758,0.277,1.539,0.277,2.338c0,0.295-0.019,0.582-0.036,0.871h6.612
		c0.094-0.598,0.155-1.197,0.155-1.798c0-6.566-1.417-9.869-8.417-15.119c-2.009-1.508-6.382-4.599-6.382-6.672
		c0-2.431,0.694-3.629,4.353-6.486c3.75-2.931,6.405-6.793,6.405-11.585c0-5.22-2.135-9.957-6.15-12.257h5.69L37.26,5z
		 M16.27,35.107c-0.098,0-0.197-0.002-0.297-0.004C10.13,34.927,4.578,29.567,3.569,21.896C2.576,14.334,6.367,8.521,12.068,8.521
		c0.084,0,0.168,0.002,0.252,0.004c5.841,0.176,10.838,6.47,11.846,14.142C25.157,30.208,21.926,35.107,16.27,35.107z"/>
</g>
</svg>
