<?xml version="1.0" encoding="UTF-8"?>
<!-- Generator: Adobe Illustrator 18.0.0, SVG Export Plug-In . SVG Version: 6.00 Build 0)  -->
<!DOCTYPE svg PUBLIC "-//W3C//DTD SVG 1.0//EN" "http://www.w3.org/TR/2001/REC-SVG-20010904/DTD/svg10.dtd">
<svg version="1.0" xmlns="http://www.w3.org/2000/svg" xmlns:xlink="http://www.w3.org/1999/xlink" x="0px" y="0px" width="480px" height="65px" viewBox="0 0 480 65" style="enable-background:new 0 0 480 65;" xml:space="preserve">
<style type="text/css">
	.st0{display:none;}
	.st1{display:inline;fill:#3FA9F5;}
	.st2{display:inline;}
	.st3{fill:#FFFFFF;}
	.st4{opacity:0.5;fill:#FFFFFF;enable-background:new    ;}
</style>
<g id="Ebene_5" class="st0" style="background: black;">
	<rect class="st1" width="480" height="65"/>
</g>
<g id="Guidance" class="st0">
</g>
<g id="Icons" class="st0">
	<g class="st2">
		<g>
			<polygon class="st3" points="14.6,56 0,56 0,51.1 1.4,51.1 1.4,54.8 13.4,54.8 13.4,51.1 14.6,51.1    "/>
			<path class="st3" d="M2.3,46.3c0.2,0,3,0,3,0v-5.8h3.9v5.8h3l-4.9,6.9L2.3,46.3z"/>
			<polygon class="st4" points="11.7,40 15.5,43.8 15.5,40    "/>
		</g>
		<path class="st3" d="M40,50.4c0-0.5,0-9.4,0-9.8c0-0.5,0.4-0.8,0.7-0.5c0.3,0.2,6.2,4.5,6.7,4.9c0.3,0.2,0.3,0.8,0,1.1    c-0.4,0.3-6.2,4.6-6.6,4.9C40.4,51.1,40,50.9,40,50.4z"/>
		<g id="Sound_3_">
			<path class="st3" d="M87.5,45.5c0-1.7,0-3.3,0-5c0-0.2-0.4-0.4-0.7-0.5c-0.2-0.1-0.6,0-0.7,0.2c-1.1,0.9-2.3,1.9-3.4,2.8     c-0.1,0.1-0.3,0.2-0.5,0.2c-0.5,0-1.1,0-1.6,0c-0.4,0-0.6,0.1-0.6,0.5c0,1.3,0,2.5,0,3.8c0,0.4,0.1,0.5,0.5,0.5     c0.5,0,1.1,0,1.6,0c0.2,0,0.4,0,0.6,0.2c1.1,0.9,2.1,1.8,3.2,2.7c0.2,0.1,0.8,0.3,1,0.2s0.6-0.3,0.6-0.5     C87.5,48.8,87.5,47.2,87.5,45.5z"/>
			<path class="st3" d="M91.3,41.4c-0.2-0.2-0.4-0.5-0.6-0.7s-0.4-0.2-0.6,0s-0.2,0.4,0,0.6c0,0.1,0.1,0.1,0.1,0.2     c1.3,1.4,1.7,3.1,1.4,5c-0.1,1.2-0.6,2.2-1.4,3.1c-0.2,0.2-0.2,0.3-0.1,0.6c0.2,0.3,0.5,0.3,0.8,0c1.3-1.3,1.9-2.9,1.9-4.7     C92.7,44,92.2,42.6,91.3,41.4z"/>
			<path class="st3" d="M90.8,44.4c-0.2-1-0.6-1.8-1.3-2.5c-0.2-0.2-0.4-0.3-0.6-0.1s-0.2,0.4,0,0.7c0,0,0,0,0.1,0.1     c1,1.1,1.3,2.4,1,3.9c-0.2,0.7-0.5,1.4-1.1,1.9c-0.2,0.2-0.2,0.4,0,0.6s0.4,0.2,0.7,0l0.1-0.1c0.9-1,1.3-2.1,1.3-3.4     C90.9,45.1,90.9,44.8,90.8,44.4z"/>
			<path class="st3" d="M88.4,43c-0.3-0.3-0.5-0.3-0.7-0.1s-0.2,0.4,0.1,0.7c1,1.1,1,2.6,0,3.7c-0.3,0.3-0.3,0.5-0.1,0.7     c0.2,0.2,0.4,0.2,0.7-0.1c0.7-0.7,1-1.5,1-2.3C89.4,44.5,89,43.7,88.4,43z"/>
		</g>
		<g>
			<g>
				<g>
					<path class="st3" d="M126.1,47.8h-5.7c-0.2,0-0.3,0.2-0.3,0.4s0.2,0.4,0.3,0.4h5.7c0.2,0,0.3-0.2,0.3-0.4       S126.2,47.8,126.1,47.8z"/>
				</g>
			</g>
			<g>
				<g>
					<path class="st3" d="M126.1,49.7h-5.7c-0.2,0-0.3,0.2-0.3,0.4s0.2,0.4,0.3,0.4h5.7c0.2,0,0.3-0.2,0.3-0.4       S126.2,49.7,126.1,49.7z"/>
				</g>
			</g>
			<g>
				<g>
					<path class="st3" d="M126.1,51.6h-5.7c-0.2,0-0.3,0.2-0.3,0.4s0.2,0.4,0.3,0.4h5.7c0.2,0,0.3-0.2,0.3-0.4       S126.2,51.6,126.1,51.6z"/>
				</g>
			</g>
			<g>
				<g>
					<path class="st3" d="M124.3,53.4h-4c-0.2,0-0.3,0.2-0.3,0.4s0.2,0.4,0.3,0.4h3.9c0.2,0,0.3-0.2,0.3-0.4       C124.6,53.6,124.5,53.4,124.3,53.4z"/>
				</g>
			</g>
			<polygon class="st3" points="134.5,56 126.5,56 126.5,53.4 127.2,53.4 127.2,55.3 133.8,55.3 133.8,53.4 134.5,53.4    "/>
			<path class="st3" d="M127.8,50.7c0.1,0,1.6,0,1.6,0v-3.1h2.1v3.1h1.6l-2.6,3.7L127.8,50.7z"/>
			<polygon class="st4" points="131.6,40 135.3,43.8 135.3,40    "/>
			<g>
				<path class="st3" d="M120,41.7h0.7c0.6,0,1,0,1.2,0.1c0.3,0.1,0.5,0.2,0.6,0.5c0.1,0.2,0.2,0.4,0.2,0.7c0,0.4-0.1,0.6-0.3,0.9      c-0.2,0.1-0.4,0.3-0.8,0.3c-0.2,0-0.4,0-0.7,0h-0.3V46h-0.5L120,41.7L120,41.7z M120.5,43.8h0.3c0.4,0,0.6,0,0.8-0.1      c0.4-0.1,0.6-0.4,0.6-0.8c0-0.3-0.1-0.5-0.2-0.6s-0.3-0.2-0.5-0.2s-0.4,0-0.7,0h-0.3L120.5,43.8z"/>
				<path class="st3" d="M123.5,41.7h0.7c0.4,0,0.7,0,0.9,0c0.5,0.1,0.9,0.3,1.2,0.7c0.3,0.4,0.4,0.9,0.4,1.4c0,0.6-0.2,1.1-0.5,1.5      s-0.7,0.6-1.2,0.7c-0.2,0-0.5,0-0.9,0h-0.6V41.7z M124,45.6h0.3c0.3,0,0.5,0,0.7,0c0.3,0,0.5-0.1,0.7-0.3s0.3-0.4,0.4-0.7      c0.1-0.2,0.1-0.4,0.1-0.7c0-0.5-0.1-0.9-0.4-1.3c-0.2-0.3-0.5-0.4-0.8-0.5c-0.2,0-0.4,0-0.8,0H124V45.6z"/>
				<path class="st3" d="M128.2,43.7h1.8v0.4h-1.8v2h-0.5v-4.4h2.4v0.4h-1.9V43.7z"/>
			</g>
		</g>
		<g>
			<g>
				<g>
					<g>
						<path class="st3" d="M166.1,47.8h-5.7c-0.2,0-0.3,0.2-0.3,0.4s0.2,0.4,0.3,0.4h5.7c0.2,0,0.3-0.2,0.3-0.4        C166.4,48,166.2,47.8,166.1,47.8z"/>
					</g>
				</g>
				<g>
					<g>
						<path class="st3" d="M166.1,49.7h-5.7c-0.2,0-0.3,0.2-0.3,0.4s0.2,0.4,0.3,0.4h5.7c0.2,0,0.3-0.2,0.3-0.4        C166.4,49.9,166.2,49.7,166.1,49.7z"/>
					</g>
				</g>
				<g>
					<g>
						<path class="st3" d="M166.1,51.6h-5.7c-0.2,0-0.3,0.2-0.3,0.4s0.2,0.4,0.3,0.4h5.7c0.2,0,0.3-0.2,0.3-0.4        C166.4,51.8,166.2,51.6,166.1,51.6z"/>
					</g>
				</g>
				<g>
					<g>
						<path class="st3" d="M164.3,53.4h-4c-0.2,0-0.3,0.2-0.3,0.4s0.2,0.4,0.3,0.4h3.9c0.2,0,0.3-0.2,0.3-0.4        C164.6,53.6,164.5,53.4,164.3,53.4z"/>
					</g>
				</g>
				<polygon class="st3" points="174.5,56 166.5,56 166.5,53.4 167.2,53.4 167.2,55.3 173.8,55.3 173.8,53.4 174.5,53.4     "/>
				<path class="st3" d="M167.8,50.7c0.1,0,1.6,0,1.6,0v-3.1h2.1v3.1h1.6l-2.6,3.7L167.8,50.7z"/>
				<polygon class="st4" points="171.6,40 175.3,43.8 175.3,40     "/>
			</g>
			<g>
				<path class="st3" d="M160.6,41.7l1,1.7l1-1.7h0.6l-1.3,2.1l1.4,2.3h-0.6l-1.1-1.8l-1.1,1.8H160l1.4-2.3l-1.3-2.1H160.6z"/>
				<path class="st3" d="M164.5,41.7v3.9h1.9V46H164v-4.3H164.5z"/>
				<path class="st3" d="M169,42.8c0-0.5-0.4-0.8-0.8-0.8c-0.5,0-0.8,0.3-0.8,0.7c0,0.2,0.1,0.3,0.3,0.5c0.1,0.1,0.1,0.1,0.8,0.4      c0.6,0.2,0.8,0.4,0.9,0.6c0.2,0.2,0.3,0.5,0.3,0.7c0,0.7-0.6,1.2-1.4,1.2c-0.5,0-0.9-0.2-1.2-0.5c-0.2-0.2-0.3-0.5-0.3-0.9h0.5      c0,0.6,0.4,1,1,1c0.5,0,0.9-0.3,0.9-0.7c0-0.2-0.1-0.4-0.3-0.5c-0.1-0.1-0.2-0.2-0.7-0.4c-0.4-0.2-0.7-0.4-0.9-0.5      c-0.3-0.2-0.4-0.5-0.4-0.8c0-0.7,0.5-1.1,1.3-1.1c0.5,0,0.8,0.2,1.1,0.5c0.1,0.2,0.2,0.4,0.2,0.7C169.5,42.8,169,42.8,169,42.8z      "/>
			</g>
		</g>
		<g>
			<g>
				<g>
					<g>
						<path class="st3" d="M206.1,47.8h-5.7c-0.2,0-0.3,0.2-0.3,0.4s0.2,0.4,0.3,0.4h5.7c0.2,0,0.3-0.2,0.3-0.4        C206.4,48,206.2,47.8,206.1,47.8z"/>
					</g>
				</g>
				<g>
					<g>
						<path class="st3" d="M206.1,49.7h-5.7c-0.2,0-0.3,0.2-0.3,0.4s0.2,0.4,0.3,0.4h5.7c0.2,0,0.3-0.2,0.3-0.4        C206.4,49.9,206.2,49.7,206.1,49.7z"/>
					</g>
				</g>
				<g>
					<g>
						<path class="st3" d="M206.1,51.6h-5.7c-0.2,0-0.3,0.2-0.3,0.4s0.2,0.4,0.3,0.4h5.7c0.2,0,0.3-0.2,0.3-0.4        C206.4,51.8,206.2,51.6,206.1,51.6z"/>
					</g>
				</g>
				<g>
					<g>
						<path class="st3" d="M204.3,53.4h-4c-0.2,0-0.3,0.2-0.3,0.4s0.2,0.4,0.3,0.4h3.9c0.2,0,0.3-0.2,0.3-0.4        C204.6,53.6,204.5,53.4,204.3,53.4z"/>
					</g>
				</g>
				<polygon class="st3" points="214.5,56 206.5,56 206.5,53.4 207.2,53.4 207.2,55.3 213.8,55.3 213.8,53.4 214.5,53.4     "/>
				<path class="st3" d="M207.8,50.7c0.1,0,1.6,0,1.6,0v-3.1h2.1v3.1h1.6l-2.6,3.7L207.8,50.7z"/>
				<polygon class="st4" points="211.6,40 215.3,43.8 215.3,40     "/>
			</g>
			<g>
				<path class="st3" d="M200.7,41.7c0.8,0,1.2,0.1,1.5,0.2c0.6,0.3,1,1.1,1,1.9c0,0.9-0.4,1.6-1,1.9c-0.4,0.2-0.6,0.2-1.5,0.2H200      v-4.3L200.7,41.7L200.7,41.7z M200.8,45.6c0.7,0,0.9,0,1.2-0.2c0.4-0.3,0.7-0.8,0.7-1.5s-0.3-1.3-0.8-1.6      c-0.3-0.1-0.5-0.2-1.2-0.2h-0.2v3.5H200.8L200.8,45.6z"/>
				<path class="st3" d="M207.4,43.9c0,1.3-0.7,2.2-1.8,2.2s-1.8-0.9-1.8-2.3c0-1.3,0.7-2.2,1.8-2.2      C206.7,41.6,207.4,42.5,207.4,43.9z M204.4,43.8c0,1.1,0.5,1.8,1.2,1.8s1.2-0.7,1.2-1.8s-0.5-1.8-1.2-1.8S204.4,42.8,204.4,43.8      z"/>
				<path class="st3" d="M210.8,42.9c-0.1-0.6-0.5-0.9-1-0.9c-0.8,0-1.3,0.7-1.3,1.8s0.5,1.8,1.3,1.8c0.6,0,1-0.4,1-1.1h0.5      c-0.1,1-0.6,1.5-1.5,1.5c-1.1,0-1.8-0.9-1.8-2.2c0-1.4,0.7-2.3,1.8-2.3c0.8,0,1.3,0.5,1.4,1.3L210.8,42.9L210.8,42.9z"/>
			</g>
		</g>
		<g>
			<g>
				<g>
					<g>
						<path class="st3" d="M246.1,47.8h-5.7c-0.2,0-0.3,0.2-0.3,0.4s0.2,0.4,0.3,0.4h5.7c0.2,0,0.3-0.2,0.3-0.4        C246.4,48,246.2,47.8,246.1,47.8z"/>
					</g>
				</g>
				<g>
					<g>
						<path class="st3" d="M246.1,49.7h-5.7c-0.2,0-0.3,0.2-0.3,0.4s0.2,0.4,0.3,0.4h5.7c0.2,0,0.3-0.2,0.3-0.4        C246.4,49.9,246.2,49.7,246.1,49.7z"/>
					</g>
				</g>
				<g>
					<g>
						<path class="st3" d="M246.1,51.6h-5.7c-0.2,0-0.3,0.2-0.3,0.4s0.2,0.4,0.3,0.4h5.7c0.2,0,0.3-0.2,0.3-0.4        C246.4,51.8,246.2,51.6,246.1,51.6z"/>
					</g>
				</g>
				<g>
					<g>
						<path class="st3" d="M244.3,53.4h-4c-0.2,0-0.3,0.2-0.3,0.4s0.2,0.4,0.3,0.4h3.9c0.2,0,0.3-0.2,0.3-0.4        C244.6,53.6,244.5,53.4,244.3,53.4z"/>
					</g>
				</g>
				<polygon class="st3" points="254.5,56 246.5,56 246.5,53.4 247.2,53.4 247.2,55.3 253.8,55.3 253.8,53.4 254.5,53.4     "/>
				<path class="st3" d="M247.8,50.7c0.1,0,1.6,0,1.6,0v-3.1h2.1v3.1h1.6l-2.6,3.7L247.8,50.7z"/>
				<polygon class="st4" points="251.6,40 255.3,43.8 255.3,40     "/>
			</g>
			<g>
				<path class="st3" d="M242.7,41.7v0.4h-1.1V46h-0.5v-3.9H240v-0.4L242.7,41.7z"/>
				<path class="st3" d="M243.6,41.7l1,1.7l1-1.7h0.6l-1.3,2.1l1.4,2.3h-0.6l-1.1-1.8l-1.1,1.8H243l1.4-2.3l-1.3-2.1H243.6z"/>
				<path class="st3" d="M249.3,41.7v0.4h-1.1V46h-0.5v-3.9h-1.1v-0.4L249.3,41.7z"/>
			</g>
		</g>
		<g>
			<g>
				<g>
					<g>
						<path class="st3" d="M286.1,47.8h-5.7c-0.2,0-0.3,0.2-0.3,0.4s0.2,0.4,0.3,0.4h5.7c0.2,0,0.3-0.2,0.3-0.4        S286.2,47.8,286.1,47.8z"/>
					</g>
				</g>
				<g>
					<g>
						<path class="st3" d="M286.1,49.7h-5.7c-0.2,0-0.3,0.2-0.3,0.4s0.2,0.4,0.3,0.4h5.7c0.2,0,0.3-0.2,0.3-0.4        S286.2,49.7,286.1,49.7z"/>
					</g>
				</g>
				<g>
					<g>
						<path class="st3" d="M286.1,51.6h-5.7c-0.2,0-0.3,0.2-0.3,0.4s0.2,0.4,0.3,0.4h5.7c0.2,0,0.3-0.2,0.3-0.4        S286.2,51.6,286.1,51.6z"/>
					</g>
				</g>
				<g>
					<g>
						<path class="st3" d="M284.3,53.4h-4c-0.2,0-0.3,0.2-0.3,0.4s0.2,0.4,0.3,0.4h3.9c0.2,0,0.3-0.2,0.3-0.4        C284.6,53.6,284.5,53.4,284.3,53.4z"/>
					</g>
				</g>
				<polygon class="st3" points="294.5,56 286.5,56 286.5,53.4 287.2,53.4 287.2,55.3 293.8,55.3 293.8,53.4 294.5,53.4     "/>
				<path class="st3" d="M287.8,50.7c0.1,0,1.6,0,1.6,0v-3.1h2.1v3.1h1.6l-2.6,3.7L287.8,50.7z"/>
				<polygon class="st4" points="291.6,40 295.3,43.8 295.3,40     "/>
			</g>
			<g>
				<path class="st3" d="M282.8,41.7V42l-2.2,3.6h2.2V46H280v-0.4l2.2-3.5h-2.1v-0.4L282.8,41.7z"/>
				<path class="st3" d="M283.6,46v-4.3h0.5V46H283.6z"/>
				<path class="st3" d="M285.9,41.7c0.6,0,0.9,0,1.2,0.1c0.5,0.2,0.8,0.6,0.8,1.2c0,0.5-0.3,1-0.7,1.1c-0.3,0.1-0.5,0.1-1.2,0.1      h-0.3V46h-0.5v-4.3H285.9L285.9,41.7z M286,43.8c0.4,0,0.6,0,0.8-0.1c0.4-0.1,0.6-0.4,0.6-0.8c0-0.4-0.2-0.7-0.4-0.8      c-0.2-0.1-0.4-0.1-1-0.1h-0.3v1.7C285.6,43.8,286,43.8,286,43.8z"/>
			</g>
		</g>
		<g>
			<g>
				<g>
					<g>
						<path class="st3" d="M326.1,47.8h-5.7c-0.2,0-0.3,0.2-0.3,0.4s0.2,0.4,0.3,0.4h5.7c0.2,0,0.3-0.2,0.3-0.4        S326.2,47.8,326.1,47.8z"/>
					</g>
				</g>
				<g>
					<g>
						<path class="st3" d="M326.1,49.7h-5.7c-0.2,0-0.3,0.2-0.3,0.4s0.2,0.4,0.3,0.4h5.7c0.2,0,0.3-0.2,0.3-0.4        S326.2,49.7,326.1,49.7z"/>
					</g>
				</g>
				<g>
					<g>
						<path class="st3" d="M326.1,51.6h-5.7c-0.2,0-0.3,0.2-0.3,0.4s0.2,0.4,0.3,0.4h5.7c0.2,0,0.3-0.2,0.3-0.4        S326.2,51.6,326.1,51.6z"/>
					</g>
				</g>
				<g>
					<g>
						<path class="st3" d="M324.3,53.4h-4c-0.2,0-0.3,0.2-0.3,0.4s0.2,0.4,0.3,0.4h3.9c0.2,0,0.3-0.2,0.3-0.4        C324.6,53.6,324.5,53.4,324.3,53.4z"/>
					</g>
				</g>
				<polygon class="st3" points="334.5,56 326.5,56 326.5,53.4 327.2,53.4 327.2,55.3 333.8,55.3 333.8,53.4 334.5,53.4     "/>
				<path class="st3" d="M327.8,50.7c0.1,0,1.6,0,1.6,0v-3.1h2.1v3.1h1.6l-2.6,3.7L327.8,50.7z"/>
				<polygon class="st4" points="331.6,40 335.3,43.8 335.3,40     "/>
			</g>
			<g>
				<path class="st3" d="M320.7,41.7c0.6,0,0.9,0,1.2,0.1c0.5,0.2,0.8,0.6,0.8,1.2c0,0.5-0.3,1-0.7,1.1c-0.3,0.1-0.5,0.1-1.2,0.1      h-0.3V46H320v-4.3H320.7L320.7,41.7z M320.8,43.8c0.4,0,0.6,0,0.8-0.1c0.4-0.1,0.6-0.4,0.6-0.8c0-0.4-0.2-0.7-0.4-0.8      c-0.2-0.1-0.4-0.1-1-0.1h-0.3v1.7C320.5,43.8,320.8,43.8,320.8,43.8z"/>
				<path class="st3" d="M324.1,41.7c0.6,0,0.9,0,1.2,0.1c0.5,0.2,0.8,0.6,0.8,1.2c0,0.5-0.3,1-0.7,1.1c-0.3,0.1-0.5,0.1-1.2,0.1      h-0.3V46h-0.5v-4.3H324.1L324.1,41.7z M324.2,43.8c0.4,0,0.6,0,0.8-0.1c0.4-0.1,0.6-0.4,0.6-0.8c0-0.4-0.2-0.7-0.4-0.8      c-0.2-0.1-0.4-0.1-1-0.1h-0.3v1.7C323.9,43.8,324.2,43.8,324.2,43.8z"/>
				<path class="st3" d="M329.2,41.7v0.4H328V46h-0.5v-3.9h-1.1v-0.4L329.2,41.7z"/>
			</g>
		</g>
		<g>
			<g>
				<g>
					<g>
						<path class="st3" d="M366.1,47.8h-5.7c-0.2,0-0.3,0.2-0.3,0.4s0.2,0.4,0.3,0.4h5.7c0.2,0,0.3-0.2,0.3-0.4        S366.2,47.8,366.1,47.8z"/>
					</g>
				</g>
				<g>
					<g>
						<path class="st3" d="M366.1,49.7h-5.7c-0.2,0-0.3,0.2-0.3,0.4s0.2,0.4,0.3,0.4h5.7c0.2,0,0.3-0.2,0.3-0.4        S366.2,49.7,366.1,49.7z"/>
					</g>
				</g>
				<g>
					<g>
						<path class="st3" d="M366.1,51.6h-5.7c-0.2,0-0.3,0.2-0.3,0.4s0.2,0.4,0.3,0.4h5.7c0.2,0,0.3-0.2,0.3-0.4        S366.2,51.6,366.1,51.6z"/>
					</g>
				</g>
				<g>
					<g>
						<path class="st3" d="M364.3,53.4h-4c-0.2,0-0.3,0.2-0.3,0.4s0.2,0.4,0.3,0.4h3.9c0.2,0,0.3-0.2,0.3-0.4        C364.6,53.6,364.5,53.4,364.3,53.4z"/>
					</g>
				</g>
				<polygon class="st3" points="374.5,56 366.5,56 366.5,53.4 367.2,53.4 367.2,55.3 373.8,55.3 373.8,53.4 374.5,53.4     "/>
				<path class="st3" d="M367.8,50.7c0.1,0,1.6,0,1.6,0v-3.1h2.1v3.1h1.6l-2.6,3.7L367.8,50.7z"/>
				<polygon class="st4" points="371.6,40 375.3,43.8 375.3,40     "/>
			</g>
			<g>
				<path class="st3" d="M360.7,41.7l1.2,3.8l1.2-3.8h0.7V46h-0.5v-3.8l-1.2,3.8h-0.5l-1.2-3.8V46H360v-4.3H360.7z"/>
				<path class="st3" d="M365.7,41.7c0.6,0,0.9,0,1.2,0.1c0.5,0.2,0.8,0.6,0.8,1.2c0,0.5-0.3,1-0.7,1.1c-0.3,0.1-0.5,0.1-1.2,0.1      h-0.3V46H365v-4.3H365.7L365.7,41.7z M365.8,43.8c0.4,0,0.6,0,0.8-0.1c0.4-0.1,0.6-0.4,0.6-0.8c0-0.4-0.2-0.7-0.4-0.8      c-0.2-0.1-0.4-0.1-1-0.1h-0.3v1.7C365.5,43.8,365.8,43.8,365.8,43.8z"/>
				<path class="st3" d="M368.4,42.9c0-0.7,0.5-1.1,1.2-1.1s1.2,0.4,1.2,1.1c0,0.4-0.2,0.7-0.6,0.9c0.5,0.2,0.8,0.5,0.8,1.1      c0,0.8-0.5,1.3-1.3,1.3s-1.3-0.5-1.3-1.2v-0.1h0.4c0,0.5,0.3,0.8,0.9,0.8s0.9-0.3,0.9-0.9c0-0.6-0.3-0.8-1-0.8c0,0-0.1,0-0.2,0      v-0.4h0.2c0.5,0,0.9-0.3,0.9-0.7s-0.3-0.7-0.7-0.7s-0.7,0.2-0.8,0.7C368.9,42.9,368.4,42.9,368.4,42.9z"/>
			</g>
		</g>
		<g>
			<g>
				<g>
					<g>
						<path class="st3" d="M406.1,47.8h-5.7c-0.2,0-0.3,0.2-0.3,0.4s0.2,0.4,0.3,0.4h5.7c0.2,0,0.3-0.2,0.3-0.4        S406.2,47.8,406.1,47.8z"/>
					</g>
				</g>
				<g>
					<g>
						<path class="st3" d="M406.1,49.7h-5.7c-0.2,0-0.3,0.2-0.3,0.4s0.2,0.4,0.3,0.4h5.7c0.2,0,0.3-0.2,0.3-0.4        S406.2,49.7,406.1,49.7z"/>
					</g>
				</g>
				<g>
					<g>
						<path class="st3" d="M406.1,51.6h-5.7c-0.2,0-0.3,0.2-0.3,0.4s0.2,0.4,0.3,0.4h5.7c0.2,0,0.3-0.2,0.3-0.4        S406.2,51.6,406.1,51.6z"/>
					</g>
				</g>
				<g>
					<g>
						<path class="st3" d="M404.3,53.4h-4c-0.2,0-0.3,0.2-0.3,0.4s0.2,0.4,0.3,0.4h3.9c0.2,0,0.3-0.2,0.3-0.4        C404.6,53.6,404.5,53.4,404.3,53.4z"/>
					</g>
				</g>
				<polygon class="st3" points="414.5,56 406.5,56 406.5,53.4 407.2,53.4 407.2,55.3 413.8,55.3 413.8,53.4 414.5,53.4     "/>
				<path class="st3" d="M407.8,50.7c0.1,0,1.6,0,1.6,0v-3.1h2.1v3.1h1.6l-2.6,3.7L407.8,50.7z"/>
				<polygon class="st4" points="411.6,40 415.3,43.8 415.3,40     "/>
			</g>
			<g>
				<path class="st3" d="M400.7,41.7l1.2,3.8l1.2-3.8h0.7V46h-0.5v-3.8l-1.2,3.8h-0.5l-1.2-3.8V46H400v-4.3H400.7z"/>
				<path class="st3" d="M405.7,41.7c0.6,0,0.9,0,1.2,0.1c0.5,0.2,0.8,0.6,0.8,1.2c0,0.5-0.3,1-0.7,1.1c-0.3,0.1-0.5,0.1-1.2,0.1      h-0.3V46H405v-4.3H405.7L405.7,41.7z M405.8,43.8c0.4,0,0.6,0,0.8-0.1c0.4-0.1,0.6-0.4,0.6-0.8c0-0.4-0.2-0.7-0.4-0.8      c-0.2-0.1-0.4-0.1-1-0.1h-0.3v1.7C405.5,43.8,405.8,43.8,405.8,43.8z"/>
				<path class="st3" d="M411.1,44.6V45h-0.7v1.1h-0.5V45h-1.7v-0.4l1.7-2.9h0.5v2.8h0.7V44.6z M409.9,42.4l-1.3,2.2h1.3V42.4z"/>
			</g>
		</g>
		<g>
			<g>
				<g>
					<g>
						<path class="st3" d="M446.1,47.8h-5.7c-0.2,0-0.3,0.2-0.3,0.4s0.2,0.4,0.3,0.4h5.7c0.2,0,0.3-0.2,0.3-0.4        S446.2,47.8,446.1,47.8z"/>
					</g>
				</g>
				<g>
					<g>
						<path class="st3" d="M446.1,49.7h-5.7c-0.2,0-0.3,0.2-0.3,0.4s0.2,0.4,0.3,0.4h5.7c0.2,0,0.3-0.2,0.3-0.4        S446.2,49.7,446.1,49.7z"/>
					</g>
				</g>
				<g>
					<g>
						<path class="st3" d="M446.1,51.6h-5.7c-0.2,0-0.3,0.2-0.3,0.4s0.2,0.4,0.3,0.4h5.7c0.2,0,0.3-0.2,0.3-0.4        S446.2,51.6,446.1,51.6z"/>
					</g>
				</g>
				<g>
					<g>
						<path class="st3" d="M444.3,53.4h-4c-0.2,0-0.3,0.2-0.3,0.4s0.2,0.4,0.3,0.4h3.9c0.2,0,0.3-0.2,0.3-0.4        C444.6,53.6,444.5,53.4,444.3,53.4z"/>
					</g>
				</g>
				<polygon class="st3" points="454.5,56 446.5,56 446.5,53.4 447.2,53.4 447.2,55.3 453.8,55.3 453.8,53.4 454.5,53.4     "/>
				<path class="st3" d="M447.8,50.7c0.1,0,1.6,0,1.6,0v-3.1h2.1v3.1h1.6l-2.6,3.7L447.8,50.7z"/>
				<polygon class="st4" points="451.6,40 455.3,43.8 455.3,40     "/>
			</g>
			<g>
				<path class="st3" d="M440,46v-4.3h0.5V46H440z"/>
				<path class="st3" d="M442.3,41.7l1.2,3.8l1.2-3.8h0.7V46H445v-3.8l-1.2,3.8h-0.5l-1.2-3.8V46h-0.5v-4.3H442.3z"/>
				<path class="st3" d="M449.7,43.9v1.8c-0.4,0.3-0.9,0.4-1.4,0.4c-1.2,0-1.9-0.8-1.9-2.3c0-1.4,0.7-2.2,1.8-2.2      c0.8,0,1.3,0.5,1.4,1.3h-0.5c-0.1-0.6-0.4-0.8-1-0.8c-0.8,0-1.3,0.7-1.3,1.8c0,1.2,0.5,1.8,1.4,1.8c0.3,0,0.7-0.1,1-0.3v-1.1      h-0.9v-0.4H449.7L449.7,43.9z"/>
			</g>
		</g>
	</g>
	<g class="st2">
		<path class="st3" d="M40,24.6c0-1.2,0-22.2,0-23.1c0-1.1,0.9-1.9,1.8-1.2c0.8,0.4,14.5,10.6,15.7,11.4c0.8,0.6,0.8,1.9,0,2.5    S42.7,25,41.8,25.7C41,26.3,40,25.7,40,24.6z"/>
		<g id="Sound_6_">
			<path class="st3" d="M93.5,11.8c0-3.5,0-7.1,0-10.6c0-0.4,0.2-0.9-0.2-1.1s-0.8,0.1-1,0.2c-2.2,2-4.6,3.9-6.9,5.9     c-0.2,0.2-0.6,0.4-0.9,0.4c-1.1,0-2.2,0-3.4,0c-0.9,0-1.1,0.2-1.1,1.1c0,2.7,0,5.2,0,8c0,0.9,0.2,1.1,1.1,1.1c1.1,0,2.2,0,3.4,0     c0.5,0,0.8,0.1,1.2,0.4c2.2,1.9,4.5,3.7,6.7,5.7c0.4,0.2,0.5,0.6,1,0.4s0.2-0.8,0.2-1.2C93.5,18.7,93.5,15.2,93.5,11.8z"/>
			<path class="st3" d="M104,3c-0.4-0.5-0.8-1-1.2-1.4c-0.4-0.4-0.8-0.4-1.2,0c-0.4,0.4-0.4,0.8-0.1,1.2c0.1,0.1,0.2,0.3,0.2,0.3     c2.7,3.1,3.6,6.7,3,10.7c-0.4,2.6-1.5,4.7-3.2,6.6c-0.2,0.2-0.5,0.8-0.2,1.2c0.2,0.6,1.1,0.8,1.6,0.1c2.7-2.7,4-6.2,4-10     C106.7,8.5,105.9,5.6,104,3z"/>
			<path class="st3" d="M102.7,9.5c-0.4-2-1.4-3.7-2.7-5.2c-0.4-0.4-0.9-0.5-1.4-0.1c-0.4,0.2-0.4,0.9,0,1.4c0,0.1,0.1,0.1,0.2,0.2     c2.1,2.4,2.7,5.2,2,8.2c-0.4,1.6-1.2,2.9-2.2,4c-0.4,0.4-0.5,0.9-0.1,1.4c0.4,0.4,1,0.4,1.4-0.1c0.1-0.1,0.2-0.2,0.2-0.2     c1.9-2.1,2.7-4.5,2.7-7.2C103,11,103,10.2,102.7,9.5z"/>
			<path class="st3" d="M97.6,6.5c-0.5-0.6-1.1-0.8-1.5-0.2c-0.4,0.4-0.4,0.9,0.1,1.5c2.1,2.4,2.1,5.5,0,7.9     c-0.6,0.6-0.6,1.1-0.2,1.5c0.5,0.4,0.9,0.4,1.5-0.2c1.4-1.5,2.1-3.2,2.1-5C99.6,9.7,99,7.8,97.6,6.5z"/>
		</g>
		<g>
			<g>
				<g>
					<path class="st3" d="M132.2,15.7h-11.6c-0.4,0-0.6,0.2-0.6,0.8c0,0.4,0.2,0.8,0.6,0.8h11.5c0.4,0,0.6-0.2,0.6-0.8       C132.7,16.1,132.5,15.7,132.2,15.7z"/>
				</g>
			</g>
			<g>
				<g>
					<path class="st3" d="M132.2,19.5h-11.6c-0.4,0-0.6,0.2-0.6,0.8s0.2,0.8,0.6,0.8h11.5c0.4,0,0.6-0.2,0.6-0.8       C132.7,19.9,132.5,19.5,132.2,19.5z"/>
				</g>
			</g>
			<g>
				<g>
					<path class="st3" d="M132.2,23.4h-11.6c-0.4,0-0.6,0.2-0.6,0.8s0.2,0.8,0.6,0.8h11.5c0.4,0,0.6-0.2,0.6-0.8       C132.7,23.7,132.5,23.4,132.2,23.4z"/>
				</g>
			</g>
			<g>
				<g>
					<path class="st3" d="M128.7,27h-8.1c-0.4,0-0.6,0.2-0.6,0.8s0.2,0.8,0.6,0.8h8c0.4,0,0.6-0.2,0.6-0.8       C129.2,27.4,129,27,128.7,27z"/>
				</g>
			</g>
			<polygon class="st3" points="149,32.2 133.2,32.2 133.2,27 134.6,27 134.6,30.9 147.7,30.9 147.6,27 149,27    "/>
			<path class="st3" d="M135.7,21.4c0.1,0.1,3.2,0,3.2,0v-6.2h4.2v6.2h3.2l-5.2,7.6L135.7,21.4z"/>
			<polygon class="st4" points="143.2,0 150.6,7.7 150.6,0    "/>
			<g>
				<path class="st3" d="M121.4,3.5c1.2,0,1.9,0,2.4,0.2c1,0.2,1.5,1.2,1.5,2.4s-0.5,1.9-1.4,2.3c-0.5,0.2-1.1,0.2-2.4,0.2h-0.6v3.5      H120V3.5H121.4z M121.6,7.7c0.9,0,1.2,0,1.6-0.1c0.8-0.1,1.1-0.8,1.1-1.6s-0.4-1.4-0.9-1.5c-0.4-0.1-0.8-0.2-2-0.2H121v3.5      L121.6,7.7L121.6,7.7z"/>
				<path class="st3" d="M128.2,3.5c1.6,0,2.4,0.1,3,0.5c1.2,0.6,2,2.1,2,3.9s-0.8,3.2-2,3.9c-0.8,0.4-1.2,0.5-3.1,0.5h-1.2V3.6      L128.2,3.5L128.2,3.5z M128.5,11.4c1.4,0,1.8-0.1,2.4-0.5c0.9-0.5,1.4-1.6,1.4-3c0-1.5-0.5-2.6-1.5-3.1      c-0.5-0.2-0.9-0.4-2.5-0.4h-0.4v7H128.5L128.5,11.4z"/>
				<path class="st3" d="M139.5,7.2v0.9H136v4.1h-1V3.6h4.7v0.9H136v2.9L139.5,7.2C139.5,7.4,139.5,7.2,139.5,7.2z"/>
			</g>
		</g>
		<g>
			<g>
				<g>
					<path class="st3" d="M172.4,15.7h-11.6c-0.4,0-0.6,0.2-0.6,0.8c0,0.4,0.2,0.8,0.6,0.8h11.5c0.4,0,0.6-0.2,0.6-0.8       C172.9,16.1,172.6,15.7,172.4,15.7z"/>
				</g>
			</g>
			<g>
				<g>
					<path class="st3" d="M172.4,19.5h-11.6c-0.4,0-0.6,0.2-0.6,0.8s0.2,0.8,0.6,0.8h11.5c0.4,0,0.6-0.2,0.6-0.8       C172.9,19.9,172.6,19.5,172.4,19.5z"/>
				</g>
			</g>
			<g>
				<g>
					<path class="st3" d="M172.4,23.4h-11.6c-0.4,0-0.6,0.2-0.6,0.8s0.2,0.8,0.6,0.8h11.5c0.4,0,0.6-0.2,0.6-0.8       C172.9,23.7,172.6,23.4,172.4,23.4z"/>
				</g>
			</g>
			<g>
				<g>
					<path class="st3" d="M168.9,27h-8.1c-0.4,0-0.6,0.2-0.6,0.8s0.2,0.8,0.6,0.8h8c0.4,0,0.6-0.2,0.6-0.8       C169.4,27.4,169.1,27,168.9,27z"/>
				</g>
			</g>
			<polygon class="st3" points="189.1,32.2 173.4,32.2 173.4,27 174.7,27 174.7,30.9 187.9,30.9 187.7,27 189.1,27    "/>
			<path class="st3" d="M175.9,21.4c0.1,0.1,3.2,0,3.2,0v-6.2h4.2v6.2h3.2l-5.2,7.6L175.9,21.4z"/>
			<polygon class="st4" points="183.4,0 190.7,7.7 190.7,0    "/>
			<g>
				<path class="st3" d="M161.2,3.6l2,3.4l2-3.4h1.1l-2.6,4.1l2.7,4.5h-1.1l-2.1-3.6l-2.1,3.6H160l2.7-4.5l-2.5-4.1      C160.1,3.6,161.2,3.6,161.2,3.6z"/>
				<path class="st3" d="M168.9,3.6v7.9h3.7v0.9h-4.7V3.7L168.9,3.6L168.9,3.6z"/>
				<path class="st3" d="M178.1,5.9c-0.1-1-0.8-1.5-1.8-1.5c-0.9,0-1.6,0.5-1.6,1.4c0,0.4,0.1,0.8,0.5,0.9c0.2,0.2,0.2,0.2,1.5,0.8      c1.1,0.5,1.6,0.8,1.9,1.1c0.4,0.4,0.5,0.9,0.5,1.5c0,1.5-1.1,2.5-2.9,2.5c-1,0-1.9-0.4-2.4-1c-0.4-0.5-0.5-1-0.5-1.8h1      c0.1,1.2,0.8,1.9,2,1.9c1,0,1.8-0.6,1.8-1.5c0-0.4-0.1-0.8-0.5-1.1c-0.2-0.2-0.5-0.4-1.4-0.8s-1.5-0.8-1.8-1      c-0.5-0.4-0.8-1-0.8-1.6c0-1.4,1.1-2.2,2.6-2.2c0.9,0,1.8,0.4,2.1,1c0.2,0.4,0.4,0.8,0.5,1.4L178.1,5.9L178.1,5.9z"/>
			</g>
		</g>
		<g>
			<g>
				<g>
					<path class="st3" d="M212.4,15.7h-11.6c-0.4,0-0.6,0.2-0.6,0.8c0,0.4,0.2,0.8,0.6,0.8h11.5c0.4,0,0.6-0.2,0.6-0.8       C212.9,16.1,212.6,15.7,212.4,15.7z"/>
				</g>
			</g>
			<g>
				<g>
					<path class="st3" d="M212.4,19.5h-11.6c-0.4,0-0.6,0.2-0.6,0.8s0.2,0.8,0.6,0.8h11.5c0.4,0,0.6-0.2,0.6-0.8       C212.9,19.9,212.6,19.5,212.4,19.5z"/>
				</g>
			</g>
			<g>
				<g>
					<path class="st3" d="M212.4,23.4h-11.6c-0.4,0-0.6,0.2-0.6,0.8s0.2,0.8,0.6,0.8h11.5c0.4,0,0.6-0.2,0.6-0.8       C212.9,23.7,212.6,23.4,212.4,23.4z"/>
				</g>
			</g>
			<g>
				<g>
					<path class="st3" d="M208.9,27h-8.1c-0.4,0-0.6,0.2-0.6,0.8s0.2,0.8,0.6,0.8h8c0.4,0,0.6-0.2,0.6-0.8       C209.4,27.4,209.1,27,208.9,27z"/>
				</g>
			</g>
			<polygon class="st3" points="229.1,32.2 213.4,32.2 213.4,27 214.7,27 214.7,30.9 227.9,30.9 227.7,27 229.1,27    "/>
			<path class="st3" d="M215.9,21.4c0.1,0.1,3.2,0,3.2,0v-6.2h4.2v6.2h3.2l-5.2,7.6L215.9,21.4z"/>
			<polygon class="st4" points="223.4,0 230.7,7.7 230.7,0    "/>
			<g>
				<path class="st3" d="M201.4,3.6c1.6,0,2.4,0.1,3,0.5c1.2,0.6,2,2.1,2,3.9s-0.8,3.2-2,3.9c-0.8,0.4-1.2,0.5-3.1,0.5H200V3.7      L201.4,3.6L201.4,3.6z M201.6,11.5c1.4,0,1.8-0.1,2.4-0.5c0.9-0.5,1.4-1.6,1.4-3c0-1.5-0.5-2.6-1.5-3.1      c-0.5-0.2-0.9-0.4-2.5-0.4H201v7H201.6L201.6,11.5z"/>
				<path class="st3" d="M214.7,8c0,2.6-1.4,4.5-3.5,4.5s-3.5-1.8-3.5-4.5c0-2.6,1.5-4.4,3.5-4.4C213.4,3.5,214.7,5.4,214.7,8z       M208.7,7.9c0,2.2,1,3.6,2.5,3.6s2.5-1.5,2.5-3.6s-1-3.6-2.5-3.6C209.7,4.2,208.7,5.7,208.7,7.9z"/>
				<path class="st3" d="M221.6,6c-0.2-1.1-0.9-1.8-2-1.8c-1.5,0-2.5,1.4-2.5,3.6s1,3.6,2.5,3.6c1.2,0,2-0.8,2.1-2.2h0.9      c-0.1,2-1.2,3.1-3,3.1c-2.2,0-3.6-1.8-3.6-4.5s1.4-4.5,3.6-4.5c1.6,0,2.6,0.9,2.9,2.5L221.6,6L221.6,6z"/>
			</g>
		</g>
		<g>
			<g>
				<g>
					<path class="st3" d="M252.4,15.7h-11.6c-0.4,0-0.6,0.2-0.6,0.8c0,0.4,0.2,0.8,0.6,0.8h11.5c0.4,0,0.6-0.2,0.6-0.8       C252.9,16.1,252.6,15.7,252.4,15.7z"/>
				</g>
			</g>
			<g>
				<g>
					<path class="st3" d="M252.4,19.5h-11.6c-0.4,0-0.6,0.2-0.6,0.8s0.2,0.8,0.6,0.8h11.5c0.4,0,0.6-0.2,0.6-0.8       C252.9,19.9,252.6,19.5,252.4,19.5z"/>
				</g>
			</g>
			<g>
				<g>
					<path class="st3" d="M252.4,23.4h-11.6c-0.4,0-0.6,0.2-0.6,0.8s0.2,0.8,0.6,0.8h11.5c0.4,0,0.6-0.2,0.6-0.8       C252.9,23.7,252.6,23.4,252.4,23.4z"/>
				</g>
			</g>
			<g>
				<g>
					<path class="st3" d="M248.9,27h-8.1c-0.4,0-0.6,0.2-0.6,0.8s0.2,0.8,0.6,0.8h8c0.4,0,0.6-0.2,0.6-0.8       C249.4,27.4,249.1,27,248.9,27z"/>
				</g>
			</g>
			<polygon class="st3" points="269.1,32.2 253.4,32.2 253.4,27 254.7,27 254.7,30.9 267.9,30.9 267.7,27 269.1,27    "/>
			<path class="st3" d="M255.9,21.4c0.1,0.1,3.2,0,3.2,0v-6.2h4.2v6.2h3.2l-5.2,7.6L255.9,21.4z"/>
			<polygon class="st4" points="263.4,0 270.7,7.7 270.7,0    "/>
			<g>
				<path class="st3" d="M245.5,3.5v0.9h-2.2v7.9h-1V4.4H240V3.5H245.5z"/>
				<path class="st3" d="M247.2,3.5l2,3.4l2-3.4h1.1l-2.6,4.1l2.7,4.5h-1.1l-2.1-3.6l-2.1,3.6H246l2.7-4.5l-2.5-4.1L247.2,3.5z"/>
				<path class="st3" d="M258.6,3.5v0.9h-2.4v7.9h-1V4.4H253V3.5H258.6z"/>
			</g>
		</g>
		<g>
			<g>
				<g>
					<path class="st3" d="M292.4,15.7h-11.6c-0.4,0-0.6,0.2-0.6,0.8c0,0.4,0.2,0.8,0.6,0.8h11.5c0.4,0,0.6-0.2,0.6-0.8       C292.9,16.1,292.6,15.7,292.4,15.7z"/>
				</g>
			</g>
			<g>
				<g>
					<path class="st3" d="M292.4,19.5h-11.6c-0.4,0-0.6,0.2-0.6,0.8s0.2,0.8,0.6,0.8h11.5c0.4,0,0.6-0.2,0.6-0.8       C292.9,19.9,292.6,19.5,292.4,19.5z"/>
				</g>
			</g>
			<g>
				<g>
					<path class="st3" d="M292.4,23.4h-11.6c-0.4,0-0.6,0.2-0.6,0.8s0.2,0.8,0.6,0.8h11.5c0.4,0,0.6-0.2,0.6-0.8       C292.9,23.7,292.6,23.4,292.4,23.4z"/>
				</g>
			</g>
			<g>
				<g>
					<path class="st3" d="M288.9,27h-8.1c-0.4,0-0.6,0.2-0.6,0.8s0.2,0.8,0.6,0.8h8c0.4,0,0.6-0.2,0.6-0.8       C289.4,27.4,289.1,27,288.9,27z"/>
				</g>
			</g>
			<polygon class="st3" points="309.1,32.2 293.4,32.2 293.4,27 294.7,27 294.7,30.9 307.9,30.9 307.7,27 309.1,27    "/>
			<path class="st3" d="M295.9,21.4c0.1,0.1,3.2,0,3.2,0v-6.2h4.2v6.2h3.2l-5.2,7.6L295.9,21.4z"/>
			<polygon class="st4" points="303.4,0 310.7,7.7 310.7,0    "/>
			<g>
				<path class="st3" d="M285.6,3.5v0.6l-4.5,7.1h4.4v0.9H280v-0.8l4.4-7.1h-4.1V3.4L285.6,3.5L285.6,3.5L285.6,3.5z"/>
				<path class="st3" d="M287.1,12.1V3.5h1v8.6H287.1z"/>
				<path class="st3" d="M291.7,3.5c1.2,0,1.9,0,2.4,0.2c1,0.2,1.5,1.2,1.5,2.4s-0.5,1.9-1.4,2.3c-0.5,0.2-1.1,0.2-2.4,0.2h-0.6v3.5      h-1V3.5H291.7z M291.9,7.7c0.9,0,1.2,0,1.6-0.1c0.8-0.1,1.1-0.8,1.1-1.6s-0.4-1.4-0.9-1.5c-0.4-0.1-0.8-0.2-2-0.2h-0.5v3.5      L291.9,7.7L291.9,7.7z"/>
			</g>
		</g>
		<g>
			<g>
				<g>
					<path class="st3" d="M332.4,15.7h-11.6c-0.4,0-0.6,0.2-0.6,0.8c0,0.4,0.2,0.8,0.6,0.8h11.5c0.4,0,0.6-0.2,0.6-0.8       C332.9,16.1,332.6,15.7,332.4,15.7z"/>
				</g>
			</g>
			<g>
				<g>
					<path class="st3" d="M332.4,19.5h-11.6c-0.4,0-0.6,0.2-0.6,0.8s0.2,0.8,0.6,0.8h11.5c0.4,0,0.6-0.2,0.6-0.8       C332.9,19.9,332.6,19.5,332.4,19.5z"/>
				</g>
			</g>
			<g>
				<g>
					<path class="st3" d="M332.4,23.4h-11.6c-0.4,0-0.6,0.2-0.6,0.8s0.2,0.8,0.6,0.8h11.5c0.4,0,0.6-0.2,0.6-0.8       C332.9,23.7,332.6,23.4,332.4,23.4z"/>
				</g>
			</g>
			<g>
				<g>
					<path class="st3" d="M328.9,27h-8.1c-0.4,0-0.6,0.2-0.6,0.8s0.2,0.8,0.6,0.8h8c0.4,0,0.6-0.2,0.6-0.8       C329.4,27.4,329.1,27,328.9,27z"/>
				</g>
			</g>
			<polygon class="st3" points="349.1,32.2 333.4,32.2 333.4,27 334.7,27 334.7,30.9 347.9,30.9 347.7,27 349.1,27    "/>
			<path class="st3" d="M335.9,21.4c0.1,0.1,3.2,0,3.2,0v-6.2h4.2v6.2h3.2l-5.2,7.6L335.9,21.4z"/>
			<polygon class="st4" points="343.4,0 350.7,7.7 350.7,0    "/>
			<g>
				<path class="st3" d="M321.4,3.5c1.2,0,1.9,0,2.4,0.2c1,0.2,1.5,1.2,1.5,2.4s-0.5,1.9-1.4,2.3c-0.5,0.2-1.1,0.2-2.4,0.2h-0.6v3.5      H320V3.5H321.4z M321.6,7.7c0.9,0,1.2,0,1.6-0.1c0.8-0.1,1.1-0.8,1.1-1.6s-0.4-1.4-0.9-1.5c-0.4-0.1-0.8-0.2-2-0.2H321v3.5      L321.6,7.7L321.6,7.7z"/>
				<path class="st3" d="M328.2,3.5c1.2,0,1.9,0,2.4,0.2c1,0.2,1.5,1.2,1.5,2.4s-0.5,1.9-1.4,2.3c-0.5,0.2-1.1,0.2-2.4,0.2h-0.6v3.5      h-1V3.5H328.2z M328.4,7.7c0.9,0,1.2,0,1.6-0.1c0.8-0.1,1.1-0.8,1.1-1.6s-0.4-1.4-0.9-1.5c-0.4-0.1-0.8-0.2-2-0.2h-0.5v3.5      L328.4,7.7L328.4,7.7z"/>
				<path class="st3" d="M338.4,3.5v0.9h-2.2v7.9h-1V4.4H333V3.5H338.4z"/>
			</g>
		</g>
		<g>
			<g>
				<g>
					<path class="st3" d="M372.4,15.7h-11.6c-0.4,0-0.6,0.2-0.6,0.8c0,0.4,0.2,0.8,0.6,0.8h11.5c0.4,0,0.6-0.2,0.6-0.8       C372.9,16.1,372.6,15.7,372.4,15.7z"/>
				</g>
			</g>
			<g>
				<g>
					<path class="st3" d="M372.4,19.5h-11.6c-0.4,0-0.6,0.2-0.6,0.8s0.2,0.8,0.6,0.8h11.5c0.4,0,0.6-0.2,0.6-0.8       C372.9,19.9,372.6,19.5,372.4,19.5z"/>
				</g>
			</g>
			<g>
				<g>
					<path class="st3" d="M372.4,23.4h-11.6c-0.4,0-0.6,0.2-0.6,0.8s0.2,0.8,0.6,0.8h11.5c0.4,0,0.6-0.2,0.6-0.8       C372.9,23.7,372.6,23.4,372.4,23.4z"/>
				</g>
			</g>
			<g>
				<g>
					<path class="st3" d="M368.9,27h-8.1c-0.4,0-0.6,0.2-0.6,0.8s0.2,0.8,0.6,0.8h8c0.4,0,0.6-0.2,0.6-0.8       C369.4,27.4,369.1,27,368.9,27z"/>
				</g>
			</g>
			<polygon class="st3" points="389.1,32.2 373.4,32.2 373.4,27 374.7,27 374.7,30.9 387.9,30.9 387.7,27 389.1,27    "/>
			<path class="st3" d="M375.9,21.4c0.1,0.1,3.2,0,3.2,0v-6.2h4.2v6.2h3.2l-5.2,7.6L375.9,21.4z"/>
			<polygon class="st4" points="383.4,0 390.7,7.7 390.7,0    "/>
			<g>
				<path class="st3" d="M361.5,3.5l2.4,7.6l2.5-7.6h1.5v8.6H367V4.4l-2.5,7.7h-1L361,4.4v7.7h-1V3.5H361.5z"/>
				<path class="st3" d="M371.5,3.5c1.2,0,1.9,0,2.4,0.2c1,0.2,1.5,1.2,1.5,2.4S374.9,8,374,8.4c-0.5,0.2-1.1,0.2-2.4,0.2H371v3.5      h-1V3.5H371.5z M371.6,7.7c0.9,0,1.2,0,1.6-0.1c0.8-0.1,1.1-0.8,1.1-1.6s-0.4-1.4-0.9-1.5c-0.4-0.1-0.8-0.2-2-0.2H371v3.5      L371.6,7.7L371.6,7.7z"/>
				<path class="st3" d="M376.9,5.9c0.1-1.5,1-2.2,2.4-2.2s2.4,0.9,2.4,2.1c0,0.9-0.4,1.5-1.2,1.9c1,0.4,1.5,1,1.5,2.1      c0,1.6-1.1,2.6-2.7,2.6s-2.6-0.9-2.6-2.4V9.9h0.9c0,1.1,0.6,1.8,1.8,1.8s1.8-0.6,1.8-1.8s-0.6-1.6-2-1.6c-0.1,0-0.1,0-0.2,0V7.4      h0.4c1,0,1.8-0.5,1.8-1.5c0-0.9-0.5-1.4-1.4-1.4S378,5,377.9,6L376.9,5.9L376.9,5.9L376.9,5.9z"/>
			</g>
		</g>
		<g>
			<g>
				<g>
					<path class="st3" d="M412.4,15.7h-11.6c-0.4,0-0.6,0.2-0.6,0.8c0,0.4,0.2,0.8,0.6,0.8h11.5c0.4,0,0.6-0.2,0.6-0.8       C412.9,16.1,412.6,15.7,412.4,15.7z"/>
				</g>
			</g>
			<g>
				<g>
					<path class="st3" d="M412.4,19.5h-11.6c-0.4,0-0.6,0.2-0.6,0.8s0.2,0.8,0.6,0.8h11.5c0.4,0,0.6-0.2,0.6-0.8       C412.9,19.9,412.6,19.5,412.4,19.5z"/>
				</g>
			</g>
			<g>
				<g>
					<path class="st3" d="M412.4,23.4h-11.6c-0.4,0-0.6,0.2-0.6,0.8s0.2,0.8,0.6,0.8h11.5c0.4,0,0.6-0.2,0.6-0.8       C412.9,23.7,412.6,23.4,412.4,23.4z"/>
				</g>
			</g>
			<g>
				<g>
					<path class="st3" d="M408.9,27h-8.1c-0.4,0-0.6,0.2-0.6,0.8s0.2,0.8,0.6,0.8h8c0.4,0,0.6-0.2,0.6-0.8       C409.4,27.4,409.1,27,408.9,27z"/>
				</g>
			</g>
			<polygon class="st3" points="429.1,32.2 413.4,32.2 413.4,27 414.7,27 414.7,30.9 427.9,30.9 427.7,27 429.1,27    "/>
			<path class="st3" d="M415.9,21.4c0.1,0.1,3.2,0,3.2,0v-6.2h4.2v6.2h3.2l-5.2,7.6L415.9,21.4z"/>
			<polygon class="st4" points="423.4,0 430.7,7.7 430.7,0    "/>
			<g>
				<path class="st3" d="M401.5,3.5l2.4,7.6l2.5-7.6h1.5v8.6H407V4.4l-2.5,7.7h-1L401,4.4v7.7h-1V3.5H401.5z"/>
				<path class="st3" d="M411.5,3.5c1.2,0,1.9,0,2.4,0.2c1,0.2,1.5,1.2,1.5,2.4S414.9,8,414,8.4c-0.5,0.2-1.1,0.2-2.4,0.2H411v3.5      h-1V3.5H411.5z M411.6,7.7c0.9,0,1.2,0,1.6-0.1c0.8-0.1,1.1-0.8,1.1-1.6s-0.4-1.4-0.9-1.5c-0.4-0.1-0.8-0.2-2-0.2H411v3.5      L411.6,7.7L411.6,7.7z"/>
				<path class="st3" d="M422.1,9.2v0.9h-1.5v2.1h-1v-2.1h-3.4V9.3l3.4-5.7h1v5.6L422.1,9.2z M419.9,4.9l-2.6,4.4h2.6V4.9z"/>
			</g>
		</g>
		<g>
			<g>
				<g>
					<path class="st3" d="M452.4,15.7h-11.6c-0.4,0-0.6,0.2-0.6,0.8c0,0.4,0.2,0.8,0.6,0.8h11.5c0.4,0,0.6-0.2,0.6-0.8       C452.9,16.1,452.6,15.7,452.4,15.7z"/>
				</g>
			</g>
			<g>
				<g>
					<path class="st3" d="M452.4,19.5h-11.6c-0.4,0-0.6,0.2-0.6,0.8s0.2,0.8,0.6,0.8h11.5c0.4,0,0.6-0.2,0.6-0.8       C452.9,19.9,452.6,19.5,452.4,19.5z"/>
				</g>
			</g>
			<g>
				<g>
					<path class="st3" d="M452.4,23.4h-11.6c-0.4,0-0.6,0.2-0.6,0.8s0.2,0.8,0.6,0.8h11.5c0.4,0,0.6-0.2,0.6-0.8       C452.9,23.7,452.6,23.4,452.4,23.4z"/>
				</g>
			</g>
			<g>
				<g>
					<path class="st3" d="M448.9,27h-8.1c-0.4,0-0.6,0.2-0.6,0.8s0.2,0.8,0.6,0.8h8c0.4,0,0.6-0.2,0.6-0.8       C449.4,27.4,449.1,27,448.9,27z"/>
				</g>
			</g>
			<polygon class="st3" points="469.1,32.2 453.4,32.2 453.4,27 454.7,27 454.7,30.9 467.9,30.9 467.7,27 469.1,27    "/>
			<path class="st3" d="M455.9,21.4c0.1,0.1,3.2,0,3.2,0v-6.2h4.2v6.2h3.2l-5.2,7.6L455.9,21.4z"/>
			<polygon class="st4" points="463.4,0 470.7,7.7 470.7,0    "/>
			<g>
				<path class="st3" d="M440,12.4V3.7h1v8.6L440,12.4L440,12.4z"/>
				<path class="st3" d="M444.6,3.6l2.4,7.6l2.5-7.6h1.5v8.6h-0.9V4.5l-2.5,7.7h-1l-2.5-7.7v7.7h-0.9V3.6H444.6z"/>
				<path class="st3" d="M459.4,8v3.5c-0.9,0.6-1.8,0.9-2.9,0.9c-2.4,0-3.7-1.8-3.7-4.5s1.4-4.5,3.6-4.5c1.6,0,2.6,0.9,2.9,2.5h-0.9      c-0.2-1.1-0.9-1.8-2-1.8c-1.6,0-2.6,1.4-2.6,3.6c0,2.4,1,3.6,2.7,3.6c0.6,0,1.4-0.2,2-0.6V8.5h-1.8V7.6h2.6L459.4,8L459.4,8z"/>
			</g>
		</g>
		<g>
			<polygon class="st3" points="23,28.4 0,28.4 0,20.8 2,20.8 2,26.4 21.2,26.4 21,20.8 23,20.8    "/>
			<path class="st3" d="M3.6,12.5c0.2,0.2,4.7,0,4.7,0V3.4h6.2v9.1h4.7l-7.7,11.1L3.6,12.5z"/>
			<polygon class="st4" points="19.9,0 27.2,7.7 27.2,0    "/>
		</g>
	</g>
</g>
<g id="Ebene_3">
	<g>
		<path class="st3" d="M374.3,18.5h-1v2.1h1c0.9,0,1-0.3,1-1.1C375.3,18.8,375.2,18.5,374.3,18.5z"/>
		<path class="st3" d="M386.6,8.3l-8-8c-0.1-0.1-0.3-0.2-0.5-0.2h-17.4c-0.4,0-0.7,0.3-0.7,0.7v30.8c0,0.4,0.3,0.7,0.7,0.7h25.5    c0.4,0,0.7-0.3,0.7-0.7V8.7C386.8,8.6,386.8,8.4,386.6,8.3z M370.7,24.8c0,0.4-0.3,0.7-0.7,0.7c-0.4,0-0.7-0.3-0.7-0.7v-4.7    l-1,1.5c-0.1,0.2-0.3,0.3-0.6,0.3c-0.2,0-0.4-0.1-0.6-0.3l-1-1.5v4.7c0,0.4-0.3,0.7-0.7,0.7c-0.4,0-0.7-0.3-0.7-0.7v-7    c0-0.3,0.2-0.6,0.5-0.6c0.3-0.1,0.6,0,0.8,0.3l1.6,2.6l1.7-2.6c0.2-0.3,0.5-0.4,0.8-0.3c0.3,0.1,0.5,0.3,0.5,0.6V24.8z M374.3,22    h-1v2.8c0,0.4-0.3,0.7-0.7,0.7c-0.4,0-0.7-0.3-0.7-0.7v-7c0-0.4,0.3-0.7,0.7-0.7h1.7c1.5,0,2.3,0.8,2.3,2.4    C376.7,21.2,375.9,22,374.3,22z M382.1,23.2c0,1.1-0.6,2.4-2.3,2.4c-1.6,0-2.3-1.2-2.3-2.3c0-0.4,0.3-0.7,0.6-0.7    c0.4,0,0.7,0.3,0.7,0.6c0,1,0.7,1,1,1c0.2,0,1,0,1-1.1c0-1.1-0.7-1.1-1-1.1c-0.4,0-0.7-0.3-0.7-0.7c0-0.4,0.3-0.7,0.7-0.7    c0.2,0,1,0,1-1.1c0-1.1-0.7-1.1-1-1.1c-0.3,0-0.9,0-1,1c0,0.4-0.3,0.7-0.7,0.6c-0.4,0-0.7-0.3-0.6-0.7c0.1-1.1,0.7-2.3,2.3-2.3    c1.7,0,2.3,1.3,2.3,2.4c0,0.6-0.2,1.3-0.6,1.8C381.9,21.9,382.1,22.6,382.1,23.2z M377.4,9.4v-8l8,8H377.4z"/>
	</g>
	<g>
		<path class="st3" d="M367.1,49.2h-0.5v1.1h0.5c0.4,0,0.5-0.1,0.5-0.5C367.6,49.3,367.6,49.2,367.1,49.2z"/>
		<path class="st3" d="M373.2,44.1l-4-4c-0.1-0.1-0.1-0.1-0.2-0.1h-8.7c-0.2,0-0.3,0.1-0.3,0.3v15.3c0,0.2,0.1,0.3,0.3,0.3H373    c0.2,0,0.3-0.1,0.3-0.3V44.3C373.3,44.2,373.3,44.2,373.2,44.1z M365.3,52.3c0,0.2-0.1,0.3-0.3,0.3s-0.3-0.1-0.3-0.3V50l-0.5,0.8    c-0.1,0.1-0.2,0.2-0.3,0.2s-0.2-0.1-0.3-0.2l-0.5-0.8v2.3c0,0.2-0.1,0.3-0.3,0.3s-0.3-0.1-0.3-0.3v-3.5c0-0.1,0.1-0.3,0.2-0.3    c0.1,0,0.3,0,0.4,0.1l0.8,1.3l0.8-1.3c0.1-0.1,0.2-0.2,0.4-0.1c0.1,0,0.2,0.2,0.2,0.3V52.3z M367.1,50.9h-0.5v1.4    c0,0.2-0.1,0.3-0.3,0.3s-0.3-0.1-0.3-0.3v-3.5c0-0.2,0.1-0.3,0.3-0.3h0.8c0.8,0,1.2,0.4,1.2,1.2S367.9,50.9,367.1,50.9z M371,51.5    c0,0.6-0.3,1.2-1.2,1.2c-0.8,0-1.1-0.6-1.2-1.1c0-0.2,0.1-0.3,0.3-0.3c0.2,0,0.3,0.1,0.3,0.3c0,0.5,0.4,0.5,0.5,0.5    c0.1,0,0.5,0,0.5-0.5c0-0.6-0.4-0.6-0.5-0.6c-0.2,0-0.3-0.1-0.3-0.3c0-0.2,0.1-0.3,0.3-0.3c0.1,0,0.5,0,0.5-0.6    c0-0.5-0.4-0.5-0.5-0.5c-0.1,0-0.5,0-0.5,0.5c0,0.2-0.2,0.3-0.3,0.3c-0.2,0-0.3-0.2-0.3-0.3c0-0.6,0.3-1.1,1.2-1.1    c0.9,0,1.2,0.7,1.2,1.2c0,0.3-0.1,0.6-0.3,0.9C370.9,50.9,371,51.2,371,51.5z M368.7,44.7v-4l4,4H368.7z"/>
	</g>
	<g>
		<path class="st3" d="M426.6,8.2l-8-8.1c-0.1-0.1-0.3-0.2-0.5-0.2h-17.4c-0.4,0-0.7,0.3-0.7,0.7v30.9c0,0.4,0.3,0.7,0.7,0.7h25.5    c0.4,0,0.7-0.3,0.7-0.7V8.7C426.8,8.5,426.8,8.4,426.6,8.2z M410.5,24.8c0,0.4-0.3,0.7-0.7,0.7c-0.4,0-0.7-0.3-0.7-0.7v-4.7    l-1,1.5c-0.1,0.2-0.3,0.3-0.6,0.3c-0.2,0-0.4-0.1-0.6-0.3l-1-1.5v4.7c0,0.4-0.3,0.7-0.7,0.7c-0.4,0-0.7-0.3-0.7-0.7v-7    c0-0.3,0.2-0.6,0.5-0.6c0.3-0.1,0.6,0,0.8,0.3l1.6,2.6l1.7-2.6c0.2-0.3,0.5-0.4,0.8-0.3c0.3,0.1,0.5,0.3,0.5,0.6V24.8z M415.7,23    v1.9c0,0.4-0.3,0.7-0.7,0.7s-0.7-0.3-0.7-0.7V23h-2.4c-0.3,0-0.5-0.1-0.6-0.4c-0.1-0.2-0.1-0.5,0-0.7l3.1-4.4    c0.2-0.2,0.5-0.3,0.8-0.3c0.3,0.1,0.5,0.3,0.5,0.6v3.8c0.3,0.1,0.6,0.3,0.6,0.7C416.2,22.6,416,22.9,415.7,23z M422.1,18l-2,7    c-0.1,0.3-0.3,0.5-0.6,0.5c-0.3,0-0.6-0.2-0.6-0.5l-2-7c-0.1-0.4,0.1-0.7,0.5-0.8c0.4-0.1,0.7,0.1,0.8,0.5l1.3,4.7l1.3-4.7    c0.1-0.4,0.5-0.6,0.8-0.5C422,17.3,422.2,17.7,422.1,18z M417.4,9.4V1.3l8,8.1H417.4z"/>
		<polygon class="st3" points="414.3,21.6 414.3,20 413.2,21.6   "/>
	</g>
	<g>
		<path class="st3" d="M413.2,44.1l-4-4c-0.1-0.1-0.1-0.1-0.2-0.1h-8.7c-0.2,0-0.3,0.1-0.3,0.3v15.3c0,0.2,0.1,0.3,0.3,0.3H413    c0.2,0,0.3-0.1,0.3-0.3V44.3C413.3,44.2,413.3,44.2,413.2,44.1z M405.2,52.3c0,0.2-0.1,0.3-0.3,0.3c-0.2,0-0.3-0.1-0.3-0.3V50    l-0.5,0.8c-0.1,0.1-0.2,0.2-0.3,0.2c-0.1,0-0.2-0.1-0.3-0.2L403,50v2.3c0,0.2-0.1,0.3-0.3,0.3c-0.2,0-0.3-0.1-0.3-0.3v-3.5    c0-0.1,0.1-0.3,0.2-0.3c0.1,0,0.3,0,0.4,0.1l0.8,1.3l0.8-1.3c0.1-0.1,0.2-0.2,0.4-0.1c0.1,0,0.2,0.2,0.2,0.3V52.3z M407.8,51.4    v0.9c0,0.2-0.1,0.3-0.3,0.3s-0.3-0.1-0.3-0.3v-0.9h-1.2c-0.1,0-0.2-0.1-0.3-0.2c-0.1-0.1,0-0.2,0-0.3l1.5-2.2    c0.1-0.1,0.2-0.2,0.4-0.1c0.1,0,0.2,0.2,0.2,0.3v1.9c0.2,0,0.3,0.2,0.3,0.3C408.1,51.2,407.9,51.4,407.8,51.4z M411,49l-1,3.5    c0,0.1-0.2,0.2-0.3,0.2c-0.1,0-0.3-0.1-0.3-0.2l-1-3.5c-0.1-0.2,0.1-0.4,0.2-0.4c0.2-0.1,0.4,0.1,0.4,0.2l0.7,2.3l0.7-2.3    c0.1-0.2,0.2-0.3,0.4-0.2C410.9,48.6,411,48.8,411,49z M408.7,44.7v-4l4,4H408.7z"/>
		<polygon class="st3" points="407.1,50.7 407.1,49.9 406.6,50.7   "/>
	</g>
	<g>
		<path class="st3" d="M334.4,18.8h-1v2.7h1c1.6,0,1.7-1,1.7-1.3C336.1,19.8,336,18.8,334.4,18.8z"/>
		<path class="st3" d="M327.7,18.8h-1v2.7h1c1.6,0,1.7-1,1.7-1.3C329.4,19.8,329.3,18.8,327.7,18.8z"/>
		<path class="st3" d="M346.6,8.2l-8-8.1c-0.1-0.1-0.3-0.2-0.5-0.2h-17.4c-0.4,0-0.7,0.3-0.7,0.7v30.9c0,0.4,0.3,0.7,0.7,0.7h25.5    c0.4,0,0.7-0.3,0.7-0.7V8.7C346.8,8.5,346.8,8.4,346.6,8.2z M327.7,22.8h-1v2.3c0,0.4-0.3,0.7-0.7,0.7c-0.4,0-0.7-0.3-0.7-0.7v-7    c0-0.4,0.3-0.7,0.7-0.7h1.7c2.1,0,3,1.4,3,2.7C330.7,21.4,329.8,22.8,327.7,22.8z M334.4,22.8h-1v2.3c0,0.4-0.3,0.7-0.7,0.7    c-0.4,0-0.7-0.3-0.7-0.7v-7c0-0.4,0.3-0.7,0.7-0.7h1.7c2.1,0,3,1.4,3,2.7C337.4,21.4,336.5,22.8,334.4,22.8z M342.4,18.8h-1v6.3    c0,0.4-0.3,0.7-0.7,0.7c-0.4,0-0.7-0.3-0.7-0.7v-6.3h-1c-0.4,0-0.7-0.3-0.7-0.7c0-0.4,0.3-0.7,0.7-0.7h3.3c0.4,0,0.7,0.3,0.7,0.7    C343.1,18.5,342.8,18.8,342.4,18.8z M337.4,9.4v-8l8,8H337.4z"/>
	</g>
	<g>
		<path class="st3" d="M327.1,49.3h-0.5v1.3h0.5c0.8,0,0.8-0.5,0.8-0.7S327.9,49.3,327.1,49.3z"/>
		<path class="st3" d="M323.8,49.3h-0.5v1.3h0.5c0.8,0,0.8-0.5,0.8-0.7S324.6,49.3,323.8,49.3z"/>
		<path class="st3" d="M333.2,44.1l-4-4c-0.1-0.1-0.1-0.1-0.2-0.1h-8.7c-0.2,0-0.3,0.1-0.3,0.3v15.3c0,0.2,0.1,0.3,0.3,0.3H333    c0.2,0,0.3-0.1,0.3-0.3V44.3C333.3,44.2,333.3,44.2,333.2,44.1z M323.8,51.3h-0.5v1.1c0,0.2-0.1,0.3-0.3,0.3s-0.3-0.1-0.3-0.3V49    c0-0.2,0.1-0.3,0.3-0.3h0.8c1,0,1.5,0.7,1.5,1.3C325.3,50.6,324.9,51.3,323.8,51.3z M327.1,51.3h-0.5v1.1c0,0.2-0.1,0.3-0.3,0.3    s-0.3-0.1-0.3-0.3V49c0-0.2,0.1-0.3,0.3-0.3h0.8c1,0,1.5,0.7,1.5,1.3C328.7,50.6,328.2,51.3,327.1,51.3z M331.1,49.3h-0.5v3.1    c0,0.2-0.1,0.3-0.3,0.3s-0.3-0.1-0.3-0.3v-3.1h-0.5c-0.2,0-0.3-0.1-0.3-0.3s0.1-0.3,0.3-0.3h1.7c0.2,0,0.3,0.1,0.3,0.3    S331.3,49.3,331.1,49.3z M328.7,44.7v-4l4,4H328.7z"/>
	</g>
	<path class="st3" d="M266.6,8.2l-8-8.1c-0.1-0.1-0.3-0.2-0.5-0.2h-17.4c-0.4,0-0.7,0.3-0.7,0.7v30.9c0,0.4,0.3,0.7,0.7,0.7h25.5   c0.4,0,0.7-0.3,0.7-0.7V8.7C266.8,8.5,266.8,8.4,266.6,8.2z M249.1,18.8h-1v6.3c0,0.4-0.3,0.7-0.7,0.7s-0.7-0.3-0.7-0.7v-6.3h-0.9   c-0.4,0-0.7-0.3-0.7-0.7c0-0.4,0.3-0.7,0.7-0.7h3.3c0.4,0,0.7,0.3,0.7,0.7C249.8,18.5,249.5,18.8,249.1,18.8z M255.8,24.8   c0.2,0.3,0,0.7-0.3,0.9c-0.1,0-0.2,0.1-0.3,0.1c-0.3,0-0.5-0.1-0.6-0.4l-1.1-2.2l-1.1,2.2c-0.1,0.2-0.4,0.4-0.6,0.4   c-0.1,0-0.2,0-0.3-0.1c-0.3-0.2-0.5-0.6-0.3-0.9l1.5-3.2l-1.5-3.2c-0.2-0.3,0-0.7,0.3-0.9c0.3-0.2,0.7,0,0.9,0.3l1.1,2.2l1.1-2.2   c0.2-0.3,0.6-0.5,0.9-0.3c0.3,0.2,0.5,0.6,0.3,0.9l-1.5,3.2L255.8,24.8z M261.1,18.8h-1v6.3c0,0.4-0.3,0.7-0.7,0.7   c-0.4,0-0.7-0.3-0.7-0.7v-6.3h-1c-0.4,0-0.7-0.3-0.7-0.7c0-0.4,0.3-0.7,0.7-0.7h3.3c0.4,0,0.7,0.3,0.7,0.7   C261.8,18.5,261.5,18.8,261.1,18.8z M257.4,9.4V1.3l8,8.1H257.4z"/>
	<path class="st3" d="M253.2,44.1l-4-4c-0.1-0.1-0.1-0.1-0.2-0.1h-8.7c-0.2,0-0.3,0.1-0.3,0.3v15.3c0,0.2,0.1,0.3,0.3,0.3H253   c0.2,0,0.3-0.1,0.3-0.3V44.3C253.3,44.2,253.3,44.2,253.2,44.1z M244.5,49.3H244v3.1c0,0.2-0.1,0.3-0.3,0.3s-0.3-0.1-0.4-0.3v-3.1   h-0.5c-0.2,0-0.3-0.1-0.3-0.3c0-0.2,0.1-0.3,0.3-0.3h1.7c0.2,0,0.3,0.1,0.3,0.3C244.9,49.2,244.7,49.3,244.5,49.3z M247.9,52.3   c0.1,0.2,0,0.4-0.2,0.4c0,0-0.1,0-0.1,0c-0.1,0-0.2-0.1-0.3-0.2l-0.5-1.1l-0.5,1.1c-0.1,0.1-0.2,0.2-0.3,0.2c0,0-0.1,0-0.1,0   c-0.2-0.1-0.2-0.3-0.2-0.4l0.8-1.6l-0.8-1.6c-0.1-0.2,0-0.4,0.2-0.4c0.2-0.1,0.4,0,0.4,0.2l0.5,1.1l0.5-1.1   c0.1-0.2,0.3-0.2,0.4-0.2c0.2,0.1,0.2,0.3,0.2,0.4l-0.8,1.6L247.9,52.3z M250.5,49.3H250v3.1c0,0.2-0.1,0.3-0.3,0.3   s-0.3-0.1-0.3-0.3v-3.1h-0.5c-0.2,0-0.3-0.1-0.3-0.3c0-0.2,0.1-0.3,0.3-0.3h1.7c0.2,0,0.3,0.1,0.3,0.3   C250.8,49.2,250.7,49.3,250.5,49.3z M248.7,44.7v-4l4,4H248.7z"/>
	<path class="st3" d="M186.6,8.2l-8.1-8.1c-0.1-0.1-0.3-0.2-0.5-0.2h-17.4c-0.4,0-0.7,0.3-0.7,0.7v30.9c0,0.4,0.3,0.7,0.7,0.7h25.5   c0.4,0,0.7-0.3,0.7-0.7V8.7C186.8,8.5,186.8,8.4,186.6,8.2z M169.6,24.8c0.2,0.3,0,0.7-0.3,0.9c-0.1,0-0.2,0.1-0.3,0.1   c-0.3,0-0.5-0.1-0.6-0.4l-1.1-2.2l-1.1,2.2c-0.1,0.2-0.4,0.4-0.6,0.4c-0.1,0-0.2,0-0.3-0.1c-0.3-0.2-0.5-0.6-0.3-0.9l1.5-3.2   l-1.5-3.2c-0.2-0.3,0-0.7,0.3-0.9c0.3-0.2,0.7,0,0.9,0.3l1.1,2.2l1.1-2.2c0.2-0.3,0.6-0.5,0.9-0.3c0.3,0.2,0.5,0.6,0.3,0.9   l-1.5,3.2L169.6,24.8z M176.1,25.7h-3.3c-0.4,0-0.7-0.3-0.7-0.7v-7c0-0.4,0.3-0.7,0.7-0.7c0.4,0,0.7,0.3,0.7,0.7v6h2.7   c0.4,0.3,0.7,0.6,0.7,0.9C176.8,25.4,176.5,25.7,176.1,25.7z M180.4,25.9c-1.2,0-2.3-1-2.3-2.3c0-0.4,0.3-0.7,0.6-0.7   c0.4,0,0.7,0.3,0.7,0.6c0,0.6,0.5,1,1,1c0.5,0,1-0.5,1-1.1c0-0.7-0.4-0.9-1.1-1.1c0,0-0.2,0-0.2,0c-1.7-0.5-2.1-1.6-2.1-2.4   c0-1.3,1-2.4,2.3-2.4c1.2,0,2.3,1,2.3,2.3c0,0.4-0.3,0.7-0.6,0.7c-0.4,0-0.7-0.3-0.7-0.6c0-0.6-0.5-1-1-1c-0.5,0-1,0.5-1,1.1   c0,0.7,0.4,0.9,1.1,1.1l0,0.7l0.2-0.6c1.7,0.4,2.1,1.6,2.1,2.4C182.7,24.8,181.6,25.9,180.4,25.9z M177.4,9.4v-8l8.1,8H177.4z"/>
	<path class="st3" d="M173.3,44.1l-4-4c-0.1-0.1-0.1-0.1-0.2-0.1h-8.7c-0.2,0-0.3,0.1-0.3,0.3v15.4c0,0.2,0.2,0.3,0.3,0.3h12.7   c0.2,0,0.3-0.1,0.3-0.3V44.4C173.4,44.3,173.4,44.2,173.3,44.1z M164.8,52.4c0.1,0.2,0,0.4-0.2,0.4c0,0-0.1,0-0.1,0   c-0.1,0-0.2-0.1-0.3-0.2l-0.5-1.1l-0.5,1.1c-0.1,0.1-0.2,0.2-0.3,0.2c0,0-0.1,0-0.1,0c-0.2-0.1-0.2-0.3-0.2-0.4l0.8-1.6l-0.8-1.6   c-0.1-0.2,0-0.4,0.2-0.4c0.2-0.1,0.4,0,0.4,0.2l0.5,1.1l0.5-1.1c0.1-0.2,0.3-0.2,0.4-0.2c0.2,0.1,0.2,0.3,0.2,0.4l-0.8,1.6   L164.8,52.4z M168,52.9h-1.7c-0.2,0-0.3-0.1-0.3-0.3V49c0-0.2,0.2-0.3,0.3-0.3c0.2,0,0.3,0.1,0.3,0.3v3h1.3   c0.2,0.1,0.3,0.3,0.3,0.5C168.4,52.7,168.2,52.9,168,52.9z M170.2,52.9c-0.6,0-1.1-0.5-1.2-1.1c0-0.2,0.1-0.3,0.3-0.4   c0.2,0,0.3,0.1,0.4,0.3c0,0.3,0.2,0.5,0.5,0.5c0.3,0,0.5-0.2,0.5-0.6c0-0.3-0.2-0.5-0.5-0.6c0,0-0.1,0-0.1,0c-0.9-0.2-1-0.8-1-1.2   c0-0.7,0.5-1.2,1.2-1.2c0.6,0,1.1,0.5,1.2,1.1c0,0.2-0.1,0.3-0.3,0.4c-0.2,0-0.3-0.1-0.4-0.3c0-0.3-0.2-0.5-0.5-0.5   c-0.3,0-0.5,0.2-0.5,0.6c0,0.3,0.2,0.5,0.5,0.6l0,0.3l0.1-0.3c0.9,0.2,1,0.8,1,1.2C171.3,52.4,170.8,52.9,170.2,52.9z M168.7,44.7   v-4l4,4H168.7z"/>
	<g>
		<path class="st3" d="M213.9,18.8c-0.7,0-1.3,0.2-1.3,2.9c0,2.7,0.6,2.9,1.3,2.9s1.3-0.2,1.3-2.9C215.2,19,214.6,18.8,213.9,18.8z"/>
		<path class="st3" d="M207,18.8h-0.6v5.6h0.6c1.3,0,1.7-1.5,1.7-2.8S208.3,18.8,207,18.8z"/>
		<path class="st3" d="M226.6,8.2l-8.1-8.1c-0.1-0.1-0.3-0.2-0.5-0.2h-17.4c-0.4,0-0.7,0.3-0.7,0.7v30.9c0,0.4,0.3,0.7,0.7,0.7h25.5    c0.4,0,0.7-0.3,0.7-0.7V8.7C226.8,8.5,226.8,8.4,226.6,8.2z M207,25.7h-1.3c-0.4,0-0.7-0.3-0.7-0.7v-7c0-0.4,0.3-0.7,0.7-0.7h1.3    c1.8,0,3,1.7,3,4.2S208.9,25.7,207,25.7z M213.9,25.9c-2.6,0-2.6-3-2.6-4.2c0-1.3,0-4.2,2.6-4.2s2.6,3,2.6,4.2    C216.5,22.9,216.5,25.9,213.9,25.9z M220.3,24.6c0.4,0,0.9-0.1,1.1-1.1c0.1-0.4,0.4-0.6,0.8-0.5c0.4,0.1,0.6,0.4,0.5,0.8    c-0.4,1.8-1.5,2.2-2.4,2.2c-2.6,0-2.6-3-2.6-4.2c0-1.3,0-4.2,2.6-4.2c0.9,0,2,0.4,2.4,2.2c0.1,0.4-0.2,0.7-0.5,0.8    c-0.4,0.1-0.7-0.2-0.8-0.5c-0.2-1-0.7-1.1-1.1-1.1c-0.6,0-1.2,0.2-1.2,2.9C219.1,24.3,219.7,24.6,220.3,24.6z M217.4,9.4V1.3    l8.1,8.1H217.4z"/>
	</g>
	<g>
		<path class="st3" d="M206.9,49.3c-0.3,0-0.6,0.1-0.6,1.4c0,1.3,0.3,1.4,0.6,1.4s0.6-0.1,0.6-1.4C207.5,49.4,207.2,49.3,206.9,49.3    z"/>
		<path class="st3" d="M203.5,49.3h-0.3v2.8h0.3c0.6,0,0.8-0.8,0.8-1.4C204.3,50.1,204.1,49.3,203.5,49.3z"/>
		<path class="st3" d="M213.2,44.1l-4-4c-0.1-0.1-0.1-0.1-0.2-0.1h-8.7c-0.2,0-0.3,0.1-0.3,0.3v15.3c0,0.2,0.1,0.3,0.3,0.3H213    c0.2,0,0.3-0.1,0.3-0.3V44.3C213.3,44.2,213.3,44.2,213.2,44.1z M203.5,52.8h-0.6c-0.2,0-0.3-0.1-0.3-0.3V49    c0-0.2,0.1-0.3,0.3-0.3h0.6c0.9,0,1.5,0.8,1.5,2.1C205,52,204.4,52.8,203.5,52.8z M206.9,52.9c-1.3,0-1.3-1.5-1.3-2.1    c0-0.6,0-2.1,1.3-2.1c1.3,0,1.3,1.5,1.3,2.1C208.2,51.4,208.2,52.9,206.9,52.9z M210.1,52.2c0.2,0,0.4,0,0.5-0.6    c0-0.2,0.2-0.3,0.4-0.3c0.2,0,0.3,0.2,0.3,0.4c-0.2,0.9-0.8,1.1-1.2,1.1c-1.3,0-1.3-1.5-1.3-2.1c0-0.6,0-2.1,1.3-2.1    c0.4,0,1,0.2,1.2,1.1c0,0.2-0.1,0.4-0.3,0.4c-0.2,0-0.4-0.1-0.4-0.3c-0.1-0.5-0.3-0.6-0.5-0.6c-0.3,0-0.6,0.1-0.6,1.4    C209.5,52.1,209.8,52.2,210.1,52.2z M208.7,44.7v-4l4,4H208.7z"/>
	</g>
	<g>
		<path class="st3" d="M299.8,18.5h-1v2.1h1c0.9,0,1-0.3,1-1.1C300.8,18.8,300.7,18.5,299.8,18.5z"/>
		<path class="st3" d="M306.6,8.2l-8-8.1c-0.1-0.1-0.3-0.2-0.5-0.2h-17.4c-0.4,0-0.7,0.3-0.7,0.7v30.9c0,0.4,0.3,0.7,0.7,0.7h25.5    c0.4,0,0.7-0.3,0.7-0.7V8.7C306.8,8.5,306.8,8.4,306.6,8.2z M290.1,25.5h-3c-0.2,0-0.4-0.1-0.6-0.3c-0.1-0.2-0.1-0.4-0.1-0.6    l2.6-6h-2c-0.4,0-0.7-0.3-0.7-0.7c0-0.4,0.3-0.7,0.7-0.7h3c0.2,0,0.4,0.1,0.6,0.3c0.1,0.2,0.1,0.4,0.1,0.6l-2.6,6h2    c0.4,0,0.7,0.3,0.7,0.7C290.7,25.2,290.4,25.5,290.1,25.5z M294.8,24.8c0,0.4-0.3,0.7-0.7,0.7c-0.4,0-0.7-0.3-0.7-0.7v-7    c0-0.4,0.3-0.7,0.7-0.7c0.4,0,0.7,0.3,0.7,0.7V24.8z M299.8,22h-1v2.8c0,0.4-0.3,0.7-0.7,0.7c-0.4,0-0.7-0.3-0.7-0.7v-7    c0-0.4,0.3-0.7,0.7-0.7h1.7c1.5,0,2.3,0.8,2.3,2.4C302.1,21.2,301.4,22,299.8,22z M297.4,9.4V1.3l8,8.1H297.4z"/>
	</g>
	<g>
		<path class="st3" d="M289.8,49.2h-0.5v1.1h0.5c0.4,0,0.5-0.1,0.5-0.5S290.3,49.2,289.8,49.2z"/>
		<path class="st3" d="M293.2,44.1l-4-4c-0.1-0.1-0.1-0.1-0.2-0.1h-8.7c-0.2,0-0.3,0.1-0.3,0.3v15.3c0,0.2,0.1,0.3,0.3,0.3H293    c0.2,0,0.3-0.1,0.3-0.3V44.3C293.3,44.2,293.3,44.2,293.2,44.1z M285,52.7h-1.5c-0.1,0-0.2-0.1-0.3-0.2c-0.1-0.1-0.1-0.2,0-0.3    l1.3-3h-1c-0.2,0-0.3-0.1-0.3-0.3s0.1-0.3,0.3-0.3h1.5c0.1,0,0.2,0.1,0.3,0.2c0.1,0.1,0.1,0.2,0,0.3l-1.3,3h1    c0.2,0,0.3,0.1,0.3,0.3C285.3,52.5,285.2,52.7,285,52.7z M287.3,52.3c0,0.2-0.1,0.3-0.3,0.3s-0.3-0.1-0.3-0.3v-3.5    c0-0.2,0.1-0.3,0.3-0.3s0.3,0.1,0.3,0.3V52.3z M289.8,50.9h-0.5v1.4c0,0.2-0.1,0.3-0.3,0.3c-0.2,0-0.3-0.1-0.3-0.3v-3.5    c0-0.2,0.1-0.3,0.3-0.3h0.8c0.8,0,1.2,0.4,1.2,1.2S290.6,50.9,289.8,50.9z M288.7,44.7v-4l4,4H288.7z"/>
	</g>
	<g>
		<path class="st3" d="M94.1,0c-0.2-0.1-0.4,0-0.6,0.1l-7.6,7.6h-3.7C81,7.8,80,8.8,80,10v3.3c0,1.2,1,2.2,2.2,2.2h3.7l7.6,7.6    c0.1,0.1,0.2,0.2,0.4,0.2c0.1,0,0.1,0,0.2,0c0.2-0.1,0.3-0.3,0.3-0.5V0.6C94.5,0.3,94.3,0.1,94.1,0z"/>
		<path class="st3" d="M102.6,2.4c-0.2-0.2-0.6-0.2-0.8,0.1c-0.2,0.2-0.2,0.6,0.1,0.8c2.4,2.1,3.7,5.2,3.7,8.5s-1.4,6.4-3.7,8.5    c-0.2,0.2-0.3,0.6-0.1,0.8c0.1,0.1,0.3,0.2,0.4,0.2c0.1,0,0.3,0,0.4-0.1c2.6-2.3,4.1-5.7,4.1-9.3C106.7,8,105.2,4.6,102.6,2.4z"/>
		<path class="st3" d="M99.8,4.6c-0.2-0.2-0.6-0.2-0.8,0.1c-0.2,0.2-0.2,0.6,0.1,0.8c1.9,1.6,3.1,4,3.1,6.3c0,2.2-1.2,4.7-3.1,6.3    c-0.2,0.2-0.3,0.5-0.1,0.8c0.1,0.1,0.3,0.2,0.4,0.2c0.1,0,0.3,0,0.4-0.1c2.2-1.8,3.5-4.6,3.5-7.1C103.4,9.1,102,6.4,99.8,4.6z"/>
		<path class="st3" d="M97.6,7.3c-0.2-0.2-0.6-0.1-0.8,0.1c-0.2,0.2-0.1,0.6,0.1,0.8c0.9,0.7,2,1.8,2,3.4c0,1.6-1.1,2.8-2,3.4    c-0.2,0.2-0.3,0.5-0.1,0.8c0.1,0.2,0.3,0.2,0.5,0.2c0.1,0,0.2,0,0.3-0.1c1.6-1.2,2.5-2.7,2.5-4.3C100,10,99.2,8.5,97.6,7.3z"/>
	</g>
	<g>
		<path class="st3" d="M86.8,40c-0.1,0-0.2,0-0.3,0.1l-3.7,3.7h-1.8c-0.6,0-1.1,0.5-1.1,1.1v1.6c0,0.6,0.5,1.1,1.1,1.1h1.8l3.7,3.7    c0.1,0.1,0.1,0.1,0.2,0.1c0,0,0.1,0,0.1,0c0.1,0,0.2-0.1,0.2-0.2V40.3C86.9,40.2,86.9,40.1,86.8,40z"/>
		<path class="st3" d="M90.8,41.1c-0.1-0.1-0.3-0.1-0.4,0c-0.1,0.1-0.1,0.3,0,0.4c1.1,1,1.8,2.5,1.8,4.1c0,1.6-0.6,3.1-1.8,4.1    c-0.1,0.1-0.1,0.3,0,0.4c0.1,0.1,0.1,0.1,0.2,0.1c0.1,0,0.1,0,0.2-0.1c1.2-1.1,2-2.7,2-4.5C92.8,43.8,92.1,42.2,90.8,41.1z"/>
		<path class="st3" d="M89.5,42.2c-0.1-0.1-0.3-0.1-0.4,0c-0.1,0.1-0.1,0.3,0,0.4c0.9,0.8,1.5,1.9,1.5,3c0,1.1-0.6,2.2-1.5,3    c-0.1,0.1-0.1,0.3,0,0.4c0.1,0.1,0.1,0.1,0.2,0.1c0.1,0,0.1,0,0.2-0.1c1-0.9,1.7-2.2,1.7-3.4C91.2,44.4,90.5,43,89.5,42.2z"/>
		<path class="st3" d="M88.4,43.5c-0.1-0.1-0.3-0.1-0.4,0.1c-0.1,0.1-0.1,0.3,0.1,0.4c0.4,0.3,1,0.9,1,1.7c0,0.8-0.5,1.3-1,1.7    c-0.1,0.1-0.1,0.3-0.1,0.4c0.1,0.1,0.1,0.1,0.2,0.1c0.1,0,0.1,0,0.2-0.1c0.8-0.6,1.2-1.3,1.2-2.1C89.6,44.8,89.2,44.1,88.4,43.5z"/>
	</g>
	<path class="st3" d="M65.6,12.5L40.8,0.1c-0.2-0.1-0.4-0.1-0.5,0C40.1,0.2,40,0.4,40,0.6v24.8c0,0.2,0.1,0.4,0.3,0.5   c0.1,0.1,0.2,0.1,0.3,0.1c0.1,0,0.2,0,0.2-0.1l24.8-12.4c0.2-0.1,0.3-0.3,0.3-0.5C65.9,12.8,65.8,12.6,65.6,12.5z"/>
	<path class="st3" d="M50.7,45.4l-10.3-5.2c-0.1,0-0.2,0-0.2,0c-0.1,0-0.1,0.1-0.1,0.2v10.3c0,0.1,0,0.1,0.1,0.2c0,0,0.1,0,0.1,0   c0,0,0.1,0,0.1,0l10.3-5.2c0.1,0,0.1-0.1,0.1-0.2C50.8,45.6,50.7,45.5,50.7,45.4z"/>
	<g>
		<path class="st3" d="M13.8,22.3c0.1,0.1,0.3,0.2,0.4,0.2c0.2,0,0.3-0.1,0.4-0.2l8.3-8.3c0.2-0.2,0.2-0.4,0.1-0.6    c-0.1-0.2-0.3-0.4-0.5-0.4l-3.5,0V0.6c0-0.3-0.3-0.6-0.6-0.6h-8.3C9.7,0,9.5,0.3,9.5,0.6V13H5.9c-0.2,0-0.5,0.1-0.5,0.4    c-0.1,0.2,0,0.5,0.1,0.6L13.8,22.3z"/>
		<path class="st3" d="M27.2,20.7c-0.7,0-1.2,0.5-1.2,1.2V26H2.4v-4.1c0-0.7-0.5-1.2-1.2-1.2c-0.7,0-1.2,0.5-1.2,1.2v5.3    c0,0.7,0.5,1.2,1.2,1.2h26c0.7,0,1.2-0.5,1.2-1.2v-5.3C28.4,21.2,27.9,20.7,27.2,20.7z"/>
	</g>
	<g>
		<path class="st3" d="M7.8,52.6c0.1,0.1,0.1,0.1,0.2,0.1c0.1,0,0.2,0,0.2-0.1l4.7-4.7c0.1-0.1,0.1-0.2,0.1-0.4    c-0.1-0.1-0.2-0.2-0.3-0.2l-2,0v-7c0-0.2-0.1-0.3-0.3-0.3H5.7c-0.2,0-0.3,0.1-0.3,0.3v7h-2c-0.1,0-0.3,0.1-0.3,0.2    c-0.1,0.1,0,0.3,0.1,0.4L7.8,52.6z"/>
		<path class="st3" d="M15.3,51.7c-0.4,0-0.7,0.3-0.7,0.7v2.3H1.3v-2.3c0-0.4-0.3-0.7-0.7-0.7C0.3,51.7,0,52,0,52.3v3    C0,55.7,0.3,56,0.7,56h14.7c0.4,0,0.7-0.3,0.7-0.7v-3C16,52,15.7,51.7,15.3,51.7z"/>
	</g>
	<path class="st3" d="M466.6,8.2l-8-8.1c-0.1-0.1-0.3-0.2-0.5-0.2h-17.4c-0.4,0-0.7,0.3-0.7,0.7v30.9c0,0.4,0.3,0.7,0.7,0.7h25.5   c0.4,0,0.7-0.3,0.7-0.7V8.7C466.8,8.5,466.8,8.4,466.6,8.2z M449.4,9.6c1.5,0,2.7,1.2,2.7,2.7c0,1.5-1.2,2.7-2.7,2.7   s-2.7-1.2-2.7-2.7C446.7,10.8,447.9,9.6,449.4,9.6z M461.3,26.8c-0.1,0.2-0.3,0.3-0.5,0.3h-13.4c-0.2,0-0.4-0.1-0.6-0.3   c-0.1-0.2-0.1-0.4,0-0.7l3.4-6.7c0.1-0.2,0.3-0.3,0.5-0.4c0.2,0,0.4,0,0.6,0.2l2,2l3.6-6.6c0.1-0.2,0.4-0.4,0.7-0.3   c0.3,0,0.5,0.2,0.6,0.5l3.4,11.4C461.5,26.4,461.5,26.6,461.3,26.8z M457.4,9.4v-8l8,8H457.4z"/>
	<path class="st3" d="M453.3,44.1l-4-4c-0.1-0.1-0.1-0.1-0.2-0.1h-8.7c-0.2,0-0.3,0.1-0.3,0.3v15.4c0,0.2,0.1,0.3,0.3,0.3H453   c0.2,0,0.3-0.1,0.3-0.3V44.3C453.4,44.3,453.3,44.2,453.3,44.1z M444.7,44.8c0.7,0,1.3,0.6,1.3,1.3c0,0.7-0.6,1.3-1.3,1.3   c-0.7,0-1.3-0.6-1.3-1.3C443.3,45.4,443.9,44.8,444.7,44.8z M450.6,53.3c-0.1,0.1-0.2,0.1-0.3,0.1h-6.7c-0.1,0-0.2-0.1-0.3-0.2   c-0.1-0.1-0.1-0.2,0-0.3l1.7-3.3c0-0.1,0.1-0.2,0.2-0.2c0.1,0,0.2,0,0.3,0.1l1,1l1.8-3.3c0.1-0.1,0.2-0.2,0.3-0.2   c0.1,0,0.2,0.1,0.3,0.2l1.7,5.7C450.7,53.1,450.7,53.2,450.6,53.3z M448.7,44.7v-4l4,4H448.7z"/>
	<g>
		<path class="st3" d="M134,18.8h-0.6v5.6h0.6c1.3,0,1.7-1.5,1.7-2.8C135.7,20.3,135.3,18.8,134,18.8z"/>
		<path class="st3" d="M127.7,18.8h-1v2.7h1c1.6,0,1.7-1,1.7-1.3C129.4,19.8,129.3,18.8,127.7,18.8z"/>
		<path class="st3" d="M146.7,8.2l-8.1-8.1c-0.1-0.1-0.3-0.2-0.5-0.2h-17.4c-0.4,0-0.7,0.3-0.7,0.7v30.9c0,0.4,0.3,0.7,0.7,0.7h25.5    c0.4,0,0.7-0.3,0.7-0.7V8.7C146.9,8.5,146.8,8.4,146.7,8.2z M127.7,22.8h-1v2.3c0,0.4-0.3,0.7-0.7,0.7c-0.4,0-0.7-0.3-0.7-0.7v-7    c0-0.4,0.3-0.7,0.7-0.7h1.7c2.1,0,3,1.4,3,2.7C130.8,21.4,129.8,22.8,127.7,22.8z M134,25.8h-1.3c-0.4,0-0.7-0.3-0.7-0.7v-7    c0-0.4,0.3-0.7,0.7-0.7h1.3c1.8,0,3,1.7,3,4.2C137.1,24.1,135.9,25.8,134,25.8z M142.5,18.8h-2.4v2.7h1.5c0.4,0,0.7,0.3,0.7,0.7    s-0.3,0.7-0.7,0.7h-1.5v2.3c0,0.4-0.3,0.7-0.7,0.7c-0.4,0-0.7-0.3-0.7-0.7v-7c0-0.4,0.3-0.7,0.7-0.7h3c0.4,0,0.7,0.3,0.7,0.7    C143.2,18.5,142.9,18.8,142.5,18.8z M137.5,9.4V1.3l8.1,8.1H137.5z"/>
	</g>
	<g>
		<path class="st3" d="M127,49.3h-0.3v2.8h0.3c0.6,0,0.8-0.8,0.8-1.4C127.8,50.1,127.6,49.3,127,49.3z"/>
		<path class="st3" d="M123.8,49.3h-0.5v1.3h0.5c0.8,0,0.8-0.5,0.8-0.7S124.6,49.3,123.8,49.3z"/>
		<path class="st3" d="M133.2,44.1l-4-4c-0.1-0.1-0.1-0.1-0.2-0.1h-8.7c-0.2,0-0.3,0.1-0.3,0.3v15.3c0,0.2,0.1,0.3,0.3,0.3H133    c0.2,0,0.3-0.1,0.3-0.3V44.3C133.3,44.2,133.3,44.2,133.2,44.1z M123.8,51.3h-0.5v1.1c0,0.2-0.1,0.3-0.3,0.3s-0.3-0.1-0.3-0.3V49    c0-0.2,0.1-0.3,0.3-0.3h0.8c1,0,1.5,0.7,1.5,1.3C125.3,50.6,124.9,51.3,123.8,51.3z M127,52.8h-0.6c-0.2,0-0.3-0.1-0.3-0.3V49    c0-0.2,0.1-0.3,0.3-0.3h0.6c0.9,0,1.5,0.8,1.5,2.1C128.5,52,127.9,52.8,127,52.8z M131.2,49.3H130v1.3h0.8c0.2,0,0.3,0.1,0.3,0.3    s-0.1,0.3-0.3,0.3H130v1.1c0,0.2-0.1,0.3-0.3,0.3s-0.3-0.1-0.3-0.3V49c0-0.2,0.1-0.3,0.3-0.3h1.5c0.2,0,0.3,0.1,0.3,0.3    S131.4,49.3,131.2,49.3z M128.7,44.7v-4l4,4H128.7z"/>
	</g>
</g>
</svg>