<?xml version="1.0" encoding="utf-8"?>
<!-- Generator: Adobe Illustrator 15.1.0, SVG Export Plug-In . SVG Version: 6.00 Build 0)  -->
<!DOCTYPE svg PUBLIC "-//W3C//DTD SVG 1.0//EN" "http://www.w3.org/TR/2001/REC-SVG-20010904/DTD/svg10.dtd">
<svg version="1.0" id="Layer_1" xmlns="http://www.w3.org/2000/svg" xmlns:xlink="http://www.w3.org/1999/xlink" x="0px" y="0px"
	 width="28.018px" height="28.816px" viewBox="0 0 28.018 28.816" enable-background="new 0 0 28.018 28.816" xml:space="preserve">
<g>
	<ellipse cx="5.504" cy="26.856" rx="1.903" ry="1.961"/>
	<ellipse cx="15.277" cy="26.856" rx="1.903" ry="1.961"/>
	<path d="M26.655,0.02c-2.605,0.243-3.337,1.857-3.604,2.382c-1.509,2.955-2.783,2.542-5.482,2.575
		C17.391,4.979,1.625,4.986,1.625,4.986s-2.102-0.126-1.68,2.051c0.422,2.176,2.303,9.284,2.303,9.284s0.344,1.326,2.012,1.505
		c1.669,0.177,11.404,0.161,11.404,0.161s2.862,1.741-1.212,3.872c-0.333,0.175-6.611,0.07-9.934,0.141
		c-1.17,0.023-1.157,1.958-0.413,1.945c1.668-0.022,11.017,0.014,11.017,0.014s1.659-0.303,2.638-2.656
		c0.979-2.353,6.242-16.812,6.242-16.812s1.117-2.595,2.329-2.595C27.542,1.896,29.26-0.224,26.655,0.02z M5.713,13.333
		c-1.105,0-2.003-0.897-2.003-2.003c0-1.106,0.896-2.003,2.003-2.003c1.105,0,2.003,0.896,2.003,2.003
		C7.716,12.437,6.819,13.333,5.713,13.333z M10.713,13.333c-1.105,0-2.003-0.897-2.003-2.003c0-1.106,0.896-2.003,2.003-2.003
		c1.105,0,2.003,0.896,2.003,2.003C12.716,12.437,11.819,13.333,10.713,13.333z M15.713,13.333c-1.105,0-2.003-0.897-2.003-2.003
		c0-1.106,0.896-2.003,2.003-2.003c1.105,0,2.003,0.896,2.003,2.003C17.716,12.437,16.819,13.333,15.713,13.333z"/>
</g>
</svg>
