<?xml version="1.0" encoding="utf-8"?>
<!-- Generator: Adobe Illustrator 15.1.0, SVG Export Plug-In . SVG Version: 6.00 Build 0)  -->
<!DOCTYPE svg PUBLIC "-//W3C//DTD SVG 1.1//EN" "http://www.w3.org/Graphics/SVG/1.1/DTD/svg11.dtd">
<svg version="1.1" id="Layer_1" xmlns="http://www.w3.org/2000/svg" xmlns:xlink="http://www.w3.org/1999/xlink" x="0px" y="0px"
	 width="28.018px" height="28.816px" viewBox="0 0 28.018 28.816" enable-background="new 0 0 28.018 28.816" xml:space="preserve">
<g>
	<path fill="#313131" d="M1.625,4.986c0,0-2.102-0.126-1.68,2.051c0.422,2.176,2.303,9.284,2.303,9.284s0.344,1.326,2.012,1.505
		c1.669,0.177,11.404,0.161,11.404,0.161s2.862,1.741-1.212,3.872c-0.333,0.175-6.611,0.07-9.934,0.141
		c-1.17,0.023-1.157,1.958-0.413,1.945c1.668-0.022,11.017,0.014,11.017,0.014s1.659-0.303,2.638-2.656
		c0.979-2.353,6.242-16.812,6.242-16.812s1.117-2.595,2.329-2.595c1.211,0,2.929-2.12,0.323-1.876
		c-2.605,0.243-3.337,1.857-3.604,2.382c-1.509,2.955-2.783,2.542-5.482,2.575C17.391,4.979,1.625,4.986,1.625,4.986z"/>
	<ellipse fill="#313131" cx="5.505" cy="26.855" rx="1.904" ry="1.962"/>
	<ellipse fill="#313131" cx="15.277" cy="26.855" rx="1.903" ry="1.962"/>
</g>
</svg>
